/* XPM */
static char *crate[] = {
/* columns rows colors chars-per-pixel */
"64 64 247 2 ",
"   c #0B0100",
".  c #120500",
"X  c #150B00",
"o  c #1B0B00",
"O  c #190E08",
"+  c #1C1201",
"@  c #1E120A",
"#  c #220E02",
"$  c #231400",
"%  c #291504",
"&  c #261906",
"*  c #2B1B02",
"=  c #23160F",
"-  c #2C1608",
";  c #221D0A",
":  c #2C1C0A",
">  c #301F03",
",  c #311E0D",
"<  c #241713",
"1  c #271C16",
"2  c #2B1E13",
"3  c #291E18",
"4  c #351F11",
"5  c #2F2003",
"6  c #26210E",
"7  c #2E220B",
"8  c #322306",
"9  c #3B2607",
"0  c #34250D",
"q  c #37290E",
"w  c #3A290D",
"e  c #2C2112",
"r  c #2C211A",
"t  c #2E2818",
"y  c #332612",
"u  c #392711",
"i  c #362A13",
"p  c #3B2C13",
"a  c #31251D",
"s  c #3C2618",
"d  c #352A1C",
"f  c #3C2E19",
"g  c #3F3114",
"h  c #3E321C",
"j  c #342721",
"k  c #352C23",
"l  c #3A2C25",
"z  c #3E3223",
"x  c #3C3228",
"c  c #402D0F",
"v  c #412F13",
"b  c #423215",
"n  c #493415",
"m  c #43341B",
"M  c #48371C",
"N  c #463A1D",
"B  c #4A3A1D",
"V  c #523D1E",
"C  c #433623",
"Z  c #483723",
"A  c #463A24",
"S  c #4C3C23",
"D  c #41362B",
"F  c #463C29",
"G  c #4B3D2A",
"H  c #523F22",
"J  c #523F2A",
"K  c #453A35",
"L  c #4B3F34",
"P  c #503E3A",
"I  c #4F401F",
"U  c #51431E",
"Y  c #4D4125",
"T  c #43412C",
"R  c #4D422D",
"E  c #534224",
"W  c #594526",
"Q  c #5D4E27",
"!  c #54452A",
"~  c #59472B",
"^  c #56492C",
"/  c #5B4A2D",
"(  c #5F502F",
")  c #4D4232",
"_  c #4D443A",
"`  c #524432",
"'  c #5A4632",
"]  c #544A34",
"[  c #5C4C32",
"{  c #51473D",
"}  c #564B3C",
"|  c #5B4D3C",
" . c #575330",
".. c #5E5035",
"X. c #575239",
"o. c #5D523C",
"O. c #614C2E",
"+. c #61532E",
"@. c #68592E",
"#. c #624E33",
"$. c #624E38",
"%. c #635235",
"&. c #695537",
"*. c #675837",
"=. c #6B5B37",
"-. c #64543A",
";. c #6A563B",
":. c #66583D",
">. c #6B5A3D",
",. c #715937",
"<. c #735D3E",
"1. c #6E613F",
"2. c #74633D",
"3. c #79643E",
"4. c #564C42",
"5. c #594E44",
"6. c #5B4F4F",
"7. c #575046",
"8. c #5D5243",
"9. c #5E5A41",
"0. c #5B5148",
"q. c #635542",
"w. c #6F5640",
"e. c #645A44",
"r. c #6C5C42",
"t. c #60564C",
"y. c #665C4E",
"u. c #6B5D4A",
"i. c #705540",
"p. c #725E42",
"a. c #785F40",
"s. c #725F4A",
"d. c #785D48",
"f. c #665F57",
"g. c #6D6144",
"h. c #67634A",
"j. c #6E624B",
"k. c #736245",
"l. c #7A6345",
"z. c #756943",
"x. c #7C6B43",
"c. c #74644A",
"v. c #7A654B",
"b. c #76694C",
"n. c #7B6A4D",
"m. c #7D714C",
"M. c #676455",
"N. c #746651",
"B. c #7B6751",
"V. c #776A52",
"C. c #7C6D52",
"Z. c #7E7155",
"A. c #7E735A",
"S. c #7F785E",
"D. c #816947",
"F. c #836C4C",
"G. c #896F4E",
"H. c #817247",
"J. c #83724C",
"K. c #8A704F",
"L. c #87784F",
"P. c #88794E",
"I. c #806751",
"U. c #826E52",
"Y. c #896E51",
"T. c #836F59",
"R. c #827255",
"E. c #8B7454",
"W. c #857953",
"Q. c #8B7B55",
"!. c #84755A",
"~. c #8A765B",
"^. c #86795C",
"/. c #8A7A5D",
"(. c #917655",
"). c #907B57",
"_. c #917759",
"`. c #927C5C",
"'. c #867760",
"]. c #8C7660",
"[. c #857B61",
"{. c #8C7D62",
"}. c #8D7D68",
"|. c #927D62",
" X c #937E69",
".X c #86815B",
"XX c #8D815C",
"oX c #918257",
"OX c #94855E",
"+X c #98815F",
"@X c #8E8165",
"#X c #85806C",
"$X c #8E836A",
"%X c #8E8A6D",
"&X c #928265",
"*X c #998364",
"=X c #968963",
"-X c #9A8C65",
";X c #93856A",
":X c #9A866B",
">X c #95896D",
",X c #9A8B6D",
"<X c #9B926C",
"1X c #968770",
"2X c #968B71",
"3X c #9B8D72",
"4X c #978F7C",
"5X c #9B8E7A",
"6X c #979075",
"7X c #9C9175",
"8X c #9E937B",
"9X c #9F987D",
"0X c #A08967",
"qX c #A18D6E",
"wX c #A1926B",
"eX c #A18E74",
"rX c #A29275",
"tX c #AA9676",
"yX c #A49A77",
"uX c #AE9A77",
"iX c #A3957A",
"pX c #A9967C",
"aX c #A4997D",
"sX c #AA997D",
"dX c #B09D7F",
"fX c #9E8D85",
"gX c #9E9381",
"hX c #A39482",
"jX c #A89680",
"kX c #A59C82",
"lX c #AB9C82",
"zX c #A79F8A",
"xX c #B19D84",
"cX c #A7A084",
"vX c #ABA185",
"bX c #ACA28B",
"nX c #AFA98F",
"mX c #B2A385",
"MX c #B1A982",
"NX c #B3A48A",
"BX c #B2A88D",
"VX c #BAA98D",
"CX c #B2A690",
"ZX c #B3AB95",
"AX c #BDAC93",
"SX c #BAAF99",
"DX c #C3BDAD",
/* pixels */
"k f.7._ 0.7.K 6.0.4._ _ 7.K _ 4.{ ] 8.x 9.| 5.` D G D ] G G D G F Y ) Y ] ] Y Y L ' ` ` q.` | | A h h ) s , u :.G G | 5.) ) F x ",
" .yX-X<Xm.=XU.@XOXQ.=XQ.H.2.Q.-X8XS.A.$XkX}.C.!.{.:X;X_.p.<.l.'.b.N.s.r.b.[.!.$X;X[.'.}.kX7XV.[ c.[.6X;X}.!.b.$.B.{.>.b.n.}.1XY ",
"{ C.!.;X X_.~.|._.,.`.Y.l.p.F.Y.{./.n.Z.Z.Z.c.m.,.D.(.F.D.3.F.F.l.a.l.,.l.Y.k.v.k.n.!.!.T.!.;.:.^./.;XT.;X:XeX|.~.z.m./.+.v.Z.S ",
"P fXhX5XjXhXA.' B.B.].' J B.I.s.XXsX,Xn.k.U.).n.).`.`.<.l.D.`.).O.&.l.l.F.Y.<.a.c.E.&Xl.E %.H p.n.l.U.F.~.E.~.E.).v.=.`.`.Z.,X^ ",
"| 7X ..Xz.=Xm.MXm.=.W.W.Q.+.U -XiXiX<X{.3XJ.E.2.~ p.{.R.{.{.,X{.1.z.!.n.Z.!.m.E.;.&.k.<.k.|.>.v.`.3X XU.p.~.&X:XT.B._.%.;XeXN.8.",
"M.DX#X%XS.nXkXzX@X9XnX6XZX9X^.aXCXbXlXaXAX&XiX,X8X8X8X$X2X8XhX6X>X7XiX>X>X6X;X7X X|.:X;XqXrX~.~. XpXxXVXrXiX3XiXfX5X3X X:X}.hX5.",
"  r @ = 1 @ k 1 a r @ . r = = k 2 z t e f * G A i i y f A ] S i f b Z C G J A S u m J S S m Z $.s.q.$.-.[ ` ` q.q.| %.p.:.C.[.r ",
"N R.&X-X .E #.* $ & 5 * 8 + * & . O   @ e $ e : 0 u 7 0 & u u h s 4 - # % , % - : - - % , . # & o # - o 7 y e . X NXc.l.k.C.S.T ",
"m B.~.k.l.%.~ $ * q m m m m b p o y . m G y A N g N w B Y ^ g N S m b b q Y S g M A m w E w w m g 8 N m Z G {   + $Xn._.(.*XC.G ",
"u c.I.l.l.n.v.u p N Y ! S Y N m m h   h G ! ^ N c ! ~ #./ ^ Y Y G S ^ ! g ! ..g.[ ..~ V #.H B ! E b ~ ! [ } }   + 4X|.(.G.~.^.} ",
"h k.n.,.;.U.~.m Y  .....[ ] ^ Y f u o y : ! [ ..Y ( E ..>.n. .I m g p m b :.-.b.r.r.>.O.1.%...:.-.^ >.%.p.q.5.  ; 4X&Xl.l.Y.R.A ",
"S u.v.O.~ =.!.M ! ..r.:.:.-.%...H p . : $ -.[ [ Y %.%.:.%.b.g.g.( A 5 8 p Z.j.C.b.c.k.%.v.>.r.u.:.*.k.>.k.e.o.. 6 8X&Xl.D.k.j.d ",
"Z ' l.~ %./ _.[ [ :.g.g.r.:.:.:.~ M % y o Y b n N %.>.>.#.b.m.m.:.o.m q $ Z.V.{.!.C.v.1.l.g.u.r.1.:.c.>.k.;.8.o ; hXtX_.G.<.c.F ",
"p S ,.O.<.W R.:.-.g.n.V.k.g.>.e.S M i b + q 5 b E ..%.r.-.Z.V.h.^ -.[ ! * $X!./.[.!.!.v.J.v.n.k.g.g.n.,.n.q.q., ; 3X X(.G.l.b.R ",
"u ^ $.&.&./ p...g.C.A.R.n.j.g.c.-.S % C S ~ B I Y *.c.U.-.g.m.^.:.r.:.g.q sX;X{.{.!.~.F.~.!.{.Z.R.n.U.l.~.s.p.t ; 1Xn.<.3.U.n.D ",
"Z w.' &./ %.:...N.C.^.^.Z.c.b.b.$.H > S #.! E %.g.>.k.^.b./.@X.X^.b.e.>.+ >X@X2X&X{.}.!./._.}.Z.{./.~.n.|.C.j.i 6 8XE.,.O.n.C.` ",
"m $.;.O.O.O.;.~.b.u.,X;X!.n.b.h.%.[ > S v -.[ k.1.^.k.Z.U.b.&XA.S.$Xb.p.$.'.rXeX3X&X,X|.`.*X|.(.|.;XR._.R.B.V.s < 7XJ.~.w.x.z._ ",
"h [ %.O.%.O.$.!.C.c.3X;X$X!.Z.b.r.E v f $.#.!.{.b.^.C.!./.!.$XZ./.@X!.b.N.!.iXeX7X1X3X:X|.0X_.G._.&XR./.!.A.V.f O 7XOXT.' @.1.0.",
"b | &.%.;.%.;.!.C.n.3X3X$X{.[.V.g.r.m c.b.b.!. X/.@X/./.&X,X;X/.$X$X%X!.^.!.aXeXiX3XrXqX0X0X(.G.`. XU.^.^.!.N.f r 7XJ.l.k.P.R._ ",
"b ' $.&.=.#.$.n.b.T.3X3X;X@X@XA.n.!.N lXT.&XR.}.>X&X,X{.&XyX;X&X>X%X2X>X;X^.aXjXiX3XrXqXqX0X(.).|.&X^._.~.'.V.s r yX=XR.I.P..X5.",
"h [ &.%.&.O./ k.p.!.2X7X;X%X>X$X[.Z.^ 7X@X{.3X7X%X/.>X^.!.<X&X>X>X7X%XrX}.@XrXmXsXiXrXeXqX0X_.|.{.&X&XXX/./.V.C 1 ;Xm.w.l.J.b.x ",
"b ;.d.&.;.%.#.s.;.|.2XrX;X>X7X2X!.s.[ ,X3X{.aXaX@X{.>XE.!.>X&X3X>X7X;X7X^.&XrXlXlXsXrXqXtX-X).0X`. X:X{.!.}.V.G 1 <XL.B.k.J.W.t.",
"C k.U.;.&.&.%.j.r.1X;X7X&X%X>X@Xb.-...aX;X3X;X3X/.@X>X X&X,X3X7X>X7X>X3X{. XiXjXpXpXtXeXpX:X(.tX&X*X:X{.!.|.V.C 1 ^.Q ;.c.oXm._ ",
"m B.E.&.%.%.%.r.j.3X&X>X/.{.^.C.g.! -.2X3X2X2X&XW.@X:X,X,XrXrX3X7X7X6X;X;X}.lXpXeXiXtXrXuX-X).uXqX1X,X_.!.{.c.f r 3Xm._.v.Q.m.t.",
"u A.B.p.<.>.O.p.r.rX;XC.{.!.k.v.>.k.[ lX3X;X7XiX3X;X}.3X3X3XaX1X;XaX@X8X6X$XmX7XaXaXyXtXtX`.eX3XeX_.1XiX!.1XB.m a .Xl.~.c.=XW.{ ",
"u c.!.Y.%.&.;.;.r.1X}.A.!.n.j.j.c.n...jX3X;X7XpX7X3X&X3XeXeXaX;X8X7X%XcX6XZ.jXAXkXyXrXtXtX/.3X3X3X:XiX'.H ;.r.J a XXz.;.s.*X&X{ ",
"m !.~.U.;.;.$.$.p.'.~.!.!.B.B.j.!.!.%.aX1X3X7XaX3X3X&X2XaXiXaXiX8XhX9X9X2X}.aXiXvXiXrXqXtX`.3XrX3X3XiX{.$.n.c.! r =XQ.[ B.OX<X0.",
"Z 1Xn.%.l.l.( k.c.!.~.{.!.Z.!.R.&X{.$.aX1X6X7XiX;XiX&X;X6X&X&X}.7XrXaX6X6X3XjX:XlXyXrXtXtX/.3XiXrX:XeX3X{.3XA.J ; ^.L.' p.2.W.0.",
"b  Xc.#.l.v.$.n.n.A.!.&X{.A.{.~.,X&X:.sX>X6X6X6X!.2X3X7XjX7X3X7XaX2XaXiX8X[.aXVXpXiXsXtXuX&XrX7XyX&X7X2X{.[.c.! k XXl.$.$.%.1.t.",
"f C.~.T.;.&.;.s.C.!.{.&X~.T.}.!.3X>Xr.kX>X6X2X2X[ b.!.;X7X;X>X;XiX7X8X6X8X[.iX1X3XpXdXuXuX:XaXyXsX;X3X;X$X!.g.[ 4.<Xm.T.C.J.z.5.",
"f n.&X&X<.#.;.p.C.}.{. X{.!.}./.3X,Xg.kX>X2X2X>X}.;X3XaXrX,X7X;X6XiX6X%XhX;XiXs.{.rXdXtXrX&XiX9XvX&X3X;X<X;Xb.! ) 7XXX X'.OXz.k ",
"i R.~._.U.2.&.C.T.&X}.&X&X}.;X;X<X,Xg.aX%X>X2X2X3X@X{.;X}.;XrX;X6X6X%X6XaXV.iX~.!.3XuXqX:X&XyX9XyX>X6X{.$X@Xj.S D yXwX].Y.=Xm.1 ",
"f c.k.&Xn.>.%.T.!.%X>X;X;X;X@X X>X;Xu.rXrX>X;X3X$X2X{.&X3X;X3X7XaX7XaXiXlXg.7XaX%X<XyX*X*X~.eX5XiX&X&X;X;XT.b.J G mX/.<.`.|.}.] ",
"g ;X^./.!.F.&.B./.>X%X@X;X>X{.}.>X;X>.7X6X;X;X3X}.>X{.;X3X&X;X3X7X3X>X;XiXc.lXNX%X7X,XOX*X~.3X3XeX|.&X;X;XA.c.S d 8X!.K.`.`.s.C ",
"0 ;X^.n._.&Xk.~.{.%X$X@X;X;X}./.3X3Xp.6X3X@X&X3X/.;X{.$X;X&X2X3X7XhX7X;XjXj.3X3X3X<XqX|.0X`.eX2X,X}.&X;X;XI.k.S h 2X!.`.`.{.[ C ",
"u ^.^.m.U.Z.$.B.^.@X@X}.&X&X{.^.;X>Xs.eX6X&X@X;X!.@X!.{.1X&X;X;X;X7X2X&XNXC.eXeXeXtX:X|.0X&XiX2X3X&X;X X;XC.c.S ) 2X;X&X|._.q.G ",
"A !.<X,X/.E.c.k.A.@X@X@X@X{././.@X&Xe.,X3X}.&X;X[.}.R.^.;X;X@X^.2XiX;X^.vXZ.iXsXrXeX X(. X|.rX1XiX;X;X&X{.Z.b.Z o.;X3XY.*XY.c.8.",
"# ..;X{.n./.l.%.C.^.@X{.}./.!.}.;X;X-.&X2X;X3X3X/.@X!.^.;X$X{.Z.3X<X%X}.lXZ.iXiXiXeX|.E.*X`.qX XpX<X;X}.{.B.c.Z } %X*Xl.`.l.C.} ",
"m c.<X:X&X`.r.%.V.A.S.^.{.[.^.@X3X;X:.;X3X,X>X;XC.^.A.!.@X{.{.!.{.[.}.,XmXA.lXpXjXrX>X~.|.(.0X_.iX,X;X X{.n.c.M ) >X~.p.U.l.!.L ",
"^ c.{./.:Xn.H :.Z.A.Z.Z.{.{.{.&X>X;X:.2X6X;X^.C.c.!.!.^.{.{.{.{.7X$X$X;XaXp.iXrXaXrX&X).`.E.|.Y.rX,X1X&X}.Z.c.Z R 8XT.a.l.l.'.' ",
"f o.&XsX`.p.-.:.k.n.n.!.!.!.b.&X%X3XN.5X&X@.Q k.n.{.b./.%Xn.E n.~./.>X7XaX] >XlXaX%X{.R./.|._.E.,X2X&X;X'.A.j.F K .XL.].U.x.n.5.",
"7 C.&X( ( *X;.b.>.Z.m.!.R.^.U.;X;X5Xt.C.V b %.].v..XZ.n.$X^.( ! v.J.g.!.>X@XlX7XaX>X{._._.;XE.F.!.&X{.3XA.A.h.F 5.<XQ.~.B.x.m.8.",
"m :.Y +./ E.!.k.#.Z.m.R.Z./.W.&X2X2XG ..v Q <.B.v.!.b.g..X/.>.B c >.!.W.^.[.aXjXiX>XC.^.Y._.D.l.!./.-X>X$X!.Z.Y 5.<XOX:X~.J.m.7.",
"y r.! >.;.R.,XJ ..Z.C.R.R.^.!.{./.6XR r.U =.<.T.U.r.>.>.!.n.g./ $ * ~ ..;X!.jXxXiX<Xb.!.p.U.l.x.J.XX!.^.c.C.g.A ) &XoX:XE.J.J.{ ",
"h [ r.=.`.n.%.>.%.n.g.R.^.W.^./.6XiXe [ k.Q.>.n.k.%.-.-.k.-.r.p.<.B ' W {.B.3X6XiX7Xn./.p.l.l.Y.J.&Xz.n.v >.$.^ x E.D.I.i.2.n.| ",
"N Y $.E ~.U.n.[ ..b.:.!./.!.^.{.@XkX] N.1.2.%.~.#.;.>.[ ..$.;.&.#.%.#.p.U.T.rXVX;X3XZ.@Xv.>.p.n.F./.!.E q p e.$.d m.3.d.w.2.c._ ",
"o.M S J.*Xp.Z.[ / n.>.Z.!.R././.$X3Xq.^.U.m.2.;.#.p.-.! E >.#./ %.=.~ p.R.B.;X}. X&XB._.F.%.k.l.v.p.B.* q % s.[ t J.D.U.d.3.z.L ",
"Y N.rX!._.&X/ [ E !.r.n.n.Z./.Z.@X$Xj.;Xv.l.n.#.p.l.~ E ^ >.#.#.>.&.#.<.qXd.lX7X:X&Xb.!.R.%.x.F.n.n.$.w , G s.} z U.D.d.;.3.m.| ",
"S B.;X_.F.~.$...! >.z.n.Z.c.!./.@X3Xe.>XA.k.Q &.O.1.! ~ %.%.e.^ >.! ..:.;Xb.iX2XZ.!.n.B.v.,.D.Y.p.p.H H 9 #.$.^ y j.<.<.l.l.I.Y ",
"f s.{.~.Y.|.r.r.S -.>.b.C.k.n.!./.@Xg.7X!.C.%.&.( >.E W ....>.^ r.( $.r.$XN.iX2XZ.!.b.n.p.;.k.F.>.=.V V c [ [ [ q c.l.<.<.<.n.| ",
"C s.'.|.~.|.r.r.V %.:.n.Z.n.Z.!.!.C.N.7XA.W.:.=./ 1.E ^ %.%.q.^ r.#.-.>.{.b.rX;XZ.!.r.n.;.;.<.F.=.;.V V n O.^ r.0 r.>.l.l.;.b.] ",
"m s.~.].~.!.;.r.N -.:.Z.Z.R.m.!.k.g.V.aXV.!.%.%.Q 1.E U %.%.;.! >.%.$.u.{.n.7X@XC.{.r.n.&.=.&.D.r.<.H W H ^ [ k.y $.%.l.E.l.b.) ",
"s s.T.!.F.B.:.:.N %.%.Z.n.!.m.!.>.>.Z.aXg.n.%.O./ *.I I ( ^ [ S r.%.-.k.{.A.rX;Xn./.:.k.%.&.+.m.k.p.W W W ~ [ j.b q.;.Y.`.I.C.| ",
"p B.T.~.n.l.$.[ N :.*.Z.b.U.n.!.-.g.V.9Xr.c.%.Q Q *.Y I ^ ! %.E >.-.-.j.[.!.5X}.B.{.r.k.>.%.+.v.U.p.O.O.W ~ [ r.h k.p.Y.K.a.B.e.",
"Z !.]._.I.F.-.M N >.%.n.g.n.b.Z.:.b.g.%X:.:.#.E ^ *.Y I ! E -.! $.%.%.p.Z.C.;XZ.B.~.r.;.1.#.Q l.n.=.O.W H W [ [ m c.l.F.F.=.B...",
"m T.I.~.U.U.-.m g %...k.%.k.g.n.%.b.o.$X-.-.O.B U ( N n I Y [ ! ~ / ^ e.V.b.{.N.r.I.;.O.>.E E 1.c./ V n n M ! S C V.l.F.Y.k.c.) ",
"i ) u.q.^ G C ; + N A -.X.:.X.:.2.b.%.Z.[ $.b B c B B b m S G J ! m N [ r.r.!.r.( k.Y r.Y S * -.$.w Z b * v m # Z $.k./.U.T.c.-.",
"D j.N.b.g.b.A.j.j.!.^.^.:.^.Z.S.v.c.c.{.g.C.>.E >.>...! %.k.g.>.n.!.!.Z.!.$.c.b.R.@Xn.>.[ r.:.>.!.n.v.>.r.B.n.n.n.;X>X@X!./.C.' ",
"j.mX6X6X>X7XkXiXaX6X>Xb.&X~ 5 v z.g.Z.{.{.,X&Xz.@X@XZ.v.~.-X/.F.&X~.~.~.R.n.&X^.,X&X/.>.c.&XdX>X>X&X/.R.!.&X/.>X&X3X:XW.n.Z.N.Z ",
"q.ZX2XaX7XkXkXaX<XMXaX<Xz.&.B sX=XrX3X7X7X7X&X.X%XyX<X/./.`.Y.<.{.3Xn.1.&X_.Z.&X&X&X=X/.:X=X=X^.3X/.3X,X/.@X&X&X{./.)./.&X!.!.$.",
"8.SX6XvXcXcXaX9X6XW.9Xg.* w ! &.@XmX<XiX7X$Xg..XA.2X<X@X!.Q.!.L.:X1XrX3X{.{.:X1XC.;X/.&XrX3X/.rX/./.>X>X{.{./.@X=X$X&X@X-X!.n.Y ",
"y.ZXgXcXcXcX9XkXcX%X%XcXg.7Xn.-.Z.kX2XhXjX;Xg.;X>XaXaX.Xc.:.=.v.~.rX3X{.!.{.R.sX&XNX;X/.!.!.:.R.!.7X&XZ.>X$XC.7XC.{.XX/.>X3X&X| ",
"f.gX4X8XzXbXzXZX6X6X2X6X4X$XS.$X$XiXgXhXgX}.C.'.{.%X%X{.{.'.}.iXlX2X8X1XV.{.{.[.n.3X;X7X,X,XV.B.N.3X[.p.{.!.s.1X{.5X@X^.C.'.N.D ",
"x 9.t.X.y.8.X.9.R R R X.X.9.h.X.q.| u.| t.8.u.R ^ ! S ! ^ D A ) ] ] e.e.] o.A z G S M J M Z f b i A A y h F C R h A i A f J C y "
};
