/* XPM */
static char *grass[] = {
/* columns rows colors chars-per-pixel */
"64 64 4 1 ",
"  c #5C7C50",
". c #6C8147",
"X c #789348",
"o c #879F46",
/* pixels */
"X.XX..  XXXXX XoXX     ..XXXXXX.XX.XXXX.X.XX  .XX.XXXXX..XXXXXXX",
"XXXXXoo. X... Xoo.  X..ooo  X  ..XX.XX.XXX  XX.X..XXX.ooXXXX..XX",
"Xo.XXXoo. X.XXXXo.XX..oo   o  ...  X.XXX....XXXX..XX.ooX    oX  ",
"oo   XXo.X.XXXXXXXX..oX.   o X.XX..  .XXX..XXXX..XX.ooX  .  X   ",
"...X. Xoo.XX...XX X.o.. XX.o .XXXXXX. XX..XXXX..XXXooX .X..oX ..",
"X...X  o..X.oo.X  X.o. XXX.. .X X.XX. XX.XXX.oo.XX.o. XXXXoX ...",
"X.X.XX.o.XX.o .X XXXoXXXXXX.oXX XXXXX....XX.oX.XXX...XXXX.o..XXX",
"XXX..X..XXXoX .XXXooo.XX..XXXXXXXXXXXXX.XX.oX.XX  XXXXXXX...XX..",
".XXXXXXX..XXX..XX..XXo...XXX........XXXXX.oXX.X  X...XX..XXX....",
"X.XXXXX..XX...XXXXXXXXX.XXXXXXX..oooo..XXooXX.X..ooX..X....X.X.X",
"X.X...XXXX..o.XXXXX...XXXXX  XXXX.  .oooXoXX  .ooX  XXXX.X.XXX.X",
"XXX  ..XXX.oo XXX. X.oo....X XX XXX   XXooX  .oo  XXXXXXXXXXXX.X",
"..XX  .XX.oo  .X. X. XoooX..XX. .XXX.. XXoX ooX  XXXXXXXXX.XXXXX",
"XXXX. XX..oXX .XX X.X  XoooX.X.XXXXXXX. XX ooX .XXXXXX.oooXXo.XX",
".........XoXX .XXXX...X  Xo.XXXXXXXX   ..XXXX  .XXXX..oo.XX.ooXX",
"XX..ooooo.oX   ......XXX XXXXXXXX..o    oXX.oo.....Xoo    ..XoXX",
"XXX   .XXooX .ooooo..XXX....XXXX.oo XXX..oo  Xoo.X.XXX.XXXXXXo.X",
"XXoo.   .Xo  oXX   XXXX.Xo..XX..oo . .... ooX Xo.XXXXXXXXXXXX.XX",
"Xoo.XXX  .XXooX  .XXX..Xo. XX........XXXX  o....XXX...XX..XXX.XX",
"XoX.X..   Xoo   XXXX..oo  XXXXXXXXXXXXXXXX XoXX...X..XXX.X...XXX",
".  .XXXX  X  X oXXX.Xoo  ...XXX.XXX.XXX.XX.XoXXXXXXX..XX...XX.XX",
". ..XX..  XXX.o..XXXXX XX  ..XX...XXoo..XXX.X..XXXXXXXXXXX.  X..",
"XX....XXXX    .XX  X.....XX .X.XXX.ooX X.XXX...X.....oo.    ..X.",
"X...XXXX...oooXX  ooo..XX..XX.X.X.oXXX XX XXX...XXXo o...XXXXX.X",
"XXXXX...ooo   XXXX..XoooXXo.XXXX.oXX.. X  X..XXXXoo  .XXXXXX...o",
"XXX..oooX  X. .oX  .X  oo.oo.XX.oX  ..X XX..XX..o  .XXXXXX..oooX",
"XX....X  o..  oXXX ...  oo.oo.Xoo   .XXXXXXX...  ..XXXXX.oooXXXX",
"XXXX.  Xo..  oXXoo XX.XX   .o.oXX  oooooXXXXXX.X..XXXXX..o.    .",
".XXXXX.oo.X.oX.Xo.XXX.XX.. ooXoX .XXXXXXoo..XXXXXXX.oXX...    .o",
"...XX.oo.XX.oXXoX.XXXX...oo  oooXX     XXoXX..XX X .o..XXXX X.oo",
"ooo.X.o.XX..o..o..XXX.XX   .oo Xo.   ..   ..X..XX  X.o..X XX.ooX",
"X  .X..XXX...X.X..X..Xo  ...o   Xo .X.X..XX ...X XX..XX.X  X.oX ",
"XX X.X.X.X..XX.X.XX.oo...X.      XXo.XXXXX   X.  XXXXXXXXX X.o  ",
"XX..XXX...XXXX.XXX..oXXXX.  X...  XXo.XXX  ..XXX XX......X X.o X",
"X oXXXooo.XXXX.X..XXXXXXXX ....XXX.XooXX.X.XXXX...ooooX .X X...X",
"XX ..ooXX..XXXXX..XXooo.XXX..........o.X.XXXX..oooXXX   X  XXXXX",
"X.o XooX..XXXXXX.X.XXXooo..X..XXXXXX.o.X..XX XXXXXXX  .XX ....XX",
"XXXXXXX..X..X..o....XXXXo...XXX..XXXX..XXXXXX XX.X  ..XXX.oooo.X",
"XX.....Xooo..X.oooo...X..o..XXX.X.XXXXX.o....XX.   .XXXXXooXX.XX",
"...ooo..XXXoooo  XXoo..X..XXXX..X.XXX.oooX..X XX XXXXXX...XX.XXX",
".ooXX..XX...XXXoo .XXXXXXXXXXXXX.....ooXX.   XXXXXX......X  .XX.",
"XoXX XXXX.X..XXXX..XXX... .....XXXXXXXXX  XXXXXX..ooX..XXX XXXX.",
"oX    XXX.ooo.XXX...XX.XX   .Xoo...X.XX .XXXX...oooX.XXXXXXXXX..",
"XX  XX....  oo.X....X XXXXXX ..oooo...X .XX...ooXXX.XXX....XX...",
"X  XXX  Xooo  X..  .XXXX...XXXX.XXXoo.......ooXXX..XXXX.oo.... X",
"X  ..XX.  XXo. .X XXX.oooX..XXX...XXXoX.X. XoXXX .XXXXXX..ooo. X",
"X.XXXXXX.. XXo. X.XX.ooXX ..XXXX   XXoX.. XoXX. ..XX..XX  ..oo X",
"X......X...  o.XX..X...   .X..XXXX  XXo. ooXX  .XX  X.XXX   .ooX",
"..XooooXX..X ..XX.XX.XX ..XXXXX.X.. o..  oXX   XXX XX.XXX..  XXX",
"XooX.X.ooo....XX...XXXXX.X.XXXX...ooX.X o   ..X.X  XXXX.oooooXXX",
"oX.... XXXoo..X. ...XXXXXX.XXX..ooXXXX... Xo...XX XX..ooXX  X.XX",
"XX.XXXX  XXooXX..oooo....X.X.oooXX    .XX.Xoo.XX. X..ooX   ....X",
"..XXXXX . ..oooooXXXX  ...XXooX     .ooXooXXXooXXX...o.  ..X....",
"XX.  XX  . ooX.XXX   ..XXXX.X  ..  .oXXX.ooXXXo.XXXXXXXX..XXXXXX",
"XX.X  XXX.ooXoooX   ...XXX.  .X..X.oXXX.  o.XXooXXX...XXXX..X...",
".X..X.XX.oo  XXoo .XXXXXXX.XXXX...ooXX. X  .XXXo.XXX...XX....XXX",
"..XXX .X.  ..  Xo.....X..XXXXX.XX.oXX.  XX  .XXo.XX .XXX.XX....X",
"XXXXX X.. ....  .o.X.XX ..XX...XX.o..X XXX. .XXo.XXXXXXXXXX.Xo..",
"..XXXXX..XX.X.. .o.XX.X  .X.oo XX.o.XX.X  XX.XX.XX....XXXXX..ooX",
"oo.X XXXXXXX XXX.X.XXXXXX .oX. XX.o.X..  XX ...XXXX..ooo.XXX..Xo",
"XooXXX....XX X..XXX.....X .oXX XX .XXXXX.X  X..XX.XXX. ooo..X.  ",
"XXo..o   .XX.oo.XXX.  XX...oXX XXXX..XXXoX XX.XXX..XXX.  Xo...X ",
"XX  X  ..XXXooX.X..X..   X..XX .XXXX XXXo. X....X ...XXX  Xoo. .",
"X XXX ..XXXXoXXXXX..XXX.  X.XX  .. XX X.X.XXXXX.X.  .XX   XXoo.X"
};
