/* XPM */
static char *_9d1405911414a5fa1f8155b7e91a000fEyTogkblcsry6Ld[] = {
/* columns rows colors chars-per-pixel */
"64 64 169 2 ",
"   c None",
".  c #2A3347",
"X  c #2F3454",
"o  c #323A53",
"O  c #363E58",
"+  c #364157",
"@  c #37405B",
"#  c #3B445E",
"$  c #3D4662",
"%  c #3E4863",
"&  c #6F554B",
"*  c #72594C",
"=  c #67595A",
"-  c #765D50",
";  c #414763",
":  c #404B66",
">  c #484D62",
",  c #434D6A",
"<  c #45516D",
"1  c #49546D",
"2  c #444D72",
"3  c #465271",
"4  c #495573",
"5  c #4C5876",
"6  c #4E5B7A",
"7  c #515E7D",
"8  c #645F6B",
"9  c #57617E",
"0  c #5E637D",
"q  c #7D6860",
"w  c #606277",
"e  c #6A6878",
"r  c #726D76",
"t  c #876755",
"y  c #876957",
"u  c #8D6955",
"i  c #8B6D58",
"p  c #916A55",
"a  c #956F5B",
"s  c #96745E",
"d  c #806B67",
"f  c #8E7666",
"g  c #84736D",
"h  c #9B7964",
"j  c #807570",
"k  c #8B7D79",
"l  c #9D8069",
"z  c #998777",
"x  c #91847A",
"c  c #A5816C",
"v  c #A98671",
"b  c #A68A77",
"n  c #AE9078",
"m  c #B3947C",
"M  c #B29277",
"N  c #525E81",
"B  c #555F89",
"V  c #566384",
"C  c #5B6584",
"Z  c #5E6981",
"A  c #55628A",
"S  c #59668C",
"D  c #5C6A8B",
"F  c #5A6690",
"G  c #5E6B98",
"H  c #5F6B94",
"J  c #626F8C",
"K  c #636E86",
"L  c #627088",
"P  c #6F7789",
"I  c #7B7480",
"U  c #616D91",
"Y  c #647292",
"T  c #65729F",
"R  c #69769F",
"E  c #6C7A9A",
"W  c #6A7594",
"Q  c #717997",
"!  c #6F7CA6",
"~  c #747FA5",
"^  c #707FAD",
"/  c #7382A5",
"(  c #7887A5",
")  c #7F88A2",
"_  c #7683AC",
"`  c #7688A8",
"'  c #7E8CAD",
"]  c #7884AB",
"[  c #7F8EB7",
"{  c #7F8EB8",
"}  c #7986B5",
"|  c #8D8A8B",
" . c #948B85",
".. c #9D8D83",
"X. c #9D908A",
"o. c #868896",
"O. c #8B8C92",
"+. c #81859C",
"@. c #93949F",
"#. c #AE9682",
"$. c #AE9986",
"%. c #B79A83",
"&. c #BA9B84",
"*. c #B4A088",
"=. c #BCA28D",
"-. c #BFA88E",
";. c #8A91A9",
":. c #808EB1",
">. c #828FBD",
",. c #8393B4",
"<. c #8B9AB4",
"1. c #8090B9",
"2. c #8896BB",
"3. c #8798BE",
"4. c #8999BF",
"5. c #90A0B6",
"6. c #C19F82",
"7. c #C4A185",
"8. c #C4A58D",
"9. c #C9A688",
"0. c #C4A98E",
"q. c #CCAA8D",
"w. c #D3AF8F",
"e. c #C7A790",
"r. c #C6AA91",
"t. c #CBAB91",
"y. c #D2AE90",
"u. c #D4B192",
"i. c #8796C2",
"p. c #8897C6",
"a. c #8C9EC5",
"s. c #8E9DCC",
"d. c #909FCD",
"f. c #8DA0C5",
"g. c #8FA2CC",
"h. c #90A2C6",
"j. c #96A8C7",
"k. c #91A2CD",
"l. c #92A1D0",
"z. c #98ABD1",
"x. c #9FB2D3",
"c. c #A3B3D4",
"v. c #A6B8D6",
"b. c #B1BDDC",
"n. c #B4C3DD",
"m. c #BBC6DE",
"M. c #B8C4E0",
"N. c #BECAE2",
"B. c #BFD2E9",
"V. c #C2CCE3",
"C. c #C7D0E5",
"Z. c #C0D2E9",
"A. c #CDD5E8",
"S. c #D3DBEC",
"D. c #D8DEED",
"F. c #DBE1EF",
"G. c #DDE1F0",
"H. c #E0E3EF",
"J. c #E2E7F2",
"K. c #E4E7F2",
"L. c #E3E8F2",
"P. c #E5EAF4",
"I. c #EAEDF5",
"U. c #EDF1F6",
"Y. c #F0F3F8",
"T. c #F3F5FA",
"R. c #FBFBFE",
"E. c white",
"W. c #FDFDFF",
/* pixels */
"                                                                                                                                ",
"                                                                                                                                ",
"                                                                                                                                ",
"                                                                                                                                ",
"                                                                                                                                ",
"                                                                                                                                ",
"                                                                                                                                ",
"                                                                                                                                ",
"                                                                                                                                ",
"                                                                                                                                ",
"                                                                                                                                ",
"                                                                                                                                ",
"                                                                                                                                ",
"                                                                                                                                ",
"                                                                                                                                ",
"                                                                                                                                ",
"                                                                                                                                ",
"                                                                                                                                ",
"                                                                                                                                ",
"                                                                                                                                ",
"                                                                                                                                ",
"                                                                                                                                ",
"                                                                                                                                ",
"                                                                                                                                ",
"                                                          7 7 7 7 7 7 7                                                         ",
"                                                    7 7 6 6 7 6 4 5 5 7 7 7 7                                                   ",
"                                                5 6 5 4 5 5 7 4 3 4 4 4 < 4 7 7                                                 ",
"                                              < : , < ,               , 4 : < , 7 7                                             ",
"                                          3 $ o % ,             k.          , % : 7 7                                           ",
"                                          @ O :         g.N.A.D.k.            < : , 7                                           ",
"                                        O O ,           N.V.S.V.                , o : 7                                         ",
"                                      # O ,           V.A.S.V.                    @ O 3 7                                       ",
"                                    @ o ,           V.S.S.N.                        o : 7                                       ",
"                                    O % 7         V.A.S.m.                          , o , 9                                     ",
"                                  o O <           S.S.n.        T.                    o % 6                                     ",
"                                  O , 7         K.S.v.          T.                    # o 6 7                                   ",
"                                  # , 7       I.S.z.            R.                      o < 7                                   ",
"                                  , 5       E.E.                E.                      o % 7                                   ",
"                                o , 7       E.                  E.                      o $ 7                                   ",
"                                o , 7                           E.                      o $ 7                                   ",
"                                o % 6             E.E.E.E.E.E.E.E.E.E.E.E.E.  b.c.      o % 7                                   ",
"                                o , V                           E.          N.n.        o 3 7                                   ",
"                                o % 7                           E.        N.V.k.g.k.    O 4 7                                   ",
"                                o , 9 6                         E.      V.C.m.g.g.g.    # 7 7                                   ",
"                                o % 6 6                         E.    V.S.m.N.k.g.    o % 7 7                                   ",
"                                  @ < V                         E.  N.G.D.L.k.k.      o $ 7                                     ",
"                                  o % 6 9                       E.N.F.D.L.n.k.      o o 6 7                                     ",
"                                  o % 5 6                       J.J.G.K.M.V.        o $ 7 7                                     ",
"                                    O : 6 7                   N.U.F.L.m.D.Y.      o o 6 9                                       ",
"                                    o O , 7 7               N.G.P.L.V.D.R.      o o 5 7                                         ",
"                                      o $ 4 7 7             G.E.T.A.Y.E.      o o $ 6 7                                         ",
"                                        # , 4 7 7                   E.      o o % 6 9                                           ",
"                                          $ , 4 6 6 6                   < o o 5 V 9                                             ",
"                                            ; , < 4 4 9 6 6     # 3 4 , % % 6 9 6                                               ",
"                                              X o + : 5 9 5 6 7 4 4 4 7 9 < +                                                   ",
"                                            2 4 : # 1 0 B.<.E E E W J Z B.N..                                                   ",
"                          &.              ! ^ ~ D V Y <.B.n.4.a.4.2.,.,.Z.Z.V 4 <                                               ",
"                        7.7.%.d       ^ p.s.k.>.T G } n.Z.v.d.k.k.k.d.g.x.Z.Z.A S A A N             #.n h i y *                 ",
"                        7.y.q.v = C } g.l.g.p.! F G ] Z.Z.j.a.a.a.a.a.a.f.Z.Z.D A V A V A C     z -.0.0.n s u t                 ",
"                      q.y.u.q.m q Q d.k.g.3.~ S 9 C L m.Z.,.:.:.:.' ' ( ( 5.Z.L 6 V A V w r x *.r.0.0.r.M h u u &               ",
"                    8.u.u.u.y.6.f ) g.k.,.U 5 4 3 3 2 6 9 7 6 6 6 6 5 4 < 1 5 1 : 7 0 e k $.e.e.0.0.0.8.v a u u *               ",
"                    y.u.u.u.u.9.c r a.k.` V N A A A A A A A A B B B B A A A A 9 > 8 k #.e.t.e.e.r.r.t.&.h u u u                 ",
"                  =.u.u.u.y.u.w.M g ;.f.` V N A S S S S S D D D S S S C Z Z w 8 j #.8.t.t.t.t.t.t.t.8.h p p u y                 ",
"                  e.u.u.y.w.w.y.q.%.X.@.P L / { { { { { ,.' ) +.o.O.O.|  . ...b =.r.t.t.t.t.t.t.t.e.n s p p i                   "
};
