/* XPM */
static char *e83afec8ba72403b9eb9fb2f61bb5850vTIDDClfapzcImoA[] = {
/* columns rows colors chars-per-pixel */
"64 64 62 1 ",
"  c #000900",
". c #000B00",
"X c #000F00",
"o c #020F00",
"O c #060F05",
"+ c #060F06",
"@ c #0A0E04",
"# c #070F08",
"$ c #080F08",
"% c #0B1007",
"& c #0C1108",
"* c #0D1109",
"= c #0E100D",
"- c #10120E",
"; c #140F18",
": c #101110",
"> c #121211",
", c #111012",
"< c #101112",
"1 c #121112",
"2 c gray7",
"3 c #121213",
"4 c #131213",
"5 c #131214",
"6 c #131215",
"7 c #16111A",
"8 c #17131B",
"9 c #18131B",
"0 c #18131C",
"q c #1B1321",
"w c #1B1421",
"e c #21132E",
"r c #231330",
"t c #241332",
"y c #231430",
"u c #231431",
"i c #241432",
"p c #301443",
"a c #301743",
"s c #321346",
"d c #321746",
"f c #331747",
"g c #331348",
"h c #471D62",
"j c #481E63",
"k c #481E64",
"l c #4A1F66",
"z c #6C2C92",
"x c #6D2C93",
"c c #6E2D95",
"v c #6F2D96",
"b c #6F2E97",
"n c #702E97",
"m c #702E98",
"M c #712E98",
"N c #702E99",
"B c #712F99",
"V c #722E9A",
"C c #722E9B",
"Z c #722F9C",
"A c #742F9D",
"S c #75309E",
/* pixels */
"2222222222222222>6>>>>>1>>>6533333333->>>>>6>>>>621>3-3>63>>6>63",
"2222222222222222>6>6>>>>>612=23--36>-36>6>>>166>226>3=3>33>6>6-3",
"2222222222222222>>-1661622>>266233-6>6>>6>11>>>>6-22332233->>>33",
"2222222222222222>>11>>>>26>>262>3-6>6>6>>>>1>6>1231255=63->>>>>-",
"2222222222222222,11122221>62221>>6>>333-22212222221222-23-6>66>6",
"22222222222222222,1522226>>>>15->>>>3->>21-12222>122312633366>33",
"2222222222222222,222222222->>6226>>-6>>>,2222222>>253222->6>6>-3",
"2222222222222222-222-222221>>>22366>6>>>2,-22222>>22>262>>>>>>>-",
"22222222222260889880989999889999999888899998888099>3>>3->>>>6>6>",
"222222222226&XXXXXXXXXXXXXXXXXXXooooXXXXXXXXXXXXoo-3>-3366>->>>6",
"22222222226*effffffgffffffffffpdaaddffaaffffffffdd33>>33>633-363",
"222222222-q.jnnbbbbcnccccnMccnMMSbbbbMnbxbbbcccbncu%063-6>3->3-3",
"2222222222q.lAAMMZZMMZZZMMZZMCCMSSSnSnSNnMZZMZMMSbe#9-336>6>>>66",
"2222222222q.jnMMNNNNMcNNMMNMMMMMbbbbMnNNMMMMZMNNnbu#963336>>>>6>",
"2222222222q.lZMMMZZMMMNMMZMMMCMCbbbbNbMMMMZMMZNMSbe%9>>>3-6>-3>6",
"222222222=q.lSMMMMMMMZZMMMMMMCNNbSScbSNMMMMMMMMNSbu#96>-33>>>-33",
"222222222$q.lCMMMMNMMZNMMNCCMMNMCMNMNMMNNMMNNNNMbze#822222222,22",
"2222222222w.lAMMMZNNZNZMCNMMMNMMMMCCCCNMCCNMNNNMSzu#822222222222",
"2222222222q.lZMMMNNNNZMNNMMMNNCCMNMNMMCMMMCMNNNMnnu#8=2222222221",
"2222222222q.jZMMMZNNNMMMMMCCCMMMNMNMMCMMMCNMCNMMSne#822222222222",
"2222222222q.lZMNMMMCNCNNNMNNMMMCCCMMMNCCMNCMZMNNMny$822226211222",
"2222222222q.hZMNCCNNNNMCMMCMCCNNMNMCNMMNNMCNMMZNncr$822222222212",
"2222222222q.lMMNMMNMMMNCMCMCMMNMNMMNCMNMMNMMNMNMSbe$822262221222",
"2222222222q.lZMNMNMMCCNMMCNNMNMMCCNMMMCCNMMCNNNMnbe$82226=222222",
"2222222222w.hZMNNNCMNMNNCCMMMNCCMMCMMNCMZNNNNNNMSbu#93-322526622",
"2222222222w.lZMMCMCMMMCMMMMNCNMMMCMMNMCNMMNNMNNMSbu#9333=6-2222-",
"2222222222w.kZMNMCMMMCMCMMNCNMMMMNCCMNMMNMMNMMMMSzy%933-22-22222",
"2222222222q.lZMNNNMNMCNNCCNMMMCCNMMNNMMCZMMZZNZMSze#8-33622215-2",
"2222222222q.lMMNCMMCMMNMMMNMNCMNNMMNCCMMMZNMMMMNbzw=9333-3363333",
"222222222=q.lZMNCMMCMNMMMNMMNMCNCCNMMNMCMMMMMMMNSzu%9-3->-3>33-3",
"2222222222w.lZMMMMNNNNCCNNCCCCMMMMCMNMMNZNNZZNMNAbu#936>>>>6>>33",
"2222222222w.hZMMMNCMCMMMCMMMMMMNMCMMCCNMMMMMMMNbMbu#96>>>666>>>-",
"2222222222q.lZMNCNNMNMMCNMMCMCCNMNMNCCMMNCMMMNNMCMe@8,2222222212",
"2222222226q.kZMNMMCNCNMMCNMMMMMMNMNMMNMCMCMCNMNMCMrO82-212121222",
"2222222222q.lvMNMCMMMNCMMNCMNMNCCCMMNMMNMNCMCCMMNce$8-2222222212",
"222222222:q lZMNMMCMMCNMMCNMCNMNMNMCCCNMNMMMMNMMMMr$822221211212",
"222222222:q.kZMNNCMNMMNCMMNMCMMMCMNMMMMNMNCCCNNMAMr#;52262223222",
"2222222222q.lZMMMNMCCMMNCMCNNMCMMMCCMCNMNMMNMNNMMcr#022222153>31",
"2222222222q.kZMNNMMCCMNMMCMNNCMCMNMNCMCMCMNMMNNMNnr$0,222622>1-6",
"2222222222q.lZMNCNMMNMCNMMMCMNMMNMNMMMCNMMCCNMNMCNe@8222222>>222",
"22222222>-w.lMMMMNCMMMNMMMNCMNCMCCMMMNCCMMMNNCMMSbu#933--63-6333",
"2222222211wXlAMMMCNMCMCNCMMNMCNMMNMCNMMNMCNMMCMMbbu#833322-3>633",
"2222222211q.lZMMMMNCMCMNCMNMMMNCNMMNCMNMCMCMNNNMSzy%8-3363336>-3",
"2222222211q.jMMMCMMNMMMCNMCNCMMNCCNMMMCCMMCNNNNMSzyO833-=33->>>-",
"222222221-w.lCNMNMMCNCMNCMMMMMNNMMCMMNMNMNMNCMNMSzw%9-33-3>6>>6>",
"2222222211wXhCNMCNMMMNMCNMCMZNNNMCMMNMNMNMNMCNMMSzi%9633336>>636",
"2222222211q jANMMNCMNMMCNCNCvZNNMNCCCCMMCCMMMMMMAbu#9>>>->66>>3-",
"2222222211q.lCMMMCNMCNMMNCNNNNNNNMMNMNMCMNMCMCNMMNu#96>6>>>>>-33",
"2222222222w.lAnMMMMMZMMMMMMMMZMZMZMMMMMMNMMMMMMMSzr#8$5111>>6>63",
"222222225$q.lnMMMNMMMMMMMZNZMMMMNMMMMCMNNMMMMMMMMbu#8255>1>>>>33",
"2222222251w.jZMMMMcMMMvNvNNvMMMMNMMMMMNNNNMNNNNMNNuO8222>33->>33",
"2222222211w.lAZAZZZZZZZZZZZZZMZZZZZZZMMMNAZZZNMMZMr#822263336>>-",
"2222222222q.hMMbMMMcccMbvNMMcvMcvcNcMMNMNMcNMMMcMxeO0222>>33>633",
"22222222266@esssggssssssggsgsgggggsgggssssssggssgp6,2222>-33>>33",
"22222222222,@...   .  .. . .   .       . .  ......$22222>6636>3-",
"2222222222226;;;;;;;;;28;;;;;;;;;;;;;;;;;;;;;;;;;;662222>>>>>>>>",
"222222222222262<<=<<*2<<2$-2$22-2,$5:$51-2-:::$5$22>>>>>>6>>6333",
"2222222222222@,2222222<2222-6222,2,2111,2>222,,:522>6>6>33>633>-",
"222222222222222212222222221>51>>222236113-36222211>>33->3->>>>>>",
"222222222222222222222-222,1111>-22223>>1333>2222>1-3333333>>6>6>",
"222222222222222222516>>>,1116333>>>>3->>>>>>>-336>63>>63>6>>333-",
"22222222222222222>222>6>1511>>336>6>33>>>-6>>333>>33>633>>>-33>>",
"2222222222222222>>261>>>6>>>6>>-33->336>336>>>>6>>33>>33>6336>>>",
"22222222222222226>1>>>6>>>6>>>>3333336>>333>>6>>6>>->>-333333>>6"
};
