/* XPM */
static char *tshirt1[] = {
/* columns rows colors chars-per-pixel */
"64 64 117 2 ",
"   c #000000",
".  c #0A0700",
"X  c #0D0A03",
"o  c #0C0A09",
"O  c #130D00",
"+  c #1B1300",
"@  c #131313",
"#  c #191510",
"$  c #1C1C1C",
"%  c #281C00",
"&  c #221C16",
"*  c #2E2100",
"=  c #362600",
"-  c #3A2900",
";  c #2F2715",
":  c #22201A",
">  c #2D261D",
",  c #242424",
"<  c #2C2C2C",
"1  c #342B21",
"2  c #3B3126",
"3  c #3D3328",
"4  c #323232",
"5  c #3A3A3A",
"6  c #422E00",
"7  c #4A3400",
"8  c #553C00",
"9  c #43382B",
"0  c #4B3F31",
"q  c #6E4E03",
"w  c #735100",
"e  c #7C5F19",
"r  c #4E4233",
"t  c #564737",
"y  c #464646",
"u  c gray29",
"i  c #565656",
"p  c #5B5B5B",
"a  c #6D6D6D",
"s  c gray46",
"d  c gray48",
"f  c #8B6200",
"g  c #916700",
"h  c #976B00",
"j  c #986B00",
"k  c #A37300",
"l  c #AC7900",
"z  c #B68100",
"x  c #BA8200",
"c  c #B38925",
"v  c #CD9100",
"b  c #D59600",
"n  c #DC9B00",
"m  c #E19F00",
"M  c #E4A000",
"N  c #E9A300",
"B  c #F3AC00",
"V  c #FFB500",
"C  c #FFB90B",
"Z  c #FFBB14",
"A  c #FFBD1B",
"S  c #C49629",
"D  c #FFBF21",
"F  c #ECB631",
"G  c #F1BA33",
"H  c #FFC024",
"J  c #FFC129",
"K  c #FFC536",
"L  c #FFC73B",
"P  c #FFC83E",
"I  c #FFC945",
"U  c #FFCB4B",
"Y  c #FFCE54",
"T  c #FFD05B",
"R  c #FFD265",
"E  c #FFD46B",
"W  c #FFD97C",
"Q  c #838383",
"!  c #898989",
"~  c #969696",
"^  c #9D9D9D",
"/  c #A5A5A5",
"(  c gray71",
")  c gray",
"_  c #FFDC84",
"`  c #FFDD8B",
"'  c #FFE197",
"]  c #FFE39C",
"[  c #FFE4A3",
"{  c #FFE7AC",
"}  c #FFE9B3",
"|  c #FFECBD",
" . c #C5C5C5",
".. c gray79",
"X. c #D4D4D4",
"o. c #DADADA",
"O. c #FFEEC4",
"+. c #FFEFCA",
"@. c #FFF0CB",
"#. c #FFF2D2",
"$. c #FFF4DB",
"%. c #E1E1E1",
"&. c #EBEBEB",
"*. c #FFF7E2",
"=. c #FFF8E4",
"-. c #FFF9E7",
";. c #FFFAEA",
":. c #FFFAEC",
">. c #FFFCEF",
",. c #F3F3F3",
"<. c #F4F4F4",
"1. c #FFFBF0",
"2. c #FFFCF1",
"3. c #FFFFF7",
"4. c gray98",
"5. c #FFFDF8",
"6. c white",
/* pixels */
"6.6.6.6.6.6.6.6.6.6.6.6.6.6.6.6.6.6.6.6.6.6.6.6.6.6.6.6.6.6.6.6.6.6.6.6.6.6.6.6.6.6.6.6.6.6.6.6.6.6.6.6.6.6.6.6.6.6.6.6.6.6.6.6.",
"6.6.6.6.6.6.6.6.6.6.6.6.6.6.6.6.6.6.6.6.6.6.6.6.6.6.6.6.6.6.6.6.6.6.6.6.6.6.6.6.6.6.6.6.6.6.6.6.6.6.6.6.6.6.6.6.6.6.6.6.6.6.6.6.",
"6.6.6.6.6.6.6.6.6.6.6.6.6.6.6.6.6.6.6.6.6.6.6.6.^                       $ 6.          6.6.6.6.6.6.6.6.6.6.6.6.6.6.6.6.6.6.6.6.6.",
"6.6.6.6.6.6.6.6.6.6.6.6.6.6.6.6.6.6.6.6.6.@                                               6.6.6.6.6.6.6.6.6.6.6.6.6.6.6.6.6.6.6.",
"6.6.6.6.6.6.6.6.6.6.6.6.6.6.6.6.6.6.6.%.      X c G K K K K K K K K K F       N N x         ^ 6.6.6.6.6.6.6.6.6.6.6.6.6.6.6.6.6.",
"6.6.6.6.6.6.6.6.6.6.6.6.6.6.6.6.6.  6.V     K K K K K K K K K K K K K K       V V V V B       $ 6.6.6.6.6.6.6.6.6.6.6.6.6.6.6.6.",
"6.6.6.6.6.6.6.6.6.6.6.6.6.6.6.6.< % V     K K K K K L K K K K K K e         V V V V V V V       u 6.6.6.6.6.6.6.6.6.6.6.6.6.6.6.",
"6.6.6.6.6.6.6.6.6.6.6.6.6.6.6.^   V V     K K K K K K K K S             X V V V V V V V V V       6.6.6.6.6.6.6.6.6.6.6.6.6.6.6.",
"6.6.6.6.6.6.6.6.6.6.6.6.6.6.&.  V V V                               q V V V V V V V V V V V V       6.6.6.6.6.6.6.6.6.6.6.6.6.6.",
"6.6.6.6.6.6.6.6.6.6.6.6.6.6.  z V V V V                     . n V V V V V V V V V V V V V V V m     d 6.6.6.6.6.6.6.6.6.6.6.6.6.",
"6.6.6.6.6.6.6.6.6.6.6.6.6.  X V V V V V V V V V V V V V V V V V V V V V V V V V V V V V V V V V       6.6.6.6.6.6.6.6.6.6.6.6.6.",
"6.6.6.6.6.6.6.6.6.6.6.6.    V V V V V V V V V V V V V V V V V V V V V V V V V V V V V V V V V V V       6.6.6.6.6.6.6.6.6.6.6.6.",
"6.6.6.6.6.6.6.6.6.6.6...  V V V V V V V V V V V V V V V V V V V V V V V V V V V V V V V V V V V V 7     6.6.6.6.6.6.6.6.6.6.6.6.",
"6.6.6.6.6.6.6.6.6.6.6.    V V V V V V V V V V V V V V V V V V V V V V V V V V V V V V V V V V V V V     ! 6.6.6.6.6.6.6.6.6.6.6.",
"6.6.6.6.6.6.6.6.6.6.    V V V V V V V V V V V V V V V V V V V V V V V V V V V V V V V V V V V V V V       6.6.6.6.6.6.6.6.6.6.6.",
"6.6.6.6.6.6.6.6.6.6.  + V V V V V V V V V V V V V V V V V V V V V V V V V V V V V V V V V V V V V V w     6.6.6.6.6.6.6.6.6.6.6.",
"6.6.6.6.6.6.6.6.6.    V V V V V V V V V V V V V V V V V V V V V V V V V V V V V V V V V V V V V V V B     6.6.6.6.6.6.6.6.6.6.6.",
"6.6.6.6.6.6.6.6.6.  . V V V V V V V V V V V V V V V V V V V V V V V V V V V V V V V V V V V V V V V V     6.6.6.6.6.6.6.6.6.6.6.",
"6.6.6.6.6.6.6.6.@   V V V V V V V V V V V V V V V V V V 2.+.V V U @.` V V V V V V V V V V V V V V V V     6.6.6.6.6.6.6.6.6.6.6.",
"6.6.6.6.6.6.6.6.    V V V V V V V V V V V V V V V V V V V $.} Z V V _ #.V V V V V V V V V V V V V V V     <.6.6.6.6.6.6.6.6.6.6.",
"6.6.6.6.6.6.6.6.  8 V V V V V V V V V V V V V V V V P *.E V V A E V V ` V V V V V V V V V V V V V V V     o.6.6.6.6.6.6.6.6.6.6.",
"6.6.6.6.6.6.6.y   V V V V V V V V V V V V V V V $.*.W E V C V V C 6.$.3.6.V V V V V V V V V V V V V V     ! 6.6.6.6.6.6.6.6.6.6.",
"6.6.6.6.6.6.6.    V V V V V V V V V V V V Y 2.V I 6.V Y [ W 1.Z V V C ;.' V @.V V V     V V V V V V V     u 6.6.6.6.6.6.6.6.6.6.",
"6.6.6.6.6.6.6.    V V V V V V V V V V V V ] V V R } 5.$.} V V { $.V O.Z V V A >.V V     V V V V V V V       6.6.6.6.6.6.6.6.6.6.",
"6.6.6.6.6.6.6.    V V V V V V V V V V V V V V V :.V Z V #.K W V [ { I V V { V V V V     V V V V V V V       6.6.6.6.6.6.6.6.6.6.",
"6.6.6.6.6.6.6.  8 V V V V V V V V   V ] =.W V ' I V 6.V V { @.V Z 6.V V C V V V V K     V V V V V V V       6.6.6.6.6.6.6.6.6.6.",
"6.6.6.6.6.6.)   b V V V V V V V V   Z #.O.| A E V V $.V P E ' $.$.K V C P V V V :.V     l V V V V V V       6.6.6.6.6.6.6.6.6.6.",
"6.6.6.6.6.6.a   B V V V V V V V V   V $.6.V $.V V ' V V Z K V V 3.V V 6.| V V O.$.V     O V V V V V V O     6.6.6.6.6.6.6.6.6.6.",
"6.6.6.6.6.6.5   V V V V V V V V V   V Z V Z C V #.U V V 1.V V V C V V W V V V O.V V 6     V V V V V V -     6.6.6.6.6.6.6.6.6.6.",
"6.6.6.6.6.6.4   V V V V V V V V x   V V V Y J V C V V I ` V V ;.V V O.H V V =.V V V k     V V V V V V f     6.6.6.6.6.6.6.6.6.6.",
"6.6.6.6.6.6.4   V V V V V V V V =   V V Y =.V $.V V V | $.$.L *.V V V V V V V V V Y n     O                 6.6.6.6.6.6.6.6.6.6.",
"6.6.6.6.6.6.d   v V V V V V V V     V V V V V O.V V ` U V K H } ' R V V V ;.V V :.V V                     o.6.6.6.6.6.6.6.6.6.6.",
"6.6.6.6.6.6.6.    V V V h     7     V V V V T V V Z V J V V V V V V V V U $.V V P V V     t t t t t   ..6.6.6.6.6.6.6.6.6.6.6.6.",
"6.6.6.6.6.6.6.                      V V V V V V V ;.D { E V +.C V V V V H V V } V V V     t t t t t   / 6.6.6.6.6.6.6.6.6.6.6.6.",
"6.6.6.6.6.6.6.              o >     V V V V V V V ` A V V V @.O.| :.V C U V } H V V V     t t t t t   ! 6.6.6.6.6.6.6.6.6.6.6.6.",
"6.6.6.6.6.6.6.6.y   t t t t t t     V V V V V V V V V 1._ V V V T ' V J H V V V V V V     t t t t t   i 6.6.6.6.6.6.6.6.6.6.6.6.",
"6.6.6.6.6.6.6.6.6.  t t t t t t     V V V V V V V V V V ] P @.@.Y V V V V V V V V V V     t t t t t   4 6.6.6.6.6.6.6.6.6.6.6.6.",
"6.6.6.6.6.6.6.6.6.  t t t t t t   + V V V V V V *.V V V Z V V V V V V V V V V V V V V     2 t t t t   @ 6.6.6.6.6.6.6.6.6.6.6.6.",
"6.6.6.6.6.6.6.6.6.  t t t t t t   * V V V V V V V V R V I V Y V V V V V V V V V V V V       t t t t     6.6.6.6.6.6.6.6.6.6.6.6.",
"6.6.6.6.6.6.6.6.6.  t t t t t t   - V V V V V V V V V V V V V V V V V V V V V V V V V 8     t t t t     6.6.6.6.6.6.6.6.6.6.6.6.",
"6.6.6.6.6.6.6.6.6.  t t t t t t   - V V V V V V V V V V V V V V V V V V V V V V V V V B     t t t t     6.6.6.6.6.6.6.6.6.6.6.6.",
"6.6.6.6.6.6.6.6.6.  t t t t t t   - V V V V V V V V V V V V V V V V V V V V V V V V V V     t t t t     6.6.6.6.6.6.6.6.6.6.6.6.",
"6.6.6.6.6.6.6.6.6.  t t t t t t   ; V V V V V V V V V V V V V V V V V V V V V V V V V V     t t t t     6.6.6.6.6.6.6.6.6.6.6.6.",
"6.6.6.6.6.6.6.6.,.  t t t t t t   : V V V V V V V V V V V V V V V V V V V V V V V V V V     3 t t t     4.6.6.6.6.6.6.6.6.6.6.6.",
"6.6.6.6.6.6.6.6.&.  t t t t t r   @ V V V V V V V V V V V V V V V V V V V V V V V V V V       t t t     ..6.6.6.6.6.6.6.6.6.6.6.",
"6.6.6.6.6.6.6.6.o.  t t t t t 0   o V V V V V V V V V V V V V V V V V V V V V V V V V V X     t t t     p 6.6.6.6.6.6.6.6.6.6.6.",
"6.6.6.6.6.6.6.6.(   t t t t t t     V V V V V V V V V V V V V V V V V V V V V V V V V V j     t t t o   @ 6.6.6.6.6.6.6.6.6.6.6.",
"6.6.6.6.6.6.6.6.~   t t t t t t     V V V V V V V V V V V V V V V V V V V V V V V V V V V     t t t #     6.6.6.6.6.6.6.6.6.6.6.",
"6.6.6.6.6.6.6.6.Q   t t t t t t     V V V V V V V V V V V V V V V V V V V V V V V V V V V     t t t &     6.6.6.6.6.6.6.6.6.6.6.",
"6.6.6.6.6.6.6.6.s   t t t t t t     V V V V V V V V V V V V V V V V V V V V V V V V V V V     t t t >     6.6.6.6.6.6.6.6.6.6.6.",
"6.6.6.6.6.6.6.6.a   t t t t t t     V V V V V V V V V V V V V V V V V V V V V V V V V V V     1 t t 2     6.6.6.6.6.6.6.6.6.6.6.",
"6.6.6.6.6.6.6.6.Q   t t t t t t     V V V V V V V V V V V V V V V V V V V V V V V V V V V       t t t     6.6.6.6.6.6.6.6.6.6.6.",
"6.6.6.6.6.6.6.6...  r t t t t t     V V V V V V V V V V V V V V V V V V V V V V V V V V V       t t t     6.6.6.6.6.6.6.6.6.6.6.",
"6.6.6.6.6.6.6.6.6.    t t t t t     V V V V V V V V V V V V V V V V V V V V V V V V V V V       t t t     6.6.6.6.6.6.6.6.6.6.6.",
"6.6.6.6.6.6.6.6.6.    t t t t t     n V V V V V V V V V V V V V V V V V V V V V V V V V V       t 1 o     ( 6.6.6.6.6.6.6.6.6.6.",
"6.6.6.6.6.6.6.6.6.    t t t t t o   + V V V V V V V V V V V V V V V V V V V V V V V V V V                 6.6.6.6.6.6.6.6.6.6.6.",
"6.6.6.6.6.6.6.6.6.    t t t 9         V V V V V V V V V V V V V V V V V V V V V V V V V V       6.6.6.6.6.6.6.6.6.6.6.6.6.6.6.6.",
"6.6.6.6.6.6.6.6.6.    >               V V V V V V V V V V V V V V V V V V V V V V V V V V       6.6.6.6.6.6.6.6.6.6.6.6.6.6.6.6.",
"6.6.6.6.6.6.6.6.6.              6.    V V V V V V V V V M g =                                 s 6.6.6.6.6.6.6.6.6.6.6.6.6.6.6.6.",
"6.6.6.6.6.6.6.6.6.&.    , 6.6.6.6.                                                            6.6.6.6.6.6.6.6.6.6.6.6.6.6.6.6.6.",
"6.6.6.6.6.6.6.6.6.6.@  .6.6.6.6.6.                                          @ < p ! ~ ^ / ) 6.6.6.6.6.6.6.6.6.6.6.6.6.6.6.6.6.6.",
"6.6.6.6.6.6.6.6.6.6.6.6.6.6.6.6.6.6.      , 4 p / X.<.6.6.6.6.6.6.6.6.6.6.6.6.6.6.6.6.6.6.6.6.6.6.6.6.6.6.6.6.6.6.6.6.6.6.6.6.6.",
"6.6.6.6.6.6.6.6.6.6.6.6.6.6.6.6.6.6.6.6.6.6.6.6.6.6.6.6.6.6.6.6.6.6.6.6.6.6.6.6.6.6.6.6.6.6.6.6.6.6.6.6.6.6.6.6.6.6.6.6.6.6.6.6.",
"6.6.6.6.6.6.6.6.6.6.6.6.6.6.6.6.6.6.6.6.6.6.6.6.6.6.6.6.6.6.6.6.6.6.6.6.6.6.6.6.6.6.6.6.6.6.6.6.6.6.6.6.6.6.6.6.6.6.6.6.6.6.6.6."
};
