/* XPM */
static char *tshirt9[] = {
/* columns rows colors chars-per-pixel */
"64 64 124 2 ",
"   c black",
".  c #020202",
"X  c #030701",
"o  c #040404",
"O  c #070707",
"+  c #040801",
"@  c #060B01",
"#  c #070D03",
"$  c #070E02",
"%  c #080B06",
"&  c gray3",
"*  c #090809",
"=  c #0B0B0B",
"-  c #0A1303",
";  c #0B1504",
":  c #0D1804",
">  c #101D05",
",  c #111111",
"<  c #141415",
"1  c gray10",
"2  c gray12",
"3  c #122206",
"4  c #132407",
"5  c #142607",
"6  c #162808",
"7  c #182B08",
"8  c #182C08",
"9  c #1C320A",
"0  c #1D340A",
"q  c #223E0C",
"w  c #202020",
"e  c #272727",
"r  c #2A2A2C",
"t  c #2C2C2C",
"y  c #313032",
"u  c #323232",
"i  c #3A3A3A",
"p  c #3A393C",
"a  c #25440D",
"s  c #28490E",
"d  c #284A0E",
"f  c #2B4E10",
"g  c #2C4F10",
"h  c #2E5511",
"j  c #366314",
"k  c #376514",
"l  c #396915",
"z  c #3C6D16",
"x  c #3E7117",
"c  c #407417",
"v  c #417618",
"b  c #427918",
"n  c #447B19",
"m  c #447D19",
"M  c #445A34",
"N  c gray28",
"B  c gray29",
"V  c #4E4C51",
"C  c #4F4E52",
"Z  c gray35",
"A  c #59585C",
"S  c gray37",
"D  c #5D5B60",
"F  c #656369",
"G  c #666469",
"H  c gray42",
"J  c #6A686E",
"K  c #6F6F6F",
"L  c #767676",
"P  c #747278",
"I  c gray47",
"U  c #7C7C7C",
"Y  c #49841B",
"T  c #49851B",
"R  c #4A871B",
"E  c #4E8E1D",
"W  c #50911E",
"Q  c #52951E",
"!  c #569A1F",
"~  c #579C20",
"^  c #5BA321",
"/  c #5BA223",
"(  c #5BA521",
")  c #5CA522",
"_  c #5EA923",
"`  c #5FAC23",
"'  c #60AD23",
"]  c #61AF24",
"[  c #63B325",
"{  c #64B525",
"}  c #65B625",
"|  c #67BA26",
" . c #63814B",
".. c #6D8E52",
"X. c #83AC65",
"o. c #86B067",
"O. c #8EBA6D",
"+. c #827F86",
"@. c #818181",
"#. c gray52",
"$. c #858289",
"%. c #88858D",
"&. c #898989",
"*. c #8B8890",
"=. c #918E96",
"-. c #928F97",
";. c #959595",
":. c gray59",
">. c gray60",
",. c gray62",
"<. c #A7A7A7",
"1. c #B4B4B4",
"2. c gray",
"3. c #C3C3C3",
"4. c #CACACA",
"5. c #D2D2D2",
"6. c #D7D7D7",
"7. c gray85",
"8. c gray91",
"9. c #E9E9E9",
"0. c #EEEEEE",
"q. c #F4F4F4",
"w. c gray98",
"e. c white",
/* pixels */
"e.e.e.e.e.e.e.e.e.e.e.e.e.e.e.e.e.e.e.e.e.e.e.e.e.e.e.e.e.e.e.e.e.e.e.e.e.e.e.e.e.e.e.e.e.e.e.e.e.e.e.e.e.e.e.e.e.e.e.e.e.e.e.e.",
"e.e.e.e.e.e.e.e.e.e.e.e.e.e.e.e.e.e.e.e.e.e.e.e.e.e.e.e.e.e.e.e.e.e.e.e.e.e.e.e.e.e.e.e.e.e.e.e.e.e.e.e.e.e.e.e.e.e.e.e.e.e.e.e.",
"e.e.e.e.e.e.e.e.e.e.e.e.e.e.e.e.e.e.e.e.e.e.8.e.>.o                     2 e.          e.e.e.e.e.e.e.e.e.e.e.e.e.e.e.e.e.e.e.e.e.",
"e.e.e.e.e.e.e.e.e.e.e.e.e.e.e.e.e.e.e.e.8.                                                e.e.e.e.e.e.e.e.e.e.e.e.e.e.e.e.e.e.e.",
"e.e.e.e.e.e.e.e.e.e.e.e.e.e.e.e.e.e.e.X       %  .o.O.O.O.O.O.O.O.O.O.X.      _ _ Y         ,.e.e.e.e.e.e.e.e.e.e.e.e.e.e.e.e.e.",
"e.e.e.e.e.e.e.e.e.e.e.e.e.e.e.e.e.o         O.O.O.O.O.O.O.O.O.O.O.O.O.O.      | | | | [       1 e.e.e.e.e.e.e.e.e.e.e.e.e.e.e.e.",
"e.e.e.e.e.e.e.e.e.e.e.e.e.e.e.e.t > h     O.O.O.O.O.O.O.O.O.O.O.O.M         | | | | | | |       B e.e.e.e.e.e.e.e.e.e.e.e.e.e.e.",
"e.e.e.e.e.e.e.e.e.e.e.e.e.e.e.,.  | |     O.O.O.O.O.O.O.O...            + | | | | | | | | |       e.e.e.e.e.e.e.e.e.e.e.e.e.e.e.",
"e.e.e.e.e.e.e.e.e.e.e.e.e.e.0.  | | |                               g | | | | | | | | | | | |       e.e.e.e.e.e.e.e.e.e.e.e.e.e.",
"e.e.e.e.e.e.e.e.e.e.e.e.e.e.  Y | | | |                     X ~ | | | | | | | | | | | | | | | ^     U e.e.e.e.e.e.e.e.e.e.e.e.e.",
"e.e.e.e.e.e.e.e.e.e.e.e.e.  + | | | | | | | | | | | | | | | | | | | | | | | | | | | | | | | | |       e.e.e.e.e.e.e.e.e.e.e.e.e.",
"e.e.e.e.e.e.e.e.e.e.e.e.    | | | | | | | | | | | | | | | | | | | | | | | | | | | | | | | | | | |       e.e.e.e.e.e.e.e.e.e.e.e.",
"e.e.e.e.e.e.e.e.e.e.e.4.  | | | | | | | | | | | | | | | | | | | | | | | | | | | | | | | | | | | | 0     e.e.e.e.e.e.e.e.e.e.e.e.",
"e.e.e.e.e.e.e.e.e.e.e.    | | | | | | | | | | | | | | | | | | | | | | | | | | | | | | | | | | | | |     &.e.e.e.e.e.e.e.e.e.e.e.",
"e.e.e.e.e.e.e.e.e.e.    | | | | | | | | | | | | | | | | | | | | | | | | | | | | | | | | | | | | | |       e.e.e.e.e.e.e.e.e.e.e.",
"e.e.e.e.e.e.e.e.e.e.  ; | | | | | | | | | | | | | | | | | | | | | | | | | | | | | | | | | | | | | | h     e.e.e.e.e.e.e.e.e.e.e.",
"e.e.e.e.e.e.e.e.e.    | | | | | | | | | | | | | | | | | | | | | | | | | | | | | | | | | | | | | | | }     e.e.e.e.e.e.e.e.e.e.e.",
"e.e.e.e.e.e.e.e.e.  X | | | | | | | | | | | | | | | | | | | | | _ ) Q ~ | | | | | | | | | | | | | | |     e.e.e.e.e.e.e.e.e.e.e.",
"e.e.e.e.e.e.e.e.,   | | | | | | | | | | | | | | | | | Y                       | | | | | | | | | | | |     e.e.e.e.e.e.e.e.e.e.e.",
"e.e.e.e.e.e.e.e.    | | | | | | | | | | | |   Y -               + x ^ E 9     | | | | | | | | | | | |     q.e.e.e.e.e.e.e.e.e.e.",
"e.e.e.e.e.e.e.e.  q | | | | | | | | | | | s           q } | | | | | | | |     | | | | | | | | | | | |     6.e.e.e.e.e.e.e.e.e.e.",
"e.e.e.e.e.e.e.N   | | | | | | | | | | | | l   0 | | | | | | | | | | | | z     | | | | | | | | | | | |     &.e.e.e.e.e.e.e.e.e.e.",
"e.e.e.e.e.e.e.    | | | | | | | | | | | | j   4 | | | | | | | | | | W       j | | |     | | | | | | |     N e.e.e.e.e.e.e.e.e.e.",
"e.e.e.e.e.e.e.    | | | | | | | | | | | | x         | |         s | |       | | | |     | | | | | | |     o e.e.e.e.e.e.e.e.e.e.",
"e.e.e.e.e.e.e.    | | | | | | | | | | | | |         [ f           - | | `   + | | |     | | | | | | |       e.e.e.e.e.e.e.e.e.e.",
"e.e.e.e.e.e.e.  q | | | | | | | |   | | | | | c   - |     } } |     | | |   X | | |     | | | | | | |       e.e.e.e.e.e.e.e.e.e.",
"e.e.e.e.e.e.2.  ! | | | | | | | |   | | | | |     | |   : | | |     | | |   - | | |     m | | | | | |       e.e.e.e.e.e.e.e.e.e.",
"e.e.e.e.e.e.H   ] | | | | | | | |   | | | | |     | ^   a | | | X   | | |   ' | | |     $ | | | | | | -     e.e.e.e.e.e.e.e.e.e.",
"e.e.e.e.e.e.i   | | | | | | | | }   | | | | |   $ | '     | | |     | |     | | | | 8     | | | | | | 7     e.e.e.e.e.e.e.e.e.e.",
"e.e.e.e.e.e.u   | | | | | | | | Y   | | | | |     } |       )     s | |     | | | | c     | | | | | | k     e.e.e.e.e.e.e.e.e.e.",
"e.e.e.e.e.e.u   } | | | | | | | 5   | | | | | Y     | [         - | '     ` | | | | )     +                 e.e.e.e.e.e.e.e.e.e.",
"e.e.e.e.e.e.I   Q | | | | | | |     | | | | [         | } 8 + n | | +       X | | | |                     7.e.e.e.e.e.e.e.e.e.e.",
"e.e.e.e.e.e.e.    | | | z     0     | | | | +       ; | | | | | | | | | |     | | | |     -.-.-.-.-.  2.e.e.e.e.e.e.e.e.e.e.e.e.",
"e.e.e.e.e.e.e.                      | | | | 8   9 | | | | | | | | | | | |     | | | |     -.-.-.-.-.  D e.e.e.e.e.e.e.e.e.e.e.e.",
"e.e.e.e.e.e.e.              , C     | | | | )   $ | | | >                     | | | |     -.-.-.-.=.  C e.e.e.e.e.e.e.e.e.e.e.e.",
"e.e.e.e.e.e.e.e.N   =.=.=.;.-.-.    | | | | |                               W | | | |     -.-.-.-.=.  u e.e.e.e.e.e.e.e.e.e.e.e.",
"e.e.e.e.e.e.e.e.e.  =.-.-.-.-.-.  X | | | | | }             5 n | | | | | | | | | | |     -.-.-.-.-.  2 e.e.e.e.e.e.e.e.e.e.e.e.",
"e.e.e.e.e.e.e.e.e.  -.-.-.-.-.-.  ; | | | | | | | | | | | | | | | | | | | | | | | | |     F -.-.-.-.  = e.e.e.e.e.e.e.e.e.e.e.e.",
"e.e.e.e.e.e.e.e.e.  -.-.-.-.-.-.  3 | | | | | | | | | | | | | | | | | | | | | | | | |     . -.-.-.-.    e.e.e.e.e.e.e.e.e.e.e.e.",
"e.e.e.e.e.e.e.e.e.  -.-.-.-.-.-.  7 | | | | | | | | | | | | | | | | | | | | | | | | | q     -.-.-.-.    e.e.e.e.e.e.e.e.e.e.e.e.",
"e.e.e.e.e.e.e.e.e.  =.-.-.-.-.-.  7 | | | | | | | | | | | | | | | | | | | | | | | | | [     ;.-.-.-.    e.e.e.e.e.e.e.e.e.e.e.e.",
"e.e.e.e.e.e.e.e.e.  -.-.-.-.-.-.  6 | | | | | | | | | | | | | | | | | | | | | | | | | |     -.-.-.=.    e.e.e.e.e.e.e.e.e.e.e.e.",
"e.e.e.e.e.e.e.e.e.  -.-.-.-.-.-.  4 | | | | | | | | | | | | | | | | | | | | | | | | | |     =.=.-.-.    e.e.e.e.e.e.e.e.e.e.e.e.",
"e.e.e.e.e.e.e.e.q.  -.-.-.-.-.-.  : | | | | | | | | | | | | | | | | | | | | | | | | | |     J =.-.-.    w.e.e.e.e.e.e.e.e.e.e.e.",
"e.e.e.e.e.e.e.e.0.  -.-.-.-.-.*.  # | | | | | | | | | | | | | | | | | | | | | | | | | |     O =.-.-.    4.e.e.e.e.e.e.e.e.e.e.e.",
"e.e.e.e.e.e.e.e.7.  -.-.-.-.-.$.  * | | | | | | | | | | | | | | | | | | | | | | | | | | +     =.-.-.*   Z e.e.e.e.e.e.e.e.e.e.e.",
"e.e.e.e.e.e.e.e.1.  -.-.-.-.-.%.    | | | | | | | | | | | | | | | | | | | | | | | | | | z     =.-.;.1   , e.e.e.e.e.e.e.e.e.e.e.",
"e.e.e.e.e.e.e.e.;.  -.-.-.-.-.-.    | | | | | | | | | | | | | | | | | | | | | | | | | | |     ;.-.=.r     e.e.e.e.e.e.e.e.e.e.e.",
"e.e.e.e.e.e.e.e.@.  -.-.-.-.-.-.    | | | | | | | | | | | | | | | | | | | | | | | | | | |     ;.-.-.p     e.e.e.e.e.e.e.e.e.e.e.",
"e.e.e.e.e.e.e.e.L   -.-.-.-.-.-.    | | | | | | | | | | | | | | | | | | | | | | | | | | |     =.-.-.V     e.e.e.e.e.e.e.e.e.e.e.",
"e.e.e.e.e.e.e.e.K   =.-.-.-.-.-.    | | | | | | | | | | | | | | | | | | | | | | | | | | |     C -.-.F     e.e.e.e.e.e.e.e.e.e.e.",
"e.e.e.e.e.e.e.e.#.  -.-.-.-.-.-.    | | | | | | | | | | | | | | | | | | | | | | | | | | |     * -.=.%.    e.e.e.e.e.e.e.e.e.e.e.",
"e.e.e.e.e.e.e.e.4.  $.-.-.-.-.-.    | | | | | | | | | | | | | | | | | | | | | | | | | | |       -.-.-.    e.e.e.e.e.e.e.e.e.e.e.",
"e.e.e.e.e.e.e.e.e.  o -.-.-.-.-.    | | | | | | | | | | | | | | | | | | | | | | | | | | |       -.-.=.    e.e.e.e.e.e.e.e.e.e.e.",
"e.e.e.e.e.e.e.e.e.    -.-.-.-.-.    ^ | | | | | | | | | | | | | | | | | | | | | | | | | |       -.A <     e.e.e.e.e.e.e.e.e.e.e.",
"e.e.e.e.e.e.e.e.e.    -.-.-.-.-.<   ; | | | | | | | | | | | | | | | | | | | | | | | | | |                 e.e.e.e.e.e.e.e.e.e.e.",
"e.e.e.e.e.e.e.e.e.    =.-.-.P o       | | | | | | | | | | | | | | | | | | | | | | | | | |       e.e.e.e.e.e.e.e.e.e.e.e.e.e.e.e.",
"e.e.e.e.e.e.e.e.e.    C               | | | | | | | | | | | | | | | | | | | | | | | | | |       e.e.e.e.e.e.e.e.e.e.e.e.e.e.e.e.",
"e.e.e.e.e.e.e.e.e.o           o e.    | | | | | | | | | ( l 6                                 L e.e.e.e.e.e.e.e.e.e.e.e.e.e.e.e.",
"e.e.e.e.e.e.e.e.e.8.    e e.e.e.e.                                                            e.e.e.e.e.e.e.e.e.e.e.e.e.e.e.e.e.",
"e.e.e.e.e.e.e.e.e.e., 3.e.e.e.e.e.                                          < t Z &.;.,.<.2.e.e.e.e.e.e.e.e.e.e.e.e.e.e.e.e.e.e.",
"e.e.e.e.e.e.e.e.e.e.e.e.e.e.e.e.e.e.    * w u S <.5.q.e.e.e.e.e.e.e.e.e.e.e.e.e.e.e.e.e.e.e.e.e.e.e.e.e.e.e.e.e.e.e.e.e.e.e.e.e.",
"e.e.e.e.e.e.e.e.e.e.e.e.e.e.e.e.e.e.e.e.e.e.e.e.e.e.e.e.e.e.e.e.e.e.e.e.e.e.e.e.e.e.e.e.e.e.e.e.e.e.e.e.e.e.e.e.e.e.e.e.e.e.e.e.",
"e.e.e.e.e.e.e.e.e.e.e.e.e.e.e.e.e.e.e.e.e.e.e.e.e.e.e.e.e.e.e.e.e.e.e.e.e.e.e.e.e.e.e.e.e.e.e.e.e.e.e.e.e.e.e.e.e.e.e.e.e.e.e.e."
};
