/* XPM */
static char *tshirt4[] = {
/* columns rows colors chars-per-pixel */
"64 64 165 2 ",
"   c #000000",
".  c #04060A",
"X  c #050A0F",
"o  c #09090B",
"O  c #0A080C",
"+  c #070D12",
"@  c #0C0B13",
"#  c #0B0A15",
"$  c #150F1C",
"%  c #0F1115",
"&  c #0A121B",
"*  c #121213",
"=  c #141818",
"-  c #1C1C1C",
";  c #222F1D",
":  c #2A391F",
">  c #0D1822",
",  c #1A1323",
"<  c #111D2B",
"1  c #22182D",
"2  c #251836",
"3  c #12222F",
"4  c #132435",
"5  c #16273A",
"6  c #242424",
"7  c #222A29",
"8  c #2C2C2C",
"9  c #2B3423",
"0  c #342E3B",
"q  c #273730",
"w  c #323232",
"e  c #3A3A3A",
"r  c #37472E",
"t  c #3D5537",
"y  c #4E693C",
"u  c #2E1B4A",
"i  c #192E43",
"p  c #1C344C",
"a  c #2F2048",
"s  c #362748",
"d  c #283B46",
"f  c #30324A",
"g  c #3E2D51",
"h  c #3B3C70",
"j  c #442E6D",
"k  c #493562",
"l  c #2D484F",
"z  c #274258",
"x  c #374B51",
"c  c #284668",
"v  c #294B76",
"b  c #2D547F",
"n  c #3B5172",
"m  c #464646",
"M  c gray29",
"N  c #495A45",
"B  c #5B5B5B",
"V  c #5A7544",
"C  c #576F51",
"Z  c #6D6D6D",
"A  c gray46",
"S  c gray48",
"D  c #6A905D",
"F  c #709654",
"G  c #718963",
"H  c #7B9965",
"J  c #7D9869",
"K  c #7EA960",
"L  c #849F6F",
"P  c #84A86A",
"I  c #85B463",
"U  c #88B765",
"Y  c #8CB46E",
"T  c #8CA977",
"R  c #92BA75",
"E  c #96BC7A",
"W  c #96C078",
"Q  c #99C17C",
"!  c #592F88",
"~  c #713CAE",
"^  c #2D5485",
"/  c #365783",
"(  c #335C84",
")  c #335E8D",
"_  c #325E93",
"`  c #366496",
"'  c #396799",
"]  c #396AA7",
"[  c #3E72A7",
"{  c #3F74A9",
"}  c #624780",
"|  c #644983",
" . c #735498",
".. c #7947BA",
"X. c #4D76A9",
"o. c #547EAE",
"O. c #4377B6",
"+. c #7D43C2",
"@. c #805EAA",
"#. c #8563B4",
"$. c #8044C5",
"%. c #894FCC",
"&. c #8458CB",
"*. c #8F5FCF",
"=. c #926BC1",
"-. c #8E61D0",
";. c #A77ADC",
":. c #AD7FE3",
">. c #4581BC",
",. c #5D8ABF",
"<. c #4985C2",
"1. c #4C8CCC",
"2. c #4A8AD8",
"3. c #5297DC",
"4. c #6CA1DE",
"5. c #4E91E4",
"6. c #559CE3",
"7. c #5196EC",
"8. c #579FED",
"9. c #589FEB",
"0. c #569EF4",
"q. c #599FF4",
"w. c #569EF9",
"e. c #58A0E9",
"r. c #58A0F0",
"t. c #72AAE9",
"y. c #6BABFA",
"u. c #77B1F2",
"i. c #7AB6FA",
"p. c #838383",
"a. c #898989",
"s. c #969696",
"d. c #9D9D9D",
"f. c #9CBD84",
"g. c #9D85BC",
"h. c gray65",
"j. c gray71",
"k. c #BEBDBE",
"l. c #9FC384",
"z. c #A3C58A",
"x. c #A4C789",
"c. c #A6C98C",
"v. c #B0CE98",
"b. c #9E81C2",
"n. c #B694DD",
"m. c #B385EB",
"M. c #B987F3",
"N. c #8FAFFC",
"B. c #93ADF8",
"V. c #93B0FC",
"C. c #B9B2FD",
"Z. c #C298F3",
"A. c #C8B3E3",
"S. c #CAA6F7",
"D. c #CCABFE",
"F. c #D1ABFF",
"G. c #C1B5FF",
"H. c #D7B7FF",
"J. c #C3C3C3",
"K. c gray79",
"L. c #D4D4D4",
"P. c #DADADA",
"I. c #EBEBEB",
"U. c #F5F5F5",
"Y. c #FFFFFF",
/* pixels */
"Y.Y.Y.Y.Y.Y.Y.Y.Y.Y.Y.Y.Y.Y.Y.Y.Y.Y.Y.Y.Y.Y.Y.Y.Y.Y.Y.Y.Y.Y.Y.Y.Y.Y.Y.Y.Y.Y.Y.Y.Y.Y.Y.Y.Y.Y.Y.Y.Y.Y.Y.Y.Y.Y.Y.Y.Y.Y.Y.Y.Y.Y.Y.Y.",
"Y.Y.Y.Y.Y.Y.Y.Y.Y.Y.Y.Y.Y.Y.Y.Y.Y.Y.Y.Y.Y.Y.Y.Y.Y.Y.Y.Y.Y.Y.Y.Y.Y.Y.Y.Y.Y.Y.Y.Y.Y.Y.Y.Y.Y.Y.Y.Y.Y.Y.Y.Y.Y.Y.Y.Y.Y.Y.Y.Y.Y.Y.Y.Y.",
"Y.Y.Y.Y.Y.Y.Y.Y.Y.Y.Y.Y.Y.Y.Y.Y.Y.Y.Y.Y.Y.Y.Y.Y.s..                     - Y.          Y.Y.Y.Y.Y.Y.Y.Y.Y.Y.Y.Y.Y.Y.Y.Y.Y.Y.Y.Y.Y.",
"Y.Y.Y.Y.Y.Y.Y.Y.Y.Y.Y.Y.Y.Y.Y.Y.Y.Y.Y.Y.Y.*                                               Y.Y.Y.Y.Y.Y.Y.Y.Y.Y.Y.Y.Y.Y.Y.Y.Y.Y.Y.",
"Y.Y.Y.Y.Y.Y.Y.Y.Y.Y.Y.Y.Y.Y.Y.Y.Y.Y.Y.1.      X ,.t.i.i.i.i.i.i.i.i.i.t.      5.5.[         d.Y.Y.Y.Y.Y.Y.Y.Y.Y.Y.Y.Y.Y.Y.Y.Y.Y.",
"Y.Y.Y.Y.Y.Y.Y.Y.Y.Y.Y.Y.Y.Y.Y.Y.Y.. e.e.    i.i.i.u.i.i.i.i.i.i.i.i.i.i.      w.e.e.e.3.      - Y.Y.Y.Y.Y.Y.Y.Y.Y.Y.Y.Y.Y.Y.Y.Y.",
"Y.Y.Y.Y.Y.Y.Y.Y.Y.Y.Y.Y.Y.Y.Y.Y.8 > e.    i.i.i.i.i.i.i.i.i.i.i.i.n         w.e.e.e.e.e.e.      M Y.Y.Y.Y.Y.Y.Y.Y.Y.Y.Y.Y.Y.Y.Y.",
"Y.Y.Y.Y.Y.Y.Y.Y.Y.Y.Y.Y.Y.Y.Y.d.  e.w.    i.i.i.i.i.i.i.i.,.            X w.0.e.e.e.e.e.e.e.      Y.Y.Y.Y.Y.Y.Y.Y.Y.Y.Y.Y.Y.Y.Y.",
"Y.Y.Y.Y.Y.Y.Y.Y.Y.Y.Y.Y.Y.Y.I.  e.w.w.                              c 0.w.w.e.e.e.e.e.e.e.e.e.      Y.Y.Y.Y.Y.Y.Y.Y.Y.Y.Y.Y.Y.Y.",
"Y.Y.Y.Y.Y.Y.Y.Y.Y.Y.Y.Y.Y.Y.  { e.w.w.e.                    . 2.e.e.e.e.0.0.e.r.w.0.e.e.e.e.e.1.    S Y.Y.Y.Y.Y.Y.Y.Y.Y.Y.Y.Y.Y.",
"Y.Y.Y.Y.Y.Y.Y.Y.Y.Y.Y.Y.Y.  . e.e.w.w.e.w.w.w.w.w.w.w.w.r.r.w.w.0.e.e.e.w.0.w.w.0.r.r.e.e.e.e.e.      Y.Y.Y.Y.Y.Y.Y.Y.Y.Y.Y.Y.Y.",
"Y.Y.Y.Y.Y.Y.Y.Y.Y.Y.Y.Y.    e.e.e.w.0.e.w.w.w.w.w.w.w.w.r.r.w.w.0.r.e.w.w.0.r.r.w.r.w.e.9.e.e.e.e.      Y.Y.Y.Y.Y.Y.Y.Y.Y.Y.Y.Y.",
"Y.Y.Y.Y.Y.Y.Y.Y.Y.Y.Y.K.  6.e.e.e.w.r.w.r.w.w.w.w.w.w.w.w.w.w.w.r.0.w.w.e.0.0.w.w.r.w.r.e.e.e.e.e.i     Y.Y.Y.Y.Y.Y.Y.Y.Y.Y.Y.Y.",
"Y.Y.Y.Y.Y.Y.Y.Y.Y.Y.Y.    e.e.e.e.w.0.w.0.w.w.w.w.w.w.w.0.w.w.w.w.w.w.w.w.w.w.w.w.w.w.e.e.e.e.e.e.e.    a.Y.Y.Y.Y.Y.Y.Y.Y.Y.Y.Y.",
"Y.Y.Y.Y.Y.Y.Y.Y.Y.Y.    e.e.e.e.e.w.w.w.w.w.w.w.r.w.w.w.w.w.w.w.w.w.w.w.w.w.w.w.w.w.w.r.r.e.e.e.e.e.      Y.Y.Y.Y.Y.Y.Y.Y.Y.Y.Y.",
"Y.Y.Y.Y.Y.Y.Y.Y.Y.Y.  & e.e.e.e.0.w.w.w.w.r.r.r.w.w.w.w.w.w.w.w.w.w.w.w.w.w.w.w.w.w.w.e.9.e.e.e.e.e.c     Y.Y.Y.Y.Y.Y.Y.Y.Y.Y.Y.",
"Y.Y.Y.Y.Y.Y.Y.Y.Y.    e.e.e.e.e.w.r.w.w.w.w.r.w.w.w.w.w.w.w.w.w.w.w.w.w.w.w.w.w.w.w.r.e.e.e.e.e.e.e.3.    Y.Y.Y.Y.Y.Y.Y.Y.Y.Y.Y.",
"Y.Y.Y.Y.Y.Y.Y.Y.Y.  . e.e.e.e.e.w.w.w.8.w.w.w.w.w.w.w.w.w.w.w.w.w.w.w.w.w.w.w.w.w.w.w.e.e.e.e.e.e.e.e.    Y.Y.Y.Y.Y.Y.Y.Y.Y.Y.Y.",
"Y.Y.Y.Y.Y.Y.Y.Y.*   e.e.e.e.e.8.w.w.w.0.w.w.w.w.0.w.w.w.w.w.w.w.w.w.w.w.w.w.w.w.w.w.e.e.e.e.e.e.e.e.e.    Y.Y.Y.Y.Y.Y.Y.Y.Y.Y.Y.",
"Y.Y.Y.Y.Y.Y.Y.Y.    e.e.e.e.e.0.w.w.6.N Z f.Q U K r h w.w.w.w.w.w.w.w.w.w.w.w.w.w.w.e.e.e.e.e.e.e.e.e.    U.Y.Y.Y.Y.Y.Y.Y.Y.Y.Y.",
"Y.Y.Y.Y.Y.Y.Y.Y.  p e.e.e.e.e.w.w.w.o.N >.B.D.Z.! +.r.w.w.w.w.w.w.w.w.w.w.w.w.w.w.w.r.r.e.e.e.e.e.e.e.    P.Y.Y.Y.Y.Y.Y.Y.Y.Y.Y.",
"Y.Y.Y.Y.Y.Y.Y.m   e.e.e.e.e.0.w.w.r.0.z.W r.r.r.7 a i.) C.F.+.^ w.w.w.w.w.w.w.w.w.w.e.e.e.e.e.e.e.e.e.    a.Y.Y.Y.Y.Y.Y.Y.Y.Y.Y.",
"Y.Y.Y.Y.Y.Y.Y.    e.e.e.e.e.w.w.w.r.w.0.9 5.r.P m.r.w.f.w.2.-.w.w.w.w.w.w.w.w.w.w.w.    e.e.e.e.e.e.e.    m Y.Y.Y.Y.Y.Y.Y.Y.Y.Y.",
"Y.Y.Y.Y.Y.Y.Y.    e.e.e.e.e.w.w.e.r.w.r.z.W ] b.5.w.w.z.7.0 w.w.w.w.w.w.w.w.w.w.w.0.    e.e.e.e.e.e.e.    . Y.Y.Y.Y.Y.Y.Y.Y.Y.Y.",
"Y.Y.Y.Y.Y.Y.Y.    e.e.e.e.0.w.w.e.r.T c.c.z.R K V X.w.w.V c r.w.w.w.w.w.w.w.w.w.w.0.    e.e.e.e.e.e.e.      Y.Y.Y.Y.Y.Y.Y.Y.Y.Y.",
"Y.Y.Y.Y.Y.Y.Y.  p e.e.e.e.w.w.r.e.  l Q y.A.n.j # u w.w.h w.r.r.w.w.w.w.w.w.w.w.0.r.    6.e.e.e.e.e.e.      Y.Y.Y.Y.Y.Y.Y.Y.Y.Y.",
"Y.Y.Y.Y.Y.Y.k.  <.e.e.e.e.w.0.e.9.  0.r q w.5 I *.w.4.t C.Z.! w.w.w.w.w.w.w.w.w.w.r.    ' e.e.e.e.e.e.      Y.Y.Y.Y.Y.Y.Y.Y.Y.Y.",
"Y.Y.Y.Y.Y.Y.Z   3.e.e.e.e.w.0.e.9.  w.f.c.q.) n.7.w.w.r w.l h w.w.w.w.w.w.w.w.w.r.e.    + e.e.e.e.e.e.+     Y.Y.Y.Y.Y.Y.Y.Y.Y.Y.",
"Y.Y.Y.Y.Y.Y.e   e.e.e.e.0.w.e.e.6.  w.w.J ` Y g.w.w.w.( z S.2.^ v ` ' w.w.w.w.w.w.e.5     e.e.e.e.e.e.5     Y.Y.Y.Y.Y.Y.Y.Y.Y.Y.",
"Y.Y.Y.Y.Y.Y.w   e.e.e.e.e.e.e.e.X.  w.w.x r B.3 v.x.c.c.c.Y J D : * c 0.w.w.w.w.0.e.'     e.e.e.e.e.e.b     Y.Y.Y.Y.Y.Y.Y.Y.Y.Y.",
"Y.Y.Y.Y.Y.Y.w   6.e.e.e.e.e.e.e.<   w.w.w.L < i.f.V y.N.D.F.S.&.$.~ ~ w.w.w.w.w.w.e.1.    X                 Y.Y.Y.Y.Y.Y.Y.Y.Y.Y.",
"Y.Y.Y.Y.Y.Y.S   >.e.e.e.e.e.e.e.    w.w.w.w.0.J P Q c ^ ( 0.w.; ; %.7.5 f.l.c.Q U U u.                    P.Y.Y.Y.Y.Y.Y.Y.Y.Y.Y.",
"Y.Y.Y.Y.Y.Y.Y.    e.e.9.)     i     w.w.w.w.w.w.c.T F w.w.w.5.U *.# w.,.x.y.G.F...@ 2     M.M.M.M.M.  k.Y.Y.Y.Y.Y.Y.Y.Y.Y.Y.Y.Y.",
"Y.Y.Y.Y.Y.Y.Y.                      w.w.w.w.w.w.q E c.w.w.q.P b.#.w.w.w.E y w.w.U *.9.    M.M.M.M.M.   .Y.Y.Y.Y.Y.Y.Y.Y.Y.Y.Y.Y.",
"Y.Y.Y.Y.Y.Y.Y.              $ |     w.w.w.w.w.w.w.c.L o w.= = F.w.w.w.w.G z.w.d F.e.e.    M.M.M.M.M.  | Y.Y.Y.Y.Y.Y.Y.Y.Y.Y.Y.Y.",
"Y.Y.Y.Y.Y.Y.Y.Y.m   M.M.M.M.M.M.    w.w.w.w.w.w.r.' Q l.w.Q H.> w.w.w.w.w.f.v C f e.e.    M.M.M.M.M.  g Y.Y.Y.Y.Y.Y.Y.Y.Y.Y.Y.Y.",
"Y.Y.Y.Y.Y.Y.Y.Y.Y.  M.M.M.M.M.M.    w.w.w.w.w.w.w.w.c.J H % C.w.w.w.w.w.w./ R V.w.e.e.    M.M.M.M.M.  1 Y.Y.Y.Y.Y.Y.Y.Y.Y.Y.Y.Y.",
"Y.Y.Y.Y.Y.Y.Y.Y.Y.  M.M.M.M.M.M.  & w.w.w.w.w.w.w.w.0.l.Q N.O.r.w.w.w.w.w.w.3 5.r.e.e.    @.M.M.M.M.  @ Y.Y.Y.Y.Y.Y.Y.Y.Y.Y.Y.Y.",
"Y.Y.Y.Y.Y.Y.Y.Y.Y.  M.M.M.M.M.M.  < w.w.w.w.w.w.w.w.w.f.p X.w.w.w.w.w.w.w.w.r.w.e.e.e.      M.M.M.M.    Y.Y.Y.Y.Y.Y.Y.Y.Y.Y.Y.Y.",
"Y.Y.Y.Y.Y.Y.Y.Y.Y.  M.M.M.M.M.M.  4 e.w.w.w.w.w.w.w.w.w.5 w.w.w.w.w.w.w.w.w.w.w.e.e.e.p     M.M.M.M.    Y.Y.Y.Y.Y.Y.Y.Y.Y.Y.Y.Y.",
"Y.Y.Y.Y.Y.Y.Y.Y.Y.  M.M.M.M.M.M.  5 e.0.w.w.w.w.w.w.w.w.w.w.w.w.w.w.w.w.w.w.w.w.e.e.e.6.    M.M.M.M.    Y.Y.Y.Y.Y.Y.Y.Y.Y.Y.Y.Y.",
"Y.Y.Y.Y.Y.Y.Y.Y.Y.  M.M.M.M.M.M.  4 e.e.9.w.w.w.w.w.w.e.w.w.w.w.r.r.w.w.w.w.w.8.8.e.e.w.    M.M.M.M.    Y.Y.Y.Y.Y.Y.Y.Y.Y.Y.Y.Y.",
"Y.Y.Y.Y.Y.Y.Y.Y.Y.  M.M.M.M.M.M.  < 0.9.e.0.w.w.w.w.w.w.w.w.w.e.e.8.w.w.w.w.0.e.w.e.e.w.    M.M.M.M.    Y.Y.Y.Y.Y.Y.Y.Y.Y.Y.Y.Y.",
"Y.Y.Y.Y.Y.Y.Y.Y.U.  M.M.M.M.M.M.  > w.9.w.0.0.8.w.w.w.8.w.w.0.e.e.0.w.w.w.w.w.e.w.8.e.w.    #.M.M.M.    U.Y.Y.Y.Y.Y.Y.Y.Y.Y.Y.Y.",
"Y.Y.Y.Y.Y.Y.Y.Y.I.  M.M.M.M.M.:.  + w.e.w.e.e.0.w.w.w.w.w.w.e.e.e.w.w.8.w.w.w.e.w.8.e.w.    . M.M.M.    K.Y.Y.Y.Y.Y.Y.Y.Y.Y.Y.Y.",
"Y.Y.Y.Y.Y.Y.Y.Y.P.  M.M.M.M.M.;.  . w.e.w.e.e.w.w.w.e.0.w.w.e.e.e.w.e.e.w.w.w.e.w.0.e.w.+     M.M.M.O   B Y.Y.Y.Y.Y.Y.Y.Y.Y.Y.Y.",
"Y.Y.Y.Y.Y.Y.Y.Y.j.  M.M.M.M.M.m.    w.w.w.e.r.w.w.w.e.w.e.w.e.e.e.w.e.e.w.w.w.e.w.w.e.w._     M.M.M.1   * Y.Y.Y.Y.Y.Y.Y.Y.Y.Y.Y.",
"Y.Y.Y.Y.Y.Y.Y.Y.s.  M.M.M.M.M.M.    w.w.w.e.w.e.w.w.e.w.e.w.e.e.e.w.e.e.w.w.w.e.8.w.8.w.w.    M.M.M.s     Y.Y.Y.Y.Y.Y.Y.Y.Y.Y.Y.",
"Y.Y.Y.Y.Y.Y.Y.Y.p.  M.M.M.M.M.M.    w.w.0.e.w.e.w.w.e.w.e.w.e.e.e.w.e.e.w.w.w.e.e.w.8.w.w.    M.M.M.k     Y.Y.Y.Y.Y.Y.Y.Y.Y.Y.Y.",
"Y.Y.Y.Y.Y.Y.Y.Y.A   M.M.M.M.M.M.    w.w.e.e.w.e.w.e.e.w.e.w.e.e.e.w.e.e.w.w.w.e.e.0.0.w.w.    M.M.M.|     Y.Y.Y.Y.Y.Y.Y.Y.Y.Y.Y.",
"Y.Y.Y.Y.Y.Y.Y.Y.Z   M.M.M.M.M.M.    w.w.e.e.w.e.w.e.e.w.e.w.e.e.e.w.e.e.w.w.w.8.e.w.0.0.w.    | M.M.@.    Y.Y.Y.Y.Y.Y.Y.Y.Y.Y.Y.",
"Y.Y.Y.Y.Y.Y.Y.Y.p.  M.M.M.M.M.M.    w.w.e.e.w.e.w.e.e.w.e.0.e.e.8.w.e.e.w.w.e.w.e.w.0.w.w.    @ M.M.:.    Y.Y.Y.Y.Y.Y.Y.Y.Y.Y.Y.",
"Y.Y.Y.Y.Y.Y.Y.Y.K.  ;.M.M.M.M.M.    w.w.e.0.0.e.w.e.0.0.e.w.e.e.0.0.e.e.w.0.e.w.e.w.w.w.w.      M.M.M.    Y.Y.Y.Y.Y.Y.Y.Y.Y.Y.Y.",
"Y.Y.Y.Y.Y.Y.Y.Y.Y.  @ M.M.M.M.M.    w.w.e.w.9.e.w.e.w.8.e.w.e.e.w.e.e.e.w.8.e.w.e.w.w.0.w.      M.M.M.    Y.Y.Y.Y.Y.Y.Y.Y.Y.Y.Y.",
"Y.Y.Y.Y.Y.Y.Y.Y.Y.    M.M.M.M.M.    2.w.e.0.e.e.w.r.w.e.e.w.e.e.w.e.e.e.w.e.e.0.w.w.w.r.w.      M. .,     j.Y.Y.Y.Y.Y.Y.Y.Y.Y.Y.",
"Y.Y.Y.Y.Y.Y.Y.Y.Y.    M.M.M.M.M.,   & w.e.w.e.e.0.r.w.e.e.w.e.e.w.e.e.e.e.e.e.0.w.w.w.w.w.                Y.Y.Y.Y.Y.Y.Y.Y.Y.Y.Y.",
"Y.Y.Y.Y.Y.Y.Y.Y.Y.    M.M.M.=.. .     w.e.w.e.e.r.w.r.e.e.w.8.e.w.e.e.e.w.w.w.w.w.w.e.e.w.      Y.Y.Y.Y.Y.Y.Y.Y.Y.Y.Y.Y.Y.Y.Y.Y.",
"Y.Y.Y.Y.Y.Y.Y.Y.Y.    }               w.8.w.e.e.e.w.w.e.e.0.w.w.w.e.w.w.8.8.w.w.w.w.w.w.e.      Y.Y.Y.Y.Y.Y.Y.Y.Y.Y.Y.Y.Y.Y.Y.Y.",
"Y.Y.Y.Y.Y.Y.Y.Y.Y..           . Y.    w.w.w.e.e.e.e.e.6.1.( 4                                 A Y.Y.Y.Y.Y.Y.Y.Y.Y.Y.Y.Y.Y.Y.Y.Y.",
"Y.Y.Y.Y.Y.Y.Y.Y.Y.I.    6 Y.Y.Y.Y.                                                            Y.Y.Y.Y.Y.Y.Y.Y.Y.Y.Y.Y.Y.Y.Y.Y.Y.",
"Y.Y.Y.Y.Y.Y.Y.Y.Y.Y.* J.Y.Y.Y.Y.Y.                                          * 8 B a.s.d.h.k.Y.Y.Y.Y.Y.Y.Y.Y.Y.Y.Y.Y.Y.Y.Y.Y.Y.Y.",
"Y.Y.Y.Y.Y.Y.Y.Y.Y.Y.Y.Y.Y.Y.Y.Y.Y.Y.    . 6 w B h.L.U.Y.Y.Y.Y.Y.Y.Y.Y.Y.Y.Y.Y.Y.Y.Y.Y.Y.Y.Y.Y.Y.Y.Y.Y.Y.Y.Y.Y.Y.Y.Y.Y.Y.Y.Y.Y.Y.",
"Y.Y.Y.Y.Y.Y.Y.Y.Y.Y.Y.Y.Y.Y.Y.Y.Y.Y.Y.Y.Y.Y.Y.Y.Y.Y.Y.Y.Y.Y.Y.Y.Y.Y.Y.Y.Y.Y.Y.Y.Y.Y.Y.Y.Y.Y.Y.Y.Y.Y.Y.Y.Y.Y.Y.Y.Y.Y.Y.Y.Y.Y.Y.Y.",
"Y.Y.Y.Y.Y.Y.Y.Y.Y.Y.Y.Y.Y.Y.Y.Y.Y.Y.Y.Y.Y.Y.Y.Y.Y.Y.Y.Y.Y.Y.Y.Y.Y.Y.Y.Y.Y.Y.Y.Y.Y.Y.Y.Y.Y.Y.Y.Y.Y.Y.Y.Y.Y.Y.Y.Y.Y.Y.Y.Y.Y.Y.Y.Y."
};
