/* XPM */
static char *tshirt2[] = {
/* columns rows colors chars-per-pixel */
"64 64 121 2 ",
"   c #000000",
".  c #0B0000",
"X  c #090A0A",
"o  c #140100",
"O  c #1C0100",
"+  c #070D12",
"@  c #0B1314",
"#  c #0C1A18",
"$  c #131313",
"%  c #151A13",
"&  c #111C1A",
"*  c #1C1C1C",
"=  c #240200",
"-  c #2C0200",
";  c #350300",
":  c #3C0300",
">  c #16201E",
",  c #232323",
"<  c #2B2C2C",
"1  c #323232",
"2  c #3C3C3C",
"3  c #440400",
"4  c #4C0500",
"5  c #540500",
"6  c #5C0600",
"7  c #640600",
"8  c #6C0700",
"9  c #6F0800",
"0  c #720700",
"q  c #780700",
"w  c #7B0800",
"e  c #731109",
"r  c #28504A",
"t  c #3E645E",
"y  c #434343",
"u  c #4E4E4E",
"i  c #415D59",
"p  c #5C5C5C",
"a  c #656565",
"s  c #6C6C6C",
"d  c #797979",
"f  c #840900",
"g  c #8C0A00",
"h  c #910A00",
"j  c #921207",
"k  c #44877D",
"l  c #69AC7C",
"z  c #5457EE",
"x  c #5857FF",
"c  c #5D78EF",
"v  c #6A7DF4",
"b  c #489086",
"n  c #5FBDB0",
"m  c #7BA0AA",
"M  c #63C6B7",
"N  c #66CBBD",
"B  c #7CDFB5",
"V  c #65A8DE",
"C  c #68BAD7",
"Z  c #68B3DA",
"A  c #6086EB",
"S  c #6296E5",
"D  c #7BAAE8",
"F  c #6CD5CB",
"G  c #6EDBCB",
"H  c #7FD6C9",
"J  c #73DCCD",
"K  c #7ADECD",
"L  c #6BCAD1",
"P  c #8D8D8D",
"I  c #969595",
"U  c #9C9C9C",
"Y  c #86BDB5",
"T  c #9AB9B5",
"R  c #9CBCB8",
"E  c #A5A5A5",
"W  c gray67",
"Q  c #B4B4B4",
"!  c #BCBCBC",
"~  c #87DD9D",
"^  c #89C1B8",
"/  c #80DFB0",
"(  c #8AE2A0",
")  c #B1ECAF",
"_  c #B9EEB2",
"`  c #999AFF",
"'  c #9EBFEF",
"]  c #ADD0CB",
"[  c #B0D3CE",
"{  c #B2D5D1",
"}  c #83E0D3",
"|  c #8BE2D6",
" . c #91E3D7",
".. c #9DE6DC",
"X. c #B8EDC6",
"o. c #A6E9DF",
"O. c #8FC6E4",
"+. c #95C4E8",
"@. c #A1CAEB",
"#. c #A2D6E6",
"$. c #A4DCE4",
"%. c #ACEBE1",
"&. c #B3ECE3",
"*. c #BAEEE6",
"=. c #C7C7C7",
"-. c #CACACA",
";. c #D2D2D2",
":. c #DCDCDC",
">. c #C5DBF5",
",. c #C9F1EB",
"<. c #D2F3EF",
"1. c #D6F5F0",
"2. c #DCF7F3",
"3. c #DEF8F3",
"4. c #E2E2E2",
"5. c #EEEEEE",
"6. c #E7FAF7",
"7. c #EBFBF9",
"8. c #F4F4F4",
"9. c #F1FCFB",
"0. c #FFFFFF",
/* pixels */
"0.0.0.0.0.0.0.0.0.0.0.0.0.0.0.0.0.0.0.0.0.0.0.0.0.0.0.0.0.0.0.0.0.0.0.0.0.0.0.0.0.0.0.0.0.0.0.0.0.0.0.0.0.0.0.0.0.0.0.0.0.0.0.0.",
"0.0.0.0.0.0.0.0.0.0.0.0.0.0.0.0.0.0.0.0.0.0.0.0.0.0.0.    0.0.0.0.0.*     :.0.0.0.0.0.0.0.0.0.0.0.0.0.0.0.0.0.0.0.0.0.0.0.0.0.0.",
"0.0.0.0.0.0.0.0.0.0.0.0.0.0.0.0.0.0.0.0.0.0.0.0.0.0.X     0.0.0.0.0.  t *   P 0.0.0.0.0.0.0.0.0.0.0.0.0.0.0.0.0.0.0.0.0.0.0.0.0.",
"0.0.0.0.0.0.0.0.0.0.0.0.0.0.0.0.0.0.0.0.0.0.0.5.8.    M   0.0.0.0.    o.2.Y   0.0.0.0.0.0.0.0.0.0.0.0.0.0.0.0.0.0.0.0.0.0.0.0.0.",
"0.0.0.0.0.0.0.0.0.0.0.0.0.0.0.0.0.0.0.0.-.P -.    @ >.#.  0.0.0.Q   F F 3.o.    p d :.0.0.0.0.0.0.0.0.0.0.0.0.0.0.0.0.0.0.0.0.0.",
"0.0.0.0.0.0.0.0.0.0.0.0.0.0.0.0.0.0.        @     ' <.o.    0.0.  % B | S                 0.0.0.0.0.0.0.0.0.0.0.0.0.0.0.0.0.0.0.",
"0.0.0.0.0.0.0.0.0.0.0.0.0.0.0.0.s     .     G b   K ) ( R   0.    D J _ ~   &.z       g     5.0.0.0.0.0.0.0.0.0.0.0.0.0.0.0.0.0.",
"0.0.0.0.0.0.0.0.0.0.0.0.0.0.0.a           m o.o.    *.J {         r F *.  k } A l             8.0.0.0.0.0.0.0.0.0.0.0.0.0.0.0.0.",
"0.0.0.0.0.0.0.0.0.0.0.0.0.0.=.      .     v o.o.&   b     X   o.          o.o.@.    7 5 3 :     0.0.0.0.0.0.0.0.0.0.0.0.0.0.0.0.",
"0.0.0.0.0.0.0.0.0.0.0.0.0.0.    h h h     C G G %.    + G M   G ,.X     G G } @     h h h h h     0.0.0.0.0.0.0.0.0.0.0.0.0.0.0.",
"0.0.0.0.0.0.0.0.0.0.0.0.0.              # L F G ,.T ] V Z #   G ,.G N G G G [                     p 0.0.0.0.0.0.0.0.0.0.0.0.0.0.",
"0.0.0.0.0.0.0.0.0.0.0.0.0.    h h h h   @ %.%.%.*.3.3.@.O.  &  .,.J J G G G     6 h h h h h h h     0.0.0.0.0.0.0.0.0.0.0.0.0.0.",
"0.0.0.0.0.0.0.0.0.0.0.0.            .      ...%.o.3.%.X.`   ^ ,.3.%.%.%...      3 : 3 3 3 3 5 5 O   $ 0.0.0.0.0.0.0.0.0.0.0.0.0.",
"0.0.0.0.0.0.0.0.0.0.0.U   . g g g f g     G G G } &.G ( x   G 3.,.J K H       O o .                   0.0.0.0.0.0.0.0.0.0.0.0.0.",
"0.0.0.0.0.0.0.0.0.0.0.    4 5 6 7 8 0     G G G *.K G / c   J 7.,.G r     O h h g h h h h h h h h o   p 0.0.0.0.0.0.0.0.0.0.0.0.",
"0.0.0.0.0.0.0.0.0.0.0.    o . . . .         ..1.6.,.+.K n   } 9.&.                                      0.0.0.0.0.0.0.0.0.0.0.0.",
"0.0.0.0.0.0.0.0.0.0.    h h h h h h h h .     1.6.2.@.$.i   &.<       h h h h h h h h h h g h h h h     0.0.0.0.0.0.0.0.0.0.0.0.",
"0.0.0.0.0.0.0.0.0.0.                                                . o O O = - : 3 4 5 6 7 8 q q w 7     0.0.0.0.0.0.0.0.0.0.0.",
"0.0.0.0.0.0.0.0.0.-.    h h h h h h h h h h g                 - f w q 8 7 5 4 : ; = O o . .               0.0.0.0.0.0.0.0.0.0.0.",
"0.0.0.0.0.0.0.0.0.    g g g q 5 3 : 4 5 6 7 w g h h g g w w f g h g g h h h h g h g h h h h h h g g g     0.0.0.0.0.0.0.0.0.0.0.",
"0.0.0.0.0.0.0.0.0.                                                                                          0.0.0.0.0.0.0.0.0.0.",
"0.0.0.0.0.0.0.0.0.    h h h h h h h h h h h h h h h h h h h h h h h h h h g h h h h h h h g h h h h h h     0.0.0.0.0.0.0.0.0.0.",
"0.0.0.0.0.0.0.0.E                                             o o O O O = = = = = - - : : 3 3 4 5 6 7 8     0.0.0.0.0.0.0.0.0.0.",
"0.0.0.0.0.0.0.0.    4 h h h h h h h h h h h h h h h h h h g g g f f w w 8 7 5 3 - O                         :.0.0.0.0.0.0.0.0.0.",
"0.0.0.0.0.0.0.0.    .     .   . O - 3 7 q g g h h h h h h h h h h h h h h h h h h h     h h h h h h h h 8   X 0.0.0.0.0.0.0.0.0.",
"0.0.0.0.0.0.0.0.    h h h g g q 7 4 ; O o .                                                                   0.0.0.0.0.0.0.0.0.",
"0.0.0.0.0.0.0.0.    g f g g g h h   h h h h h h h h h h h h h h h h h h h h h h h h     g h h h h h h h h     0.0.0.0.0.0.0.0.0.",
"0.0.0.0.0.0.0.8.    = .                                                                     . O - 3 4 5 6     0.0.0.0.0.0.0.0.0.",
"0.0.0.0.0.0.0.u     h h h h h h h   h h h h h h h h h h h h g h h h h h h h h h h g       5 : - = o .         P 0.0.0.0.0.0.0.0.",
"0.0.0.0.0.0.0.                                            . O - : 4 6 8 w f g h h h O     h h h g h h h h w   X 0.0.0.0.0.0.0.0.",
"0.0.0.0.0.0.0.    7 h g h h h h 8   h g h h h h h g g w q 8 6 5 3 ; = o .                                       0.0.0.0.0.0.0.0.",
"0.0.0.0.0.0.0.    O - o O ; 7 w o   g f w 0 e 0 w f f f f f g g g g f w g g h h h h w     g g g g g h h h h     0.0.0.0.0.0.0.0.",
"0.0.0.0.0.0.0.    f f w 8 7 6 8     3 - o .                                                                     0.0.0.0.0.0.0.0.",
"0.0.0.0.0.0.0.    h h h h h g h     h h h h h h h h h h h h h h h h h h h h h h h h h     h h h h h h h h h     0.0.0.0.0.0.0.0.",
"0.0.0.0.0.0.0.                                                                                                  :.0.0.0.0.0.0.0.",
"0.0.0.0.0.0.0.    h h h h h h h     h h h h h h h h h h h h h h h h h h h h h h h h h     h h h h h h h h g =   y 0.0.0.0.0.0.0.",
"0.0.0.0.0.0.0.    3 : ; ; ; - -     O . . . . . . . . .                                                           0.0.0.0.0.0.0.",
"0.0.0.0.0.0.-.                .     O = - - : 3 5 6 6 8 9 q w g g h h h g h h h h g h     h h h h h h h h h j     0.0.0.0.0.0.0.",
"0.0.0.0.0.0.p     h h h h h h h   o h h h h h h g h h h h g g g g f f w 0 8 7 5 4 3 :     o o o .                 0.0.0.0.0.0.0.",
"0.0.0.0.0.0.,                                                           . . . O = - -       4 6 7 9 w f f g h     0.0.0.0.0.0.0.",
"0.0.0.0.0.0.X     h h h h h h h   = h h h h h h h h h h h h h h h h h h h h h h h h h =     h h h h g h g h g     0.0.0.0.0.0.0.",
"0.0.0.0.0.0.X     5 4 4 3 ; - -     o                                                                             0.0.0.0.0.0.0.",
"0.0.0.0.0.0.X         . o o = =   o 5 7 q g h h g h h h h h h h h h h h h h h h h h h h     h h h h h h h h h     0.0.0.0.0.0.0.",
"0.0.0.0.0.0.*     h h h g f 0 8   o 7 6 6 0 w g f w 6 : - - : 4 5 : - - = = O o . . . o     O O .                 0.0.0.0.0.0.0.",
"0.0.0.0.0.0.1                                                                                       . o O = :     4.0.0.0.0.0.0.",
"0.0.0.0.0.0.u     h h h h h h g   . h g h h h h h h h h h h h h h h h h h h h h h h h h     . h h h h h h h h     Q 0.0.0.0.0.0.",
"0.0.0.0.0.0.P     - O o . . .         . . . . . .                   .                                             I 0.0.0.0.0.0.",
"0.0.0.0.0.0.!     h h h g g g f     g g g g f f f g g f g g g g g g f f g f w w w w w w 3     0 0 8 8 8 8 8 8     a 0.0.0.0.0.0.",
"0.0.0.0.0.0.8.    0 8 8 9 0 q q     f g h h h g g g g h h h h h h h h h h h h h h h h h h     h h h h h h h h     y 0.0.0.0.0.0.",
"0.0.0.0.0.0.0.    ; = O o o o .                                                                                   1 0.0.0.0.0.0.",
"0.0.0.0.0.0.0.    h h h h h g h     h h h h h h h h h h h h h h h h h h h h h h h h h h h     h h g h h h h h .   < 0.0.0.0.0.0.",
"0.0.0.0.0.0.0.                                                                        . .     . O = - - ; ; : .   , 0.0.0.0.0.0.",
"0.0.0.0.0.0.0.    g h h h h h h     h h h h h h h h h h h h h h g g g g g f f w w 8 7 6 4       = O O o . .       , 0.0.0.0.0.0.",
"0.0.0.0.0.0.0.                      . o o O = - : 3 4 5 6 8 0 w f f f g g g g h h h h h h       h h h h h h h O   > 0.0.0.0.0.0.",
"0.0.0.0.0.0.0.      h g g g g f     0 7 6 4 3 ; - = O o . .                                                       < 0.0.0.0.0.0.",
"0.0.0.0.0.0.0.4.                            . = 4 w w w q 7 q f h h h h h h h h h h h h h                         , 0.0.0.0.0.0.",
"0.0.0.0.0.0.0.0.    g 3 .                                                                                         a 0.0.0.0.0.0.",
"0.0.0.0.0.0.0.0.    . 8         W     h h h h h h h h h h h h h h h h h h h h g g g f 7 :                       p 0.0.0.0.0.0.0.",
"0.0.0.0.0.0.0.0.$           Q 0.0.                      . o - 4 7 q f g h h h h h h h h h     X 0.0.0.0.0.0.0.0.0.0.0.0.0.0.0.0.",
"0.0.0.0.0.0.0.0.I       y 0.0.0.0.    h h h h h h h g w 6 - .                                 I 0.0.0.0.0.0.0.0.0.0.0.0.0.0.0.0.",
"0.0.0.0.0.0.0.0.0.2 5.0.0.0.0.0.0.                                                            0.0.0.0.0.0.0.0.0.0.0.0.0.0.0.0.0.",
"0.0.0.0.0.0.0.0.0.0.0.0.0.0.0.0.0.%                                         % < p P I U W ! 0.0.0.0.0.0.0.0.0.0.0.0.0.0.0.0.0.0.",
"0.0.0.0.0.0.0.0.0.0.0.0.0.0.0.0.0.0.    X , 1 p E ;.8.0.0.0.0.0.0.0.0.0.0.0.0.0.0.0.0.0.0.0.0.0.0.0.0.0.0.0.0.0.0.0.0.0.0.0.0.0.",
"0.0.0.0.0.0.0.0.0.0.0.0.0.0.0.0.0.0.0.0.0.0.0.0.0.0.0.0.0.0.0.0.0.0.0.0.0.0.0.0.0.0.0.0.0.0.0.0.0.0.0.0.0.0.0.0.0.0.0.0.0.0.0.0."
};
