/* XPM */
static char *tshirt6[] = {
/* columns rows colors chars-per-pixel */
"64 64 122 2 ",
"   c #000000",
".  c #090907",
"X  c #03060A",
"o  c #05080F",
"O  c #0A0B0B",
"+  c #11110E",
"@  c #060B13",
"#  c #090F1A",
"$  c #0F1215",
"%  c #09101C",
"&  c #141413",
"*  c #1A1915",
"=  c #121519",
"-  c #1D1D1C",
";  c #0D1626",
":  c #0F192C",
">  c #171C21",
",  c #1D1F22",
"<  c #121E35",
"1  c #1E242E",
"2  c #132037",
"3  c #14223B",
"4  c #222222",
"5  c #2C2C2C",
"6  c #33332A",
"7  c #262D35",
"8  c #333333",
"9  c #3A3A3A",
"0  c #152540",
"q  c #182947",
"w  c #182A48",
"e  c #1C2F52",
"r  c #1C3156",
"t  c #253E6B",
"y  c #264070",
"u  c #2A487D",
"i  c #314B78",
"p  c gray27",
"a  c #4C4C4C",
"s  c #5B5B5B",
"d  c #74735F",
"f  c #546375",
"g  c #566678",
"h  c gray40",
"j  c gray42",
"k  c #767676",
"l  c gray48",
"z  c #83816B",
"x  c #8C8A72",
"c  c #929077",
"v  c #2F3989",
"b  c #313B8A",
"n  c #2E4E86",
"m  c #37408B",
"M  c #3B448D",
"N  c #30528E",
"B  c #325693",
"V  c #365C9D",
"C  c #3962A7",
"Z  c #3D69B3",
"A  c #424B8F",
"S  c #414B92",
"D  c #5C6D80",
"F  c #607285",
"G  c #646B9A",
"H  c #476DAE",
"J  c #416FBE",
"K  c #4E77BE",
"L  c #4271C1",
"P  c #4576CA",
"I  c #4779CF",
"U  c #497DD6",
"Y  c #4A7ED8",
"T  c #6E8198",
"R  c #72869E",
"E  c #7C93AE",
"W  c #4B81DB",
"Q  c #4E85E3",
"!  c #4F88E8",
"~  c #518AEC",
"^  c #5F90E5",
"/  c #538EF2",
"(  c #5590F7",
")  c #5691F9",
"_  c #5A94F9",
"`  c #6193EB",
"'  c #669BF7",
"]  c #679CF9",
"[  c #8A8A8A",
"{  c gray59",
"}  c #9D9D9D",
"|  c #ADAB8C",
" . c #BAB796",
".. c #9297A9",
"X. c #849BB8",
"o. c #A4A4A4",
"O. c #ACADAD",
"+. c #B4B4B4",
"@. c #BDBEB3",
"#. c gray",
"$. c #D6D3AE",
"%. c #C1C2B7",
"&. c #D7D7BE",
"*. c #D8D7BB",
"=. c #E5E2BC",
"-. c #E8E5BE",
";. c #8BA3C1",
":. c #93AFCD",
">. c #9AB6D7",
",. c #9DBADB",
"<. c #C3C3C3",
"1. c #CACACA",
"2. c #D5D5D5",
"3. c #DCDCDC",
"4. c #E0DFC0",
"5. c #E4E5C5",
"6. c #E8E6C3",
"7. c #EDEAC1",
"8. c #E3E3E3",
"9. c #EEEEEE",
"0. c #F6F6F6",
"q. c #FFFFFF",
/* pixels */
"q.q.q.q.q.q.q.q.q.q.q.q.q.q.q.q.q.q.q.q.q.q.q.q.q.q.q.q.q.q.q.q.q.q.q.q.q.q.q.q.q.q.q.q.q.q.q.q.q.q.q.q.q.q.q.q.q.q.q.q.q.q.q.q.",
"q.q.q.q.q.q.q.q.q.q.q.q.q.q.q.q.q.q.q.q.q.q.q.q.q.q.q.q.q.q.q.q.q.q.q.q.q.q.q.q.q.q.q.q.q.q.q.q.q.q.q.q.q.q.q.q.q.q.q.q.q.q.q.q.",
"q.q.q.q.q.q.q.q.q.q.q.q.q.q.q.q.q.q.q.q.q.q.q.q.{ X                     - q.          q.q.q.q.q.q.q.q.q.q.q.q.q.q.q.q.q.q.q.q.q.",
"q.q.q.q.q.q.q.q.q.q.q.q.q.q.q.q.q.q.q.q.q.&                                               q.q.q.q.q.q.q.q.q.q.q.q.q.q.q.q.q.q.q.",
"q.q.q.q.q.q.q.q.q.q.q.q.q.q.q.q.q.q.q.8.      o H ` ] ] ] ] ] ] ] ] ] ^       Q Q Z         } q.q.q.q.q.q.q.q.q.q.q.q.q.q.q.q.q.",
"q.q.q.q.q.q.q.q.q.q.q.q.q.q.q.q.q.X q.)     ] ] ] ] ] ] ] ] ] ] ] ] ] '       ) ) ) ) ~       - q.q.q.q.q.q.q.q.q.q.q.q.q.q.q.q.",
"q.q.q.q.q.q.q.q.q.q.q.q.q.q.q.q.5 ; )     ] ] ] ] ] ] ] ] ] ] ] ] i         ) ) ) ) ) ) )       a q.q.q.q.q.q.q.q.q.q.q.q.q.q.q.",
"q.q.q.q.q.q.q.q.q.q.q.q.q.q.q.}   ) )     ] ] ] ] ] ] ] ] K             o ) ) ) ) ) ) ) ) )       q.q.q.q.q.q.q.q.q.q.q.q.q.q.q.",
"q.q.q.q.q.q.q.q.q.q.q.q.q.q.9.  ) ) )                               t ) ) ) ) ) ) ) ) ) ) ) )     a q.q.q.q.q.q.q.q.q.q.q.q.q.q.",
"q.q.q.q.q.q.q.q.q.q.q.q.q.q.  Z ) ) ) )                     X U ) ) ) ) ) ) ) ) ) ) ) ) ) ) ) W   k q.q.q.q.q.q.q.q.q.q.q.q.q.q.",
"q.q.q.q.q.q.q.q.q.q.q.q.q.  X ) ) ) ) ) ) ) ) ) ) ) ) ) ) ) ) ) ) ) ) ) ) ) ) ) ) ) ) ) ) ) ) )   . [ q.q.q.q.q.q.q.q.q.q.q.q.q.",
"q.q.q.q.q.q.q.q.q.q.q.q.    ) ) ) ) ) ) ) ) ) ) ) ) ) ) ) ) ) ) ) ) ) ) ) ) ) ) ) ) ) ) ) ) ) ) )     - q.q.q.q.q.q.q.q.q.q.q.q.",
"q.q.q.q.q.q.q.q.q.q.q.1.  / ) ) ) ) ) ) ) ) ) ) ) ) ) ) ) ) ) ) ) ) ) ) ) ) ) ) ) ) ) ) ) ) ) ) ) w   h q.q.q.q.q.q.q.q.q.q.q.q.",
"q.q.q.q.q.q.q.q.q.q.q.    ) ) ) ) ) ) ) ) ) ) ) ) ) ) ) ) ) ) ) ) ) ) ) ) ) ) ) ) ) ) ) ) ) ) ) ) )   p q.q.q.q.q.q.q.q.q.q.q.q.",
"q.q.q.q.q.q.q.q.q.q.    ) ) ) ) ) ) ) ) ) ) ) ) ) ) ) ) ) ) ) ) ) ) ) ) ) ) ) ) ) ) ) ) ) ) ) ) ) )     O.q.q.q.q.q.q.q.q.q.q.q.",
"q.q.q.q.q.q.q.q.q.q.  % ) ) ) ) ) ) ) ) ) ) ) ) ) ) ) ) ) ) ) ) ) ) ) ) ) ) ) ) ) ) ) ) ) ) ) ) ) ) y     q.q.q.q.q.q.q.q.q.q.q.",
"q.q.q.q.q.q.q.q.q.    ) ) ) ) ) ) ) ) ) ) ) ) ) ) ) ) ) ) ) ) ) ) ) ) ) ) ) ) ) ) ) ) ) ) ) ) ) ) ) ~     q.q.q.q.q.q.q.q.q.q.q.",
"q.q.q.q.q.q.q.q.q.  X ) ) ) ) ) ) ) ) ) ) ) ) ) ) ) ) ) ) ) ) ) ) ) ) ) ) ) ) ) ) ) ) ) ) ) ) ) ) ) )     q.q.q.q.q.q.q.q.q.q.q.",
"q.q.q.q.q.q.q.q.&   ) ) ) ) ) ) ) ) ) ) ) ) ) ) ) ) ) ) ) ) ) ) ) ) ) ) ) ) ) ) ) ) ) ) ) ) ) ) ) ) )     q.q.q.q.q.q.q.q.q.q.q.",
"q.q.q.q.q.q.q.q.    ) ) ) ) ) ) ) ) ) ) ) ) ) ) ) ) ) ) t       X L ) ) ) ) ) ) ) ) ) ) ) ) ) ) ) ) )     0.q.q.q.q.q.q.q.q.q.q.",
"q.q.q.q.q.q.q.q.  e ) ) ) ) ) ) ) ) ) ) ) ) ) ) ) ( w                 ) ) ) ) ) ) ) ) ) ) ) ) ) ) ) )     2.q.q.q.q.q.q.q.q.q.q.",
"q.q.q.q.q.q.q.p   ) ) ) ) ) ) ) ) ) ) ) ) ) ) /         | 7.7.7.-.:   X ) ) ) ) ) ) ) ) ) ) ) ) ) ) )     [ q.q.q.q.q.q.q.q.q.q.",
"q.q.q.q.q.q.q.    ) ) ) ) ) ) ) ) ) ) ) ) ) r     .  .7.7.7.7.7.7.7.-   @ ) ) ) ) )     ) ) ) ) ) ) )     p q.q.q.q.q.q.q.q.q.q.",
"q.q.q.q.q.q.q.    ) ) ) ) ) ) ) ) ) ) ) ) t     $.7.7.7.7.7.7.7.7.7.7.    u ) ) ) )     ) ) ) ) ) ) )     X q.q.q.q.q.q.q.q.q.q.",
"q.q.q.q.q.q.q.    ) ) ) ) ) ) ) ) ) ) ) )     7.7.7.7.7.7.7.7.6.7.7.7.7.    P ) ) )     ) ) ) ) ) ) )       q.q.q.q.q.q.q.q.q.q.",
"q.q.q.q.q.q.q.  r ) ) ) ) ) ) ) )   ) ) !   c 7.m b v b b 7.7.b b b v 7.=.    ) ) )     / ) ) ) ) ) )       q.q.q.q.q.q.q.q.q.q.",
"q.q.q.q.q.q.#.  I ) ) ) ) ) ) ) )   ) ) X - 7.7.7.7.7.7.b 7.7.7.7.7...b 7.d   2 ) )     C ) ) ) ) ) ) X     q.q.q.q.q.q.q.q.q.q.",
"q.q.q.q.q.q.j   ! ) ) ) ) ) ) ) )   ) )     7.7.7.7.7.6.M 7.7.7.7.7.5.b 7.7.    ) )     @ ) ) ) ) ) ) @     q.q.q.q.q.q.q.q.q.q.",
"q.q.q.q.q.q.9   ) ) ) ) ) ) ) ) /   ) )   . 7.7.7.7.7.A v 7.7.7.6.5.v v 7.7.X   ) ) 0     ) ) ) ) ) ) 3     q.q.q.q.q.q.q.q.q.q.",
"q.q.q.q.q.q.8   ( ) ) ) ) ) ) ) Z   ) )   4 7.7.7.7.@.v %.7.&.v v v v 7.7.7.O   ) ) V     ) ) ) ) ) ) n     q.q.q.q.q.q.q.q.q.q.",
"q.q.q.q.q.q.8   / ) ) ) ) ) ) ) <   ) W   z 7.7.7.7.b b 7.7.7.7.7.-.v G 7.7..   ) ) Y     @                 q.q.q.q.q.q.q.q.q.q.",
"q.q.q.q.q.q.k   P ) ) ) ) ) ) )     ) Q   6 7.7.7.O.b *.7.7.7.7.7.7.6.b 7.7.    ) ) (                     3.q.q.q.q.q.q.q.q.q.q.",
"q.q.q.q.q.q.q.    ) ) ) B     q     ) )     7.7.7.v b 7.7.7.7.7.7.7.5.v 7.7.  X ) ) )     ,.,.,.,.,.    q.q.q.q.q.q.q.q.q.q.q.q.",
"q.q.q.q.q.q.q.                      ) ) V   + 7.7.v %.7.7.7.7.7.6.4.v S 7.*   Y ) ) )     ,.,.,.,.,.    q.q.q.q.q.q.q.q.q.q.q.q.",
"q.q.q.q.q.q.q.              = g     ) ) )     =.7.v 7.7.7.7.7.M b b b 7.-.    ) ) ) )     ,.,.,.,.,.    q.q.q.q.q.q.q.q.q.q.q.q.",
"q.q.q.q.q.q.q.q.&   ,.,.,.,.,.,.    ) ) ) (     =.7.7.7.5.7.7.7.7.7.7.7.    Q ) ) ) )     ,.,.,.,.,.    q.q.q.q.q.q.q.q.q.q.q.q.",
"q.q.q.q.q.q.q.q.    ,.,.,.,.,.,.  X / ) ) ) n     -.7.7.7.7.7.7.7.7.7.x   @ ) ) ) ) )     ,.,.,.,.,.    q.q.q.q.q.q.q.q.q.q.q.q.",
"q.q.q.q.q.q.q.q.    ,.,.,.,.,.,.  # ) ) ) ) ) J       -.7.7.7.7.7.7.+     ) ) ) ) ) )     T ,.,.,.,.    q.q.q.q.q.q.q.q.q.q.q.q.",
"q.q.q.q.q.q.q.q.    ,.,.,.,.,.,.  : ) ) ) ) ) ) ~ %                     ) ) ) ) ) ) )       ,.,.,.,.    q.q.q.q.q.q.q.q.q.q.q.q.",
"q.q.q.q.q.q.q.q.5   ,.,.,.,.,.,.  2 ) ) ) ) ) ) ) ) _ N           o ~ ) ) ) ) ) ) ) ) e     ,.,.,.,.    q.q.q.q.q.q.q.q.q.q.q.q.",
"q.q.q.q.q.q.q.q.j   >.,.,.,.,.,.  3 ) ) ) ) ) ) ) ) ) ) ) ) ) ) ) ) ) ) ) ) ) ) ) ) ) ~     ,.,.,.,.    3.q.q.q.q.q.q.q.q.q.q.q.",
"q.q.q.q.q.q.q.q.<.  ;.,.,.,.,.,.  2 ) ) ) ) ) ) ) ) ) ) ) ) ) ) ) ) ) ) ) ) ) ) ) ) ) )     ,.,.,.,.    3.q.q.q.q.q.q.q.q.q.q.q.",
"q.q.q.q.q.q.q.q.[   ,.,.,.,.,.,.  1 ) ) ) ) ) ) ) ) ) ) ) ) ) ) ) ) ) ) ) ) ) ) ) ) ) )     ,.,.,.,.a X o.q.q.q.q.q.q.q.q.q.q.q.",
"q.q.q.q.q.q.q.q.s   ,.,.,.,.,.,.  , ) ) ) ) ) ) ) ) ) ) ) ) ) ) ) ) ) ) ) ) ) ) ) ) ) )     R ,.,.,.>.  k q.q.q.q.q.q.q.q.q.q.q.",
"q.q.q.q.q.q.q.q.l   ,.,.,.,.,.:.  & ) ) ) ) ) ) ) ) ) ) ) ) ) ) ) ) ) ) ) ) ) ) ) ) ) )     X ,.,.,.,.  8 q.q.q.q.q.q.q.q.q.q.q.",
"q.q.q.q.q.q.q.q.a   ,.,.,.,.,.:.  . ) ) ) ) ) ) ) ) ) ) ) ) ) ) ) ) ) ) ) ) ) ) ) ) ) ) o     ,.,.,.,.  & q.q.q.q.q.q.q.q.q.q.q.",
"q.q.q.q.q.q.q.q.-   ,.,.,.,.,.:.    ) ) ) ) ) ) ) ) ) ) ) ) ) ) ) ) ) ) ) ) ) ) ) ) ) ) B     ,.,.,.,.    q.q.q.q.q.q.q.q.q.q.q.",
"q.q.q.q.q.q.q.q.&   ,.,.,.,.,.,.    ) ) ) ) ) ) ) ) ) ) ) ) ) ) ) ) ) ) ) ) ) ) ) ) ) ) )     ,.,.,.,.X   q.q.q.q.q.q.q.q.q.q.q.",
"q.q.q.q.q.q.q.q.&   ,.,.,.,.,.,.    ) ) ) ) ) ) ) ) ) ) ) ) ) ) ) ) ) ) ) ) ) ) ) ) ) ) )     ,.,.,.,.7   q.q.q.q.q.q.q.q.q.q.q.",
"q.q.q.q.q.q.q.q.&   ,.,.,.,.,.,.    ) ) ) ) ) ) ) ) ) ) ) ) ) ) ) ) ) ) ) ) ) ) ) ) ) ) )     >.,.,.,.X.  q.q.q.q.q.q.q.q.q.q.q.",
"q.q.q.q.q.q.q.q.4   ,.,.,.,.,.,.    ) ) ) ) ) ) ) ) ) ) ) ) ) ) ) ) ) ) ) ) ) ) ) ) ) ) )     g ,.,.,.,.  q.q.q.q.q.q.q.q.q.q.q.",
"q.q.q.q.q.q.q.q.j   X.,.,.,.,.,.    ) ) ) ) ) ) ) ) ) ) ) ) ) ) ) ) ) ) ) ) ) ) ) ) ) ) )     O ,.,.,.,.  q.q.q.q.q.q.q.q.q.q.q.",
"q.q.q.q.q.q.q.q.+.  D ,.,.,.,.,.    ) ) ) ) ) ) ) ) ) ) ) ) ) ) ) ) ) ) ) ) ) ) ) ) ) ) )       ,.,.,.,.  q.q.q.q.q.q.q.q.q.q.q.",
"q.q.q.q.q.q.q.q.8.  O ,.,.,.,.,.    ) ) ) ) ) ) ) ) ) ) ) ) ) ) ) ) ) ) ) ) ) ) ) ) ) ) )       ,.,.,.F   q.q.q.q.q.q.q.q.q.q.q.",
"q.q.q.q.q.q.q.q.8.    ,.,.,.,.,.    Y ) ) ) ) ) ) ) ) ) ) ) ) ) ) ) ) ) ) ) ) ) ) ) ) ) ) X     ,.F $     +.q.q.q.q.q.q.q.q.q.q.",
"q.q.q.q.q.q.q.q.8.    ,.,.,.,.,.>   # ) ) ) ) ) ) ) ) ) ) ) ) ) ) ) ) ) ) ) ) ) ) ) ) ) )                 q.q.q.q.q.q.q.q.q.q.q.",
"q.q.q.q.q.q.q.q.q.    ,.,.,.E   X     ) ) ) ) ) ) ) ) ) ) ) ) ) ) ) ) ) ) ) ) ) ) ) ) ) )         X +.q.q.q.q.q.q.q.q.q.q.q.q.q.",
"q.q.q.q.q.q.q.q.q.    f               ) ) ) ) ) ) ) ) ) ) ) ) / ) ) ) ) ) ) ) ) ) ) ) ) )       q.q.q.q.q.q.q.q.q.q.q.q.q.q.q.q.",
"q.q.q.q.q.q.q.q.q.              q.    ) ) ) ) ) ) ) ) / W N < X                               k q.q.q.q.q.q.q.q.q.q.q.q.q.q.q.q.",
"q.q.q.q.q.q.q.q.q.          2.q.q.                                                            q.q.q.q.q.q.q.q.q.q.q.q.q.q.q.q.q.",
"q.q.q.q.q.q.q.q.q..     o.q.q.q.q.                                          & 5 s [ { } o.#.q.q.q.q.q.q.q.q.q.q.q.q.q.q.q.q.q.q.",
"q.q.q.q.q.q.q.q.q.q.<.q.q.q.q.q.q.q.    X 4 8 s o.2.0.q.q.q.q.q.q.q.q.q.q.q.q.q.q.q.q.q.q.q.q.q.q.q.q.q.q.q.q.q.q.q.q.q.q.q.q.q.",
"q.q.q.q.q.q.q.q.q.q.q.q.q.q.q.q.q.q.q.q.q.q.q.q.q.q.q.q.q.q.q.q.q.q.q.q.q.q.q.q.q.q.q.q.q.q.q.q.q.q.q.q.q.q.q.q.q.q.q.q.q.q.q.q.",
"q.q.q.q.q.q.q.q.q.q.q.q.q.q.q.q.q.q.q.q.q.q.q.q.q.q.q.q.q.q.q.q.q.q.q.q.q.q.q.q.q.q.q.q.q.q.q.q.q.q.q.q.q.q.q.q.q.q.q.q.q.q.q.q."
};
