/* XPM */
static char *tshirt3[] = {
/* columns rows colors chars-per-pixel */
"64 64 137 2 ",
"   c #000000",
".  c #05020A",
"X  c #0B0B0B",
"o  c #0A0514",
"O  c #0D0B14",
"+  c #0D0619",
"@  c #141414",
"#  c #15111F",
"$  c #1B1B1B",
"%  c #120B24",
"&  c #160C2C",
"*  c #1A0D33",
"=  c #1C0F38",
"-  c #232423",
";  c #2C2C2C",
":  c #333333",
">  c #3D3D3D",
",  c #221243",
"<  c #251448",
"1  c #2E185D",
"2  c #353641",
"3  c #3D3845",
"4  c #331A65",
"5  c #3A1E73",
"6  c #3B2173",
"7  c #434343",
"8  c #4D4D4C",
"9  c #464151",
"0  c #555555",
"q  c #585857",
"w  c #5C5C5C",
"e  c #5C4B7D",
"r  c #665B7B",
"t  c #636362",
"y  c #6D6D6D",
"u  c #756F7F",
"i  c #757574",
"p  c #75717C",
"a  c gray48",
"s  c #432486",
"d  c #47268D",
"f  c #4E3288",
"g  c #55329C",
"h  c #5D3D9E",
"j  c #542DA5",
"k  c #562DA9",
"l  c #592EAE",
"z  c #5B37A5",
"x  c #6133BF",
"c  c #745F9E",
"v  c #746C84",
"b  c #74678E",
"n  c #746A8A",
"m  c #746493",
"M  c #74619B",
"N  c #7D6F9F",
"B  c #745DA3",
"V  c #7357AF",
"C  c #7459AC",
"Z  c #734EBE",
"A  c #7354B3",
"S  c #7351BA",
"D  c #6234C1",
"F  c #6837CD",
"G  c #6938CF",
"H  c #6D3AD4",
"J  c #6E3BD9",
"K  c #703ED6",
"L  c #713DDC",
"P  c #733DE2",
"I  c #734BC4",
"U  c #7347CE",
"Y  c #7348CA",
"T  c #7B57C5",
"R  c #7344D4",
"E  c #7340DA",
"W  c #8B6CD9",
"Q  c #997CD5",
"!  c #9B7FD9",
"~  c #848484",
"^  c #858B83",
"/  c #8D8D8D",
"(  c #939293",
")  c #939891",
"_  c #999999",
"`  c #A3A3A3",
"'  c #A4AAA3",
"]  c #AAADA9",
"[  c gray71",
"{  c #B7BBB6",
"}  c #BCBCBC",
"|  c #BFC0BD",
" . c #8789CC",
".. c #9D81D9",
"X. c #A287DB",
"o. c #A98FDE",
"O. c #B59EE2",
"+. c #B6A0E3",
"@. c #B8A7EE",
"#. c #ADA3FB",
"$. c #A9ABFC",
"%. c #B6AEFC",
"&. c #B5B6FB",
"*. c #B7B9FD",
"=. c #BBBDFD",
"-. c #C0BECA",
";. c #C7BBDF",
":. c #CABBEA",
">. c #C7BDFC",
",. c #C2C3C2",
"<. c #C5C8C3",
"1. c #CCCDCB",
"2. c #CAC7D8",
"3. c #D8DAD7",
"4. c #DDDDDD",
"5. c #CEC0EB",
"6. c #CAC1FA",
"7. c #C8C9FD",
"8. c #D8CDF0",
"9. c #DCD1F1",
"0. c #D9D3FD",
"q. c #DDDAFF",
"w. c #E0DFE3",
"e. c #E1E1E1",
"r. c #EDEDED",
"t. c #E9E3F7",
"y. c #EAE5FA",
"u. c #ECE9FF",
"i. c #F3EFFB",
"p. c #F3F4F3",
"a. c #F3F1FF",
"s. c #F4F3FF",
"d. c #F9F7FF",
"f. c #F9F9F9",
"g. c #FBFAFF",
"h. c #FCFBFF",
"j. c white",
/* pixels */
"j.j.j.j.j.j.j.j.j.j.j.j.j.j.j.j.j.j.j.j.j.j.j.j.j.j.j.j.j.j.j.j.j.j.j.j.j.j.j.j.j.j.j.j.j.j.j.j.j.j.j.j.j.j.j.j.j.j.j.j.j.j.j.j.",
"j.j.j.j.j.j.j.j.j.j.j.j.j.j.j.j.j.j.j.j.j.j.j.j.j.j.j.    j.j.j.j.j.$     4.j.j.j.j.j.j.j.j.j.j.j.j.j.j.j.j.j.j.j.j.j.j.j.j.j.j.",
"j.j.j.j.j.j.j.j.j.j.j.j.j.j.j.j.j.j.j.j.j.j.j.j.j.j.X     j.j.j.j.j.  y $   / j.j.j.j.j.j.j.j.j.j.j.j.j.j.j.j.j.j.j.j.j.j.j.j.j.",
"j.j.j.j.j.j.j.j.j.j.j.j.j.j.j.j.j.j.j.j.j.j.j.r.p.    r.  j.j.j.j.    j.j.1.  j.j.j.j.j.j.j.j.j.j.j.j.j.j.j.j.j.j.j.j.j.j.j.j.j.",
"j.j.j.j.j.j.j.j.j.j.j.j.j.j.j.j.j.j.j.j.1.( -.    O ^ j.  j.j.j.[   6.4.j.p.    t a e.j.j.j.j.j.j.j.j.j.j.j.j.j.j.j.j.j.j.j.j.j.",
"j.j.j.j.j.j.j.j.j.j.j.j.j.j.j.j.j.j.              s.j.j.    j.j.  @ j.g.j.                j.j.j.j.j.j.j.j.j.j.j.j.j.j.j.j.j.j.j.",
"j.j.j.j.j.j.j.j.j.j.j.j.j.j.j.j.i     X i i   t   j.j...1.  j.    j.j.j.Q   j.  q i i i     r.j.j.j.j.j.j.j.j.j.j.j.j.j.j.j.j.j.",
"j.j.j.j.j.j.j.j.j.j.j.j.j.j.j.y     i i i i   j.  . j.7.w.        2 9.j.  _ j.  7 i i i i     p.j.j.j.j.j.j.j.j.j.j.j.j.j.j.j.j.",
"j.j.j.j.j.j.j.j.j.j.j.j.j.j.1.    i i i i i   j.-   `     X   j.          q.j.  0 i i i i i     j.j.j.j.j.j.j.j.j.j.j.j.j.j.j.j.",
"j.j.j.j.j.j.j.j.j.j.j.j.j.j.    J H L E L E   <.j.    X j.]   j.1..     j.p.3.  f I I I Z Z S     j.j.j.j.j.j.j.j.j.j.j.j.j.j.j.",
"j.j.j.j.j.j.j.j.j.j.j.j.j.    F P P P P P P   u.9.,.2.j.5.j.  W j.a.;.6.j.j.8.  D P P P P P L .   w j.j.j.j.j.j.j.j.j.j.j.j.j.j.",
"j.j.j.j.j.j.j.j.j.j.j.j.j.    P P P P P P P   ` N q.r.j.h.j.  j.j...u.j.j.j.s.  P P P P P P P P     j.j.j.j.j.j.j.j.j.j.j.j.j.j.",
"j.j.j.j.j.j.j.j.j.j.j.j.    P P P P P P P P   @ j.j.] j.j.j.  *.j.1.j.p.j.j.j.  P P P P P P P P 1   @ j.j.j.j.j.j.j.j.j.j.j.j.j.",
"j.j.j.j.j.j.j.j.j.j.j.`   . P P P L P P P P 1   j.O.j.j.j.t.  +.j.j.j.X.j.o.j.  P P P P P P P P P     j.j.j.j.j.j.j.j.j.j.j.j.j.",
"j.j.j.j.j.j.j.j.j.j.j.    p p u v v v v n n r   j.j.j.j.f.j.  s.j.h.j.j.j.j._   C C C A S S S Z I O   t j.j.j.j.j.j.j.j.j.j.j.j.",
"j.j.j.j.j.j.j.j.j.j.j.    i i i i i i i i i p   j.j.! %.=.0.  r.g.*.j.Q j.#.    i i i i i i i i i i     j.j.j.j.j.j.j.j.j.j.j.j.",
"j.j.j.j.j.j.j.j.j.j.    i i i i i i i i i i i   ) j.j.j.! j.  j.<.{ j.j.j.y.  : i i i i i i i i i i     j.j.j.j.j.j.j.j.j.j.j.j.",
"j.j.j.j.j.j.j.j.j.j.    u u v p p p p p p i p   - j.>.j.j.j.  >.1.j.j.>.j.j.  i i i i i i i i i i i q     j.j.j.j.j.j.j.j.j.j.j.",
"j.j.j.j.j.j.j.j.j.1.    P P P P P P P P P L L .   j.j.j.t.j.  j.j.g.:.j.d.y   C C B c c M M m m m m n     j.j.j.j.j.j.j.j.j.j.j.",
"j.j.j.j.j.j.j.j.j.    L P P P P P P P P P P P L   j.j.j.j.'   $.j.j.j.j.j.  * P P P P P P P P P P P P     j.j.j.j.j.j.j.j.j.j.j.",
"j.j.j.j.j.j.j.j.j.    P P P P P P P P P P P P P   $ j.j.&.j.  j.j.j.' j.j.  P P P P P P P P P P P P P 5     j.j.j.j.j.j.j.j.j.j.",
"j.j.j.j.j.j.j.j.j.    P P P P P P P P P P P P P %   j.j.j.j.  q.{ i.j.s.    P P P P P P P P P P P P P P     j.j.j.j.j.j.j.j.j.j.",
"j.j.j.j.j.j.j.j.]     S I Z I I Y U R R R E E L E   @ #.8.0.  j.s.&.@.4.  l P P P P P P P P P P P P P P     j.j.j.j.j.j.j.j.j.j.",
"j.j.j.j.j.j.j.j.    > i i i i i i i i i i i i i i .   j.j.j.  j.j.9.j.q   i p p p v     m m M c B B C A     4.j.j.j.j.j.j.j.j.j.",
"j.j.j.j.j.j.j.j.    i i i i i i i i i i i i i i i i     j.j.   .j.f.j.  8 i i i i i     i i i i i i i i 0   . j.j.j.j.j.j.j.j.j.",
"j.j.j.j.j.j.j.j.    i i i i i i i i i i i i i i i i w   1.j.$ e j.j.    i i i i i i     i i i i i i i i i     j.j.j.j.j.j.j.j.j.",
"j.j.j.j.j.j.j.j.    Z S A V C B B   M M m b n n v u p     j.7 a j.|   i i i i i i i     i i i i i i i i i     j.j.j.j.j.j.j.j.j.",
"j.j.j.j.j.j.j.f.    P L P P P P P   P P P P P P P P P P     i 8 1.  < L L E E E E R     g U Y Y I Z S A A     j.j.j.j.j.j.j.j.j.",
"j.j.j.j.j.j.j.0     P P P P P P P   P P P P P P P P P P P         * P P P P P P P P     o P P P L P P P P     ) j.j.j.j.j.j.j.j.",
"j.j.j.j.j.j.j.      P P P P P P L   P P P P P P P P P P P F   4 P P P P P P P P P P &   . P P P P P P P P D   . j.j.j.j.j.j.j.j.",
"j.j.j.j.j.j.j.    d P P P L P P j   P P P P P P P P P P P P P   P P P P P P P P P P s     P P P P P P P P P     j.j.j.j.j.j.j.j.",
"j.j.j.j.j.j.j.    b m M c c c B #   V A S I T I Y U R R H H H   L P P P P P P P P P x     P P P P P P P P P     j.j.j.j.j.j.j.j.",
"j.j.j.j.j.j.j.    i i i i i i i     i i i i i i i i i i p i i   i p p p p u u u v v u     v n n n b m M M c     j.j.j.j.j.j.j.j.",
"j.j.j.j.j.j.j.    i i i i i i i     i i i i i i i i i i i i i   i i i i i i i i i i i     i i i i i i i i i     j.j.j.j.j.j.j.j.",
"j.j.j.j.j.j.j.    i i i i i i i     a i i i i i i i i i i i i   i i i i i i i i i i i     i i i i i i i i i     4.j.j.j.j.j.j.j.",
"j.j.j.j.j.j.j.    I I Z S A A A     B B c M M M M M b m m b n   r v v v v v p p p i p     i i i i i i i i i $   7 j.j.j.j.j.j.j.",
"j.j.j.j.j.j.j.    P P P P P P P     P P P P P P P P P P P P P   4 P P P P P P P P L J     R L R R U U Y Y I h     j.j.j.j.j.j.j.",
"j.j.j.j.j.j.1.    P P P P P P P     P P P P P P P P P P P P P   < P P P P P P P P P P     P P P P P P P P P E     j.j.j.j.j.j.j.",
"j.j.j.j.j.j.t     P P P L P P P   O P P P P P P P P P P P P P   + P P P P P P P P P P     k P P P P P P P P P     j.j.j.j.j.j.j.",
"j.j.j.j.j.j.-     R R R R R R R   & R R R H K K E L R E L R R     R U U U U U Y U R R     . E J L P L P P P P     j.j.j.j.j.j.j.",
"j.j.j.j.j.j.X     p p p p p u p   $ p v v v n n n n n b v v v .   i i i i i i i i i i $     v v b m c B C C A     j.j.j.j.j.j.j.",
"j.j.j.j.j.j..     i i i i i i i   $ i i i i i i i i i i i i i $   i i i i i i i i i i y     i i i i i i i i i     j.j.j.j.j.j.j.",
"j.j.j.j.j.j.X     i i i i i i i   $ i i i i i i i i i i i i i ;   i i i i i i i i i i i     i i i i i i i i i     j.j.j.j.j.j.j.",
"j.j.j.j.j.j.$     p i i i i i i   @ i i i i i i i i i i i i i >   i i i i i i i i i i i     i i i i i i i i i     j.j.j.j.j.j.j.",
"j.j.j.j.j.j.:     L L P L L P L   % E P E E E E L E E E E R R z   Y Y Y Y Y I I Z S S A     e M M m m b n v v     e.j.j.j.j.j.j.",
"j.j.j.j.j.j.0     P P P P P P H   o P P L P P P P P P P P P P F   P P P P P P P P P P P     o P P P P P P P P     { j.j.j.j.j.j.",
"j.j.j.j.j.j./     P P P P P P F   . P P P P P P P P P P P P P P   P P P P P P P P P P P       P P P P P P P P     _ j.j.j.j.j.j.",
"j.j.j.j.j.j.,.    H H H J H H F     J J J J J J J H J J J H H J   H H H H H H H H H H R 6     H R H H R K K H     t j.j.j.j.j.j.",
"j.j.j.j.j.j.p.    v v n n v v v     n v n n v n n n n n n n n v   n v n v v v v v v v v v     v v v v v v v v     7 j.j.j.j.j.j.",
"j.j.j.j.j.j.j.    i i i i i i i     i i i i i i i i i i i i i i   y i i i i i i i i i i i     i i i i i i i i     ; j.j.j.j.j.j.",
"j.j.j.j.j.j.j.    i i i i i i i     i i i i i i i i i i i i i i   w i i i i i i i i i i i     i i i i i i i i X   - j.j.j.j.j.j.",
"j.j.j.j.j.j.j.    p p p p p u v     v v v v v v v v v v v v v v   3 v v v v v v v v v v v     9 v n v n v n n O   - j.j.j.j.j.j.",
"j.j.j.j.j.j.j.    D F H H F F H     F F F F F H G G G H G G H F   , H H H J H J H H J J L     o J P P P P P P &   - j.j.j.j.j.j.",
"j.j.j.j.j.j.j.    * P P P P P P     P P P P P P P P P P P P P P   + P P P P P P P P P P P       P P P P P P P &   - j.j.j.j.j.j.",
"j.j.j.j.j.j.j.      P P P P P P     P P P P P P P P P P P P P P   . P P P P P P P P P P P       P P P P P P P =   ; j.j.j.j.j.j.",
"j.j.j.j.j.j.j.4.    P P P P P J *   F P P P P P P P P P P P P P     P P P P P P P P P P P                   .     - j.j.j.j.j.j.",
"j.j.j.j.j.j.j.j.    L P P 5         + L L J J J J J L J J J J J =   H L L J E L E L L R J                         t j.j.j.j.j.j.",
"j.j.j.j.j.j.j.j.      ,         /     m m m m m m m m b m m m b r   n n n n v u v p p p p                       > j.j.j.j.j.j.j.",
"j.j.j.j.j.j.j.j.@           ( j.j.    i i i i i i i i i i i i i i   i i i i i i i i i i i     . j.j.j.j.j.j.j.j.j.j.j.j.j.j.j.j.",
"j.j.j.j.j.j.j.j./       ; j.j.j.j.    i i i i i i i i i y 8 - X .                             ^ j.j.j.j.j.j.j.j.j.j.j.j.j.j.j.j.",
"j.j.j.j.j.j.j.j.j.$ e.j.j.j.j.j.j.                                                            j.j.j.j.j.j.j.j.j.j.j.j.j.j.j.j.j.",
"j.j.j.j.j.j.j.j.j.j.j.j.j.j.j.j.j.$                                           X ; t y i ~ ` f.j.j.j.j.j.j.j.j.j.j.j.j.j.j.j.j.j.",
"j.j.j.j.j.j.j.j.j.j.j.j.j.j.j.j.j.j.      X @ : ~ } p.j.j.j.j.j.j.j.j.j.j.j.j.j.j.j.j.j.j.j.j.j.j.j.j.j.j.j.j.j.j.j.j.j.j.j.j.j.",
"j.j.j.j.j.j.j.j.j.j.j.j.j.j.j.j.j.j.j.j.j.j.j.j.j.j.j.j.j.j.j.j.j.j.j.j.j.j.j.j.j.j.j.j.j.j.j.j.j.j.j.j.j.j.j.j.j.j.j.j.j.j.j.j."
};
