/* XPM */
static char *tshirt8[] = {
/* columns rows colors chars-per-pixel */
"64 64 145 2 ",
"   c black",
".  c #070000",
"X  c #030700",
"o  c #060606",
"O  c #0A0201",
"+  c #0E0000",
"@  c #0A0700",
"#  c #040A00",
"$  c #060D00",
"%  c #0B0800",
"&  c #0D0A00",
"*  c #0B0A0A",
"=  c #0E0E0E",
"-  c #100100",
";  c #130000",
":  c #1D0100",
">  c #110D0D",
",  c #091401",
"<  c #0C1901",
"1  c #161100",
"2  c #191300",
"3  c #111111",
"4  c #141010",
"5  c gray8",
"6  c #1D1615",
"7  c gray10",
"8  c #1D1A1A",
"9  c gray12",
"0  c #220100",
"q  c #240200",
"w  c #270200",
"e  c #300200",
"r  c #370300",
"t  c #380300",
"y  c #3C0300",
"u  c #281C1B",
"i  c #0F2002",
"p  c #193404",
"a  c #322600",
"s  c #202020",
"d  c #282828",
"f  c #2C2C2C",
"g  c #312F2F",
"h  c #323232",
"j  c gray20",
"k  c #3A3A3A",
"l  c #3C3C3C",
"z  c #420300",
"x  c #410400",
"c  c #4B0500",
"v  c #570500",
"b  c #5B0500",
"n  c #51140F",
"m  c #630600",
"M  c #640600",
"N  c #660600",
"B  c #6C0600",
"V  c #710700",
"C  c #770700",
"Z  c #780800",
"A  c #7D0800",
"S  c #761E17",
"D  c #413300",
"F  c #224706",
"G  c #2D5E07",
"H  c #2E5F08",
"J  c #2E6207",
"K  c #346C08",
"L  c #3B7B0A",
"P  c #3C7C0A",
"I  c #574300",
"U  c #7B5F00",
"Y  c #434343",
"T  c gray28",
"R  c gray29",
"E  c #524D4C",
"W  c #565656",
"Q  c gray35",
"!  c gray37",
"~  c #62504F",
"^  c #636262",
"/  c #666464",
"(  c gray42",
")  c #747474",
"_  c gray47",
"`  c #7C7C7C",
"'  c #810800",
"]  c #870800",
"[  c #8C0900",
"{  c #920900",
"}  c #940A00",
"|  c #9A0A00",
" . c #9E0A00",
".. c #A30B00",
"X. c #A50B00",
"o. c #A70B00",
"O. c #A90B00",
"+. c #9B271F",
"@. c #A82B21",
"#. c #A92B21",
"$. c #836600",
"%. c #3E810B",
"&. c #448D0B",
"*. c #4C9E0D",
"=. c #4EA10D",
"-. c #50A50E",
";. c #52AA0E",
":. c #57B10F",
">. c #57B20F",
",. c #AA8400",
"<. c #C99C00",
"1. c #D7A900",
"2. c #EBB800",
"3. c #EDB900",
"4. c #F9C100",
"5. c #FFC700",
"6. c #FFC800",
"7. c #898989",
"8. c #8E8E8E",
"9. c #9C8988",
"0. c #959494",
"q. c #979797",
"w. c gray62",
"e. c #A2A2A2",
"r. c #A7A7A7",
"t. c #ABA3A3",
"y. c #ACACAC",
"u. c #AEAEAE",
"i. c #B6B6B6",
"p. c gray",
"a. c #C3C3C3",
"s. c gray78",
"d. c #CACACA",
"f. c #D2D2D2",
"g. c #D7D7D7",
"h. c gray85",
"j. c gray88",
"k. c #E7E7E7",
"l. c #E9E9E9",
"z. c #EEEEEE",
"x. c #F2EDED",
"c. c #F4F4F4",
"v. c gray98",
"b. c snow",
"n. c white",
/* pixels */
"n.n.n.n.n.n.n.n.n.n.n.n.n.n.n.n.n.n.n.n.n.n.n.n.n.n.n.n.n.n.n.n.n.n.n.n.n.n.n.n.n.n.n.n.n.n.n.n.n.n.n.n.n.n.n.n.n.n.n.n.n.n.n.n.",
"n.n.n.n.n.n.n.n.n.n.n.n.n.n.n.n.n.n.n.n.n.n.n.n.n.n.n.n.n.n.n.n.n.n.n.n.n.n.n.n.n.n.n.n.n.n.n.n.n.n.n.n.n.n.n.n.n.n.n.n.n.n.n.n.",
"n.n.n.n.n.n.n.n.n.n.n.n.n.n.n.n.n.n.n.n.n.k.)   3 o                     o             n.n.n.n.n.n.n.n.n.n.n.n.n.n.n.n.n.n.n.n.n.",
"n.n.n.n.n.n.n.n.n.n.n.n.n.n.n.n.n.n.n.u.                                                  n.n.n.n.n.n.n.n.n.n.n.n.n.n.n.n.n.n.n.",
"n.n.n.n.n.n.n.n.n.n.n.n.n.n.n.n.n.c.          O S #.#.#.#.#.#.#.#.#.#.+.      | | Z         w.n.n.n.n.n.n.n.n.n.n.n.n.n.n.n.n.n.",
"n.n.n.n.n.n.n.n.n.n.n.n.n.n.n.n.n.    ;     #.#.@.@.#.#.#.#.#.#.#.#.#.#.      O.O.O.O...      7 n.n.n.n.n.n.n.n.n.n.n.n.n.n.n.n.",
"n.n.n.n.n.n.n.n.n.n.n.n.n.n.n.n.f   C     #.#.#.@.@.#.#.#.#.#.#.#.n         O.O.O.O.O.O.O.      R n.n.n.n.n.n.n.n.n.n.n.n.n.n.n.",
"n.n.n.n.n.n.n.n.n.n.n.n.n.n.n.w.  O.O.    #.#.#.@.@.#.#.#.S .           O O.O.O.O.O.O.O.O.O.      n.n.n.n.n.n.n.n.n.n.n.n.n.n.n.",
"n.n.n.n.n.n.n.n.n.n.n.n.n.n.z.  O.O.O.                              z O.O.O.O.O.O.O.O.O.O.O.O.      n.n.n.n.n.n.n.n.n.n.n.n.n.n.",
"n.n.n.n.n.n.n.n.n.n.n.n.n.n.  Z O.O.O.O.                    . [ O.O.O.O.O.O.O.O.O.O.O.O.O.O.O.}     ` n.n.n.n.n.n.n.n.n.n.n.n.n.",
"n.n.n.n.n.n.n.n.n.n.n.n.n.  . O.O.O.O.O.O.O.O.O.O.O.O.O.O.O.O.O.O.O.O.O.O.O.O.O.O.O.O.O.O.O.O.O.      n.n.n.n.n.n.n.n.n.n.n.n.n.",
"n.n.n.n.n.n.n.n.n.n.n.n.    O.O.O.O.O.O.O.O.O.O.O.O.O.O.O.O.O.O.O.O.O.O.O.O.O.O.O.O.O.O.O.O.O.O.O.      n.n.n.n.n.n.n.n.n.n.n.n.",
"n.n.n.n.n.n.n.n.n.n.n.d.  X.O.O.O.O.O.O.O.O.O.O.O.O.O.O.O.O.O.O.O.O.O.O.O.O.O.O.O.O.O.O.O.O.O.O.O.e     n.n.n.n.n.n.n.n.n.n.n.n.",
"n.n.n.n.n.n.n.n.n.n.n.    O.O.O.O.O.O.O.O.O.O.O.O.O.O.O.O.O.O.O.O.O.O.O.O.O.O.O.O.O.O.O.O.O.O.O.O.O.    7.n.n.n.n.n.n.n.n.n.n.n.",
"n.n.n.n.n.n.n.n.n.n.    O.O.O.O.O.O.O.O.O.O.O.O.O.O.O.O.O.O.O.O.O.O.O.O.O.O.O.O.O.O.O.O.O.O.O.O.O.O.      n.n.n.n.n.n.n.n.n.n.n.",
"n.n.n.n.n.n.n.n.n.n.  ; O.O.O.O.O.O.O.O.O.O.O.O.O.O.O.O.O.O.O.O.O.O.O.O.O.O.O.O.O.O.O.O.O.O.O.O.O.O.c     n.n.n.n.n.n.n.n.n.n.n.",
"n.n.n.n.n.n.n.n.n.    O.O.O.O.O.O.O.O.O.O.O.O.O.O.O.O.O.O.O.O.O.O.O.O.O.O.O.O.O.O.O.O.O.O.O.O.O.O.O...    n.n.n.n.n.n.n.n.n.n.n.",
"n.n.n.n.n.n.n.n.n.  . O.O.O.O.O.O.O.O.O.O.O.O.O.O.O.O.O.O.O.O.O.O.O.O.O.O.O.O.O.O.O.O.O.O.O.O.O.O.O.O.    n.n.n.n.n.n.n.n.n.n.n.",
"n.n.n.n.n.n.n.n.3   O.O.O.O.O.O.O.O.O.O.O.O.O.O.O.O.O.O.O.O.O.O.O.O.O.O.O.O.O.O.O.O.O.O.O.O.O.O.O.O.O.    n.n.n.n.n.n.n.n.n.n.n.",
"n.n.n.n.n.n.n.n.    O.O.O.O.O.O.O.O.O.O.O.O.O.O.O.O.O.O.O.O.O.O.O.O.O.O.O.O.O.O.O.O.O.O.O.O.O.O.O.O.O.    c.n.n.n.n.n.n.n.n.n.n.",
"n.n.n.n.n.n.n.n.  r O.O.O.O.O.O.O.O.O.O.O.O.O.O.O.O.O.O.O.O.O.O.X.O     O.O.O.O.O.O.O.O.O.O.O.O.O.O.O.    g.n.n.n.n.n.n.n.n.n.n.",
"n.n.n.n.n.n.n.T   O.O.O.O.O.O.O.O.O.O.O.O.O.O.O.O.O.O.O.O.O.O...        e O.O.O.O.O.O.O.O.O.O.O.O.O.O.    7.n.n.n.n.n.n.n.n.n.n.",
"n.n.n.n.n.n.n.    O.O.O.O.O.O.O.O.O.O.O.O.O.O.O.O.O.x             5.1   { O.O.O.O.O.    O.O.O.O.O.O.O.    T n.n.n.n.n.n.n.n.n.n.",
"n.n.n.n.n.n.n.    O.O.O.O.O.O.O.O.O.O.O.O.O.O.O...            1 6.5.a   O O.O.O.O.O.    O.O.O.O.O.O.O.    o n.n.n.n.n.n.n.n.n.n.",
"n.n.n.n.n.n.n.    O.O.O.O.O.O.O.O.O.O.O.O.O.O.[     g n.Y     5.5.        N O.O.O.O.    O.O.O.O.O.O.O.      n.n.n.n.n.n.n.n.n.n.",
"n.n.n.n.n.n.n.  t O.O.O.O.O.O.O.O.  O.O.O.O.'     9.n._     5.5.U   l t.    O.O.O.O.    X.O.O.O.O.O.O.      n.n.n.n.n.n.n.n.n.n.",
"n.n.n.n.n.n.p.  [ O.O.O.O.O.O.O.O.  O.O.O.X.    x.n.l     4.5.5.    n.n.>   [ O.O.O.    V O.O.O.O.O.O.      n.n.n.n.n.n.n.n.n.n.",
"n.n.n.n.n.n.(    .O.O.O.O.O.O.O.O.  O.O.O..   ~ n.9     5.5.5.5.$.  ^ n.b.    O.O.O.    ; O.O.O.O.O.O.+     n.n.n.n.n.n.n.n.n.n.",
"n.n.n.n.n.n.k   O.O.O.O.O.O.O.O.X.  O.O.O.    n.n.    4.5.5.5.5.5.    n.n.    O.O.O.q     O.O.O.O.O.O.q     n.n.n.n.n.n.n.n.n.n.",
"n.n.n.n.n.n.h   O.O.O.O.O.O.O.O.Z   O.O.[   E n.n./     5.5.6.5.5.I   0.n.u   { O.O.B     O.O.O.O.O.O.b     n.n.n.n.n.n.n.n.n.n.",
"n.n.n.n.n.n.h   ..O.O.O.O.O.O.O.q   O.O.r   n.n.n.b.      5.5.5.5.1.    n.4    .O.O.{     ;                 n.n.n.n.n.n.n.n.n.n.",
"n.n.n.n.n.n._   ] O.O.O.O.O.O.O.    O.O.q   n.n.n.n.      6.5.5.3.    8.n.    O.O.O.O.                    h.n.n.n.n.n.n.n.n.n.n.",
"n.n.n.n.n.n.n.    O.O.O.N     e     O.O.v   n.n.l.    . 5.5.5.2.    d n.n.    O.O.O.O.    >.>.>.>.>.  s.n.n.n.n.n.n.n.n.n.n.n.n.",
"n.n.n.n.n.n.n.                      O.O.|   * n.l     5.5.6.4.      n.n.n.    O.O.O.O.    >.>.>.>.>.  e.n.n.n.n.n.n.n.n.n.n.n.n.",
"n.n.n.n.n.n.n.              , J     O.O.X.    n.n.    % 5.5.5.    = n.n.    | O.O.O.O.    >.>.>.>.>.  7.n.n.n.n.n.n.n.n.n.n.n.n.",
"n.n.n.n.n.n.n.n.    >.>.>.>.>.>.    O.O.O.}   0.n.n.    1 5.5.D     n.o   0 O.O.O.O.O.    >.>.>.>.>.  W n.n.n.n.n.n.n.n.n.n.n.n.",
"n.n.n.n.n.n.n.n.    >.>.>.>.>.>.  . X.O.O.O.t   p.n.n.    5.5.5.%   *   . O.O.O.O.O.O.    >.>.>.>.>.  h n.n.n.n.n.n.n.n.n.n.n.n.",
"n.n.n.n.n.n.n.n.    >.>.>.>.>.>.  ; O.O.O.O.O.y   f c.    5.5.a         X.O.O.O.O.O.O.    P >.>.>.>.  5 n.n.n.n.n.n.n.n.n.n.n.n.",
"n.n.n.n.n.n.n.n.    >.>.>.>.>.>.  : O.O.O.O.O.O.A       ,.5.2     O N O.O.O.O.O.O.O.O.      >.>.>.>.    n.n.n.n.n.n.n.n.n.n.n.n.",
"n.n.n.n.n.n.n.n.    >.>.>.>.>.>.  q O.O.O.O.O.O.O. .    6.&     O.O.O.O.O.O.O.O.O.O.O.r     >.>.>.>.    n.n.n.n.n.n.n.n.n.n.n.n.",
"n.n.n.n.n.n.n.n.    >.>.>.>.>.>.  q O.O.O.O.O.O.O.y   <.%     O.O.O.O.O.O.O.O.O.O.O.O...    >.>.>.>.    n.n.n.n.n.n.n.n.n.n.n.n.",
"n.n.n.n.n.n.n.n.    >.>.>.>.>.>.  w O.O.O.O.O.O.O.          O.O.O.O.O.O.O.O.O.O.O.O.O.X.    >.>.>.>.    n.n.n.n.n.n.n.n.n.n.n.n.",
"n.n.n.n.n.n.n.n.    >.>.>.>.>.>.  6 O.O.O.O.O.O.O.      . O.O.O.O.O.O.O.O.O.O.O.O.O.O.O.    >.>.>.>.    n.n.n.n.n.n.n.n.n.n.n.n.",
"n.n.n.n.n.n.n.n.    >.>.>.>.>.>.  8 O.O.O.O.O.O.v       O.O.O.O.O.O.O.O.O.O.O.O.O.O.O.O.    %.>.>.>.    v.n.n.n.n.n.n.n.n.n.n.n.",
"n.n.n.n.n.n.n.n.    >.>.>.>.>.;.  5 O.O.O.O.O.O.:     X.O.O.O.O.O.O.O.O.O.O.O.O.O.O.O.O.    X >.>.>.    d.n.n.n.n.n.n.n.n.n.n.n.",
"n.n.n.n.n.n.n.n.    >.>.>.>.>.=.  * O.O.O.O.O.O...: O.O.O.O.O.O.O.O.O.O.O.O.O.O.O.O.O.O.O     >.>.>.#   Q n.n.n.n.n.n.n.n.n.n.n.",
"n.n.n.n.n.n.n.n.    >.>.>.>.>.-.    O.O.O.O.O.O.O.O.O.O.O.O.O.O.O.O.O.O.O.O.O.O.O.O.O.O.N     >.>.>.i   3 n.n.n.n.n.n.n.n.n.n.n.",
"n.n.n.n.n.n.n.n.    >.>.>.>.>.>.    O.O.O.O.O.O.O.O.O.O.O.O.O.O.O.O.O.O.O.O.O.O.O.O.O.O.O.    >.>.>.p     n.n.n.n.n.n.n.n.n.n.n.",
"n.n.n.n.n.n.n.n.    >.>.>.>.>.>.    O.O.O.O.O.O.O.O.O.O.O.O.O.O.O.O.O.O.O.O.O.O.O.O.O.O.O.    >.>.>.F     n.n.n.n.n.n.n.n.n.n.n.",
"n.n.n.n.n.n.n.n.    >.>.>.>.>.>.    O.O.O.O.O.O.O.O.O.O.O.O.O.O.O.O.O.O.O.O.O.O.O.O.O.O.O.    >.>.>.H     n.n.n.n.n.n.n.n.n.n.n.",
"n.n.n.n.n.n.n.n.    >.>.>.>.>.>.    O.O.O.O.O.O.O.O.O.O.O.O.O.O.O.O.O.O.O.O.O.O.O.O.O.O.O.    J >.>.L     n.n.n.n.n.n.n.n.n.n.n.",
"n.n.n.n.n.n.n.n.    >.>.>.>.>.>.    O.O.O.O.O.O.O.O.O.O.O.O.O.O.O.O.O.O.O.O.O.O.O.O.O.O.O.    $ >.>.-.    n.n.n.n.n.n.n.n.n.n.n.",
"n.n.n.n.n.n.n.n.    *.>.>.>.>.>.    O.O.O.O.O.O.O.O.O.O.O.O.O.O.O.O.O.O.O.O.O.O.O.O.O.O.O.      >.>.>.    n.n.n.n.n.n.n.n.n.n.n.",
"n.n.n.n.n.n.n.n.    $ >.>.>.>.>.    O.O.O.O.O.O.O.O.O.O.O.O.O.O.O.O.O.O.O.O.O.O.O.O.O.O.O.      >.>.>.    n.n.n.n.n.n.n.n.n.n.n.",
"n.n.n.n.n.n.n.n.3     >.>.>.>.>.    { O.O.O.O.O.O.O.O.O.O.O.O.O.O.O.O.O.O.O.O.O.O.O.O.O.O.      >.K <     i.n.n.n.n.n.n.n.n.n.n.",
"n.n.n.n.n.n.n.n.f     >.>.>.>.>.<   ; O.O.O.O.O.O.O.O.O.O.O.O.O.O.O.O.O.O.O.O.O.O.O.O.O.O.                n.n.n.n.n.n.n.n.n.n.n.",
"n.n.n.n.n.n.n.n.Q     >.>.>.&.  X     O.O.O.O.O.O.O.O.O.O.O.O.O.O.O.O.O.O.O.O.O.O.O.O.O.O.      n.n.n.n.n.n.n.n.n.n.n.n.n.n.n.n.",
"n.n.n.n.n.n.n.n._     G               O.O.O.O.O.O.O.O.O.O.O.O.O.O.O.O.O.O.O.O.O.O.O.O.O.O.      n.n.n.n.n.n.n.n.n.n.n.n.n.n.n.n.",
"n.n.n.n.n.n.n.n.e.              n.    O.O.O.O.O.O.O.O.X.} m q                                 ) n.n.n.n.n.n.n.n.n.n.n.n.n.n.n.n.",
"n.n.n.n.n.n.n.n.e.        ( j.n.n.                                                            n.n.n.n.n.n.n.n.n.n.n.n.n.n.n.n.n.",
"n.n.n.n.n.n.n.n.n.u.3 a.n.n.n.n.n.                                          5 f Q 7.0.w.r.p.n.n.n.n.n.n.n.n.n.n.n.n.n.n.n.n.n.n.",
"n.n.n.n.n.n.n.n.n.n.n.n.n.n.n.n.n.n.    * s h ! r.f.c.n.n.n.n.n.n.n.n.n.n.n.n.n.n.n.n.n.n.n.n.n.n.n.n.n.n.n.n.n.n.n.n.n.n.n.n.n.",
"n.n.n.n.n.n.n.n.n.n.n.n.n.n.n.n.n.n.n.n.n.n.n.n.n.n.n.n.n.n.n.n.n.n.n.n.n.n.n.n.n.n.n.n.n.n.n.n.n.n.n.n.n.n.n.n.n.n.n.n.n.n.n.n.",
"n.n.n.n.n.n.n.n.n.n.n.n.n.n.n.n.n.n.n.n.n.n.n.n.n.n.n.n.n.n.n.n.n.n.n.n.n.n.n.n.n.n.n.n.n.n.n.n.n.n.n.n.n.n.n.n.n.n.n.n.n.n.n.n."
};
