/* XPM */
static char *tshirt5[] = {
/* columns rows colors chars-per-pixel */
"64 64 118 2 ",
"   c #000000",
".  c #04040A",
"X  c #08070B",
"o  c #0A090D",
"O  c #070815",
"+  c #0A0C1C",
"@  c #131313",
"#  c #1C1C1D",
"$  c #0B0D21",
"%  c #0D1027",
"&  c #0F122D",
"*  c #1C1A24",
"=  c #151A3C",
"-  c #211D2A",
";  c #242424",
":  c #2C2C2C",
">  c #272332",
",  c #2C2739",
"<  c #323232",
"1  c #3A3A3A",
"2  c #191E4A",
"3  c #1E2241",
"4  c #1A204E",
"5  c #1B2251",
"6  c #1E255A",
"7  c #373147",
"8  c #383249",
"9  c #3E3750",
"0  c #3F3851",
"q  c #222963",
"w  c #252E6E",
"e  c #2C3160",
"r  c #272F72",
"t  c #283176",
"y  c #2A337B",
"u  c #423A55",
"i  c #453D59",
"p  c #3A417E",
"a  c #464646",
"s  c gray29",
"d  c #47405C",
"f  c #49415E",
"g  c #565656",
"h  c #5B5B5B",
"j  c #4C4563",
"k  c #504867",
"l  c #554B6C",
"z  c #584E70",
"x  c #5C5276",
"c  c #5E5578",
"v  c #60577B",
"b  c #62597E",
"n  c #6D6D6D",
"m  c gray46",
"M  c gray48",
"N  c #2D3683",
"B  c #2E3886",
"V  c #2F3989",
"C  c #313B89",
"Z  c #3C4381",
"A  c #37418B",
"S  c #3F4789",
"D  c #3F488E",
"F  c #444C8E",
"G  c #4B528F",
"H  c #474F90",
"J  c #565C93",
"K  c #665C82",
"L  c #5E6495",
"P  c #656A96",
"I  c #6B7099",
"U  c #777A9B",
"Y  c #797C9C",
"T  c #7C819F",
"R  c #848483",
"E  c #898989",
"W  c #84869E",
"Q  c #969696",
"!  c #9D9D9D",
"~  c #9093A3",
"^  c #A5A5A5",
"/  c #A4A3A8",
"(  c #AFADA9",
")  c #B0ADA9",
"_  c #B1B2AF",
"`  c #B3B3B2",
"'  c #BCBCB3",
"]  c gray",
"[  c #C7C5AD",
"{  c #CFCDAB",
"}  c #DED6B5",
"|  c #DFD9B6",
" . c #D7D5BA",
".. c #D8D7BB",
"X. c #DDD9BA",
"o. c #E3DCB6",
"O. c #E3DEBB",
"+. c #E7E0B7",
"@. c #EBE3B7",
"#. c #E5E2BC",
"$. c #EAE4BC",
"%. c #EDE8BD",
"&. c #F1E8B9",
"*. c #C5C5C5",
"=. c gray79",
"-. c #D4D4D4",
";. c gray85",
":. c #EBE8C0",
">. c #ECE8C0",
",. c #ECE9C1",
"<. c #EDEAC1",
"1. c #E1E1E1",
"2. c gray91",
"3. c #EEEEEE",
"4. c #F3F3F3",
"5. c gray97",
"6. c gray98",
"7. c white",
/* pixels */
"7.7.7.7.7.7.7.7.7.7.7.7.7.7.7.7.7.7.7.7.7.7.7.7.7.7.7.7.7.7.7.7.7.7.7.7.7.7.7.7.7.7.7.7.7.7.7.7.7.7.7.7.7.7.7.7.7.7.7.7.7.7.7.7.",
"7.7.7.7.7.7.7.7.7.7.7.7.7.7.7.7.7.7.7.7.7.7.7.7.7.7.7.7.7.7.7.7.7.7.7.7.7.7.7.7.7.7.7.7.7.7.7.7.7.7.7.7.7.7.7.7.7.7.7.7.7.7.7.7.",
"7.7.7.7.7.7.7.7.7.7.7.7.7.7.7.7.7.7.7.7.7.7.7.7.Q .                     # 7.          7.7.7.7.7.7.7.7.7.7.7.7.7.7.7.7.7.7.7.7.7.",
"7.7.7.7.7.7.7.7.7.7.7.7.7.7.7.7.7.7.7.7.7.@                                               7.7.7.7.7.7.7.7.7.7.7.7.7.7.7.7.7.7.7.",
"7.7.7.7.7.7.7.7.7.7.7.7.7.7.7.7.7.7.7.1.        e Z S S S S S F F S S p       y y q         ! 7.7.7.7.7.7.7.7.7.7.7.7.7.7.7.7.7.",
"7.7.7.7.7.7.7.7.7.7.7.7.7.7.7.7.7.. 7.C     S S S F S S Z S S S S S S S       C V V V N       # 7.7.7.7.7.7.7.7.7.7.7.7.7.7.7.7.",
"7.7.7.7.7.7.7.7.7.7.7.7.7.7.7.7.: O V     S S F F S S S F F S S S 3         V V V V V V V       s 7.7.7.7.7.7.7.7.7.7.7.7.7.7.7.",
"7.7.7.7.7.7.7.7.7.7.7.7.7.7.7.!   V V     S S S Z S S F S e             . V V V V V V V V V       7.7.7.7.7.7.7.7.7.7.7.7.7.7.7.",
"7.7.7.7.7.7.7.7.7.7.7.7.7.7.3.  V V V                               = V V V V V V V V V V V V       7.7.7.7.7.7.7.7.7.7.7.7.7.7.",
"7.7.7.7.7.7.7.7.7.7.7.7.7.7.  q V V V V                       t V V V V V V V V V V V V V V V t     M 7.7.7.7.7.7.7.7.7.7.7.7.7.",
"7.7.7.7.7.7.7.7.7.7.7.7.7.    V V V V V V V V V V V V V V V V V V V V V V V V V V V V V V V V V       7.7.7.7.7.7.7.7.7.7.7.7.7.",
"7.7.7.7.7.7.7.7.7.7.7.7.    V V V V V V V V V V V V V V V V V V V V V V V V V V V V V V V V V V C       7.7.7.7.7.7.7.7.7.7.7.7.",
"7.7.7.7.7.7.7.7.7.7.7.=.  B V V V V V V V V V V V V V V V V V V V V V V V V V V V V V V V V V V V $     7.7.7.7.7.7.7.7.7.7.7.7.",
"7.7.7.7.7.7.7.7.7.7.7.    V V V V V V V V V V V V V V V V V V V V V V V V V V V V V V V V V V V V V     E 7.7.7.7.7.7.7.7.7.7.7.",
"7.7.7.7.7.7.7.7.7.7.    V V V V V V V V V V V V V V V V V V V V V V V V V V V V V V V V V V V V V V       7.7.7.7.7.7.7.7.7.7.7.",
"7.7.7.7.7.7.7.7.7.7.  X V V V V V V V V V V V V V V V V V V V V V V V V V V V V V V V V V V V V V V =     7.7.7.7.7.7.7.7.7.7.7.",
"7.7.7.7.7.7.7.7.7.    V V V V V V V V V V V V V V V V V V V V V V V V V V V V V V V V V V V V V V V B     7.7.7.7.7.7.7.7.7.7.7.",
"7.7.7.7.7.7.7.7.7.    V V V V V V V V V V V V V V V V V V V V V V V V V V V V V V V V V V V V V V V V     7.7.7.7.7.7.7.7.7.7.7.",
"7.7.7.7.7.7.7.7.@   V V V V V V V V V V V V V V V V V V V V V V V V V V V V V V V V V V V V V V V V V     7.7.7.7.7.7.7.7.7.7.7.",
"7.7.7.7.7.7.7.7.    V V V V V V V V V V V V V V V V V V V V V V V V V V V V V V V V V V V V V V V V V     4.7.7.7.7.7.7.7.7.7.7.",
"7.7.7.7.7.7.7.7.  & V V V V V V V V V V V V V V C B V D N Y #.' C C V V V V V V V V V V V V V V V V V     ;.7.7.7.7.7.7.7.7.7.7.",
"7.7.7.7.7.7.7.a   V V V V V V V V V V V V V V V C A <.<.%.<.<.<.<.X.J V V V V V V V V V V V V V V V V     E 7.7.7.7.7.7.7.7.7.7.",
"7.7.7.7.7.7.7.    V V V V V V V V V V V V V V V g <.<.<.%.<.<.<.<.<.<.<.C V V V V V     V V V V V V V     a 7.7.7.7.7.7.7.7.7.7.",
"7.7.7.7.7.7.7.    V V V V V V V V V V V V V V { <.<.<.<.<.<.<.<.<.<.<.<.<.C V V V V     V V V V V V V     . 7.7.7.7.7.7.7.7.7.7.",
"7.7.7.7.7.7.7.    V V V V V V V V V V V V V R <.<.<.<.<.<.<.<.<.%.@.&.<.<.<.V V V V     V V V V V V V       7.7.7.7.7.7.7.7.7.7.",
"7.7.7.7.7.7.7.  & V V V V V V V V   V V C F <.<.A C V C C <.<.V V V V %.<.<. .V V V     B V V V V V V       7.7.7.7.7.7.7.7.7.7.",
"7.7.7.7.7.7.]   r V V V V V V V V   V V V <.<.<.<.<.| @.C <.<.<.#.@.~ C <.<.<.V V V     6 V V V V V V       7.7.7.7.7.7.7.7.7.7.",
"7.7.7.7.7.7.n   N V V V V V V V V   V V C <.<.<.<.<.<.W G <.<.<.<.O.o.B <.<.<.L V V     . V V V V V V .     7.7.7.7.7.7.7.7.7.7.",
"7.7.7.7.7.7.1   V V V V V V V V V   V V I <.<.<.<.<.<.V o.<.<.o.} } Y F <.<.<.Y V V $     V V V V V V $     7.7.7.7.7.7.7.7.7.7.",
"7.7.7.7.7.7.<   V V V V V V V V q   V V ' <.<.<.<.<.O.C o.<.<.J F V C X.%.<.<.P V V 6     V V V V V V 2     7.7.7.7.7.7.7.7.7.7.",
"7.7.7.7.7.7.<   B V V V V V V V +   V V X.<.<.<.<.<.D / $.<.<.) ( Y V J :.:.<.F V V t     .                 7.7.7.7.7.7.7.7.7.7.",
"7.7.7.7.7.7.M   w V V V V V V V     V V T <.<.<.<.X.V :.<.<.<.%.O.$.o.V <.<.:.G V V V                     ;.7.7.7.7.7.7.7.7.7.7.",
"7.7.7.7.7.7.7.    V V V 5     %     V V C <.<.<.<.I P <.<.<.<.<.#.%.} C <.<.<.V V V V     i i i i u   *.7.7.7.7.7.7.7.7.7.7.7.7.",
"7.7.7.7.7.7.7.                      V V V O.<.<.#.V o.<.<.<.<.O.o.o.J D <.<.<.V V V V     i i i i i   ^ 7.7.7.7.7.7.7.7.7.7.7.7.",
"7.7.7.7.7.7.7.              o 7     V V V V <.<.<.P <.<.<.<.$.A C C P <.<.<. .V V V V     c x c c c   E 7.7.7.7.7.7.7.7.7.7.7.7.",
"7.7.7.7.7.7.7.7.a   u i i i i u     V V V V H <.<.<.<.<.<.<.<.| X.$.<.<.<.<.V V V V V     K K c c z   g 7.7.7.7.7.7.7.7.7.7.7.7.",
"7.7.7.7.7.7.7.7.7.  i i i i i i     V V V V V A <.<.<.<.<.<.<.<.<.<.<.<.<.` V V V V V     K K K x j   < 7.7.7.7.7.7.7.7.7.7.7.7.",
"7.7.7.7.7.7.7.7.7.  c v c c c c   X V V V V V V C #.<.<.<.<.<.<.<.<.<.<...V V V V V V     i i i i i * . 7.7.7.7.7.7.7.7.7.7.7.7.",
"7.7.7.7.7.7.7.7.7.  c c c c c c   + V V V V V V V V V [ <.<.<.<.<.<.<.A V V V V V V V     , i i i i     7.7.7.7.7.7.7.7.7.7.7.7.",
"7.7.7.7.7.7.7.7.7.  k i i i i i   $ V V V V V V V V V V V V _ ..~ A V V V V V V V V V &     f f 9 9     7.7.7.7.7.7.7.7.7.7.7.7.",
"7.7.7.7.7.7.7.7.7.. i i i i i i   $ V V V V V V V V V V V V V V C V V V V V V V V V V N     c c c c     7.7.7.7.7.7.7.7.7.7.7.7.",
"7.7.7.7.7.7.7.7.7.  j i d i u u   $ V V V V V V V V V V V V V V V V V V V V V V V V V V     K c c c     7.7.7.7.7.7.7.7.7.7.7.7.",
"7.7.7.7.7.7.7.7.7.  c c c c c c   * V V V V V V V V V V V V V V V V V V V V V V V V V V     K i i i     7.7.7.7.7.7.7.7.7.7.7.7.",
"7.7.7.7.7.7.7.7.4.  c c c c c v   # V V V V V V V V V V V V V V V V V V V V V V V V V V     8 i i i     6.7.7.7.7.7.7.7.7.7.7.7.",
"7.7.7.7.7.7.7.7.3.  x l x c b v   @ V V V V V V V V V V V V V V V V V V V V V V V V V V       K K c     =.7.7.7.7.7.7.7.7.7.7.7.",
"7.7.7.7.7.7.7.7.;.- i i i i i j   X V V V V V V V V V V V V V V V V V V V V V V V V V V .     c c c .   h 7.7.7.7.7.7.7.7.7.7.7.",
"7.7.7.7.7.7.7.7.`   i i i i i u     V V V V V V V V V V V V V V V V V V V V V V V V V V 5     c c c o   @ 7.7.7.7.7.7.7.7.7.7.7.",
"7.7.7.7.7.7.7.7.Q   x c c c c c     V V V V V V V V V V V V V V V V V V V V V V V V V V V     i i i ,     7.7.7.7.7.7.7.7.7.7.7.",
"7.7.7.7.7.7.7.7.R   x c x v c c     V V V V V V V V V V V V V V V V V V V V V V V V V V V     i i i -     7.7.7.7.7.7.7.7.7.7.7.",
"7.7.7.7.7.7.7.7.m   0 9 8 u u u     V V V V V V V V V V V V V V V V V V V V V V V V V V V     c c x ,     7.7.7.7.7.7.7.7.7.7.7.",
"7.7.7.7.7.7.7.7.n   u 9 u u u 9     V V V V V V V V V V V V V V V V V V V V V V V V V V V     > u f 7     7.7.7.7.7.7.7.7.7.7.7.",
"7.7.7.7.7.7.7.7.R   c c c c c c     V V V V V V V V V V V V V V V V V V V V V V V V V V V     * i i i .   7.7.7.7.7.7.7.7.7.7.7.",
"7.7.7.7.7.7.7.7.=.  c c c c c z     V V V V V V V V V V V V V V V V V V V V V V V V V V V       f i i     7.7.7.7.7.7.7.7.7.7.7.",
"7.7.7.7.7.7.7.7.7.  . 0 9 0 u 0     V V V V V V V V V V V V V V V V V V V V V V V V V V V       c c c     7.7.7.7.7.7.7.7.7.7.7.",
"7.7.7.7.7.7.7.7.7.    u u 9 0 u     t V V V V V V V V V V V V V V V V V V V V V V V V V V       9 > X     7.7.7.7.7.7.7.7.7.7.7.",
"7.7.7.7.7.7.7.7.7.    j x x c 9 o   X V V V V V V V V V V V V V V V V V V V V V V V V V V                 7.7.7.7.7.7.7.7.7.7.7.",
"7.7.7.7.7.7.7.7.7.    c c c c         V V V V V V V V V V V V V V V V V V V V V V V V V V       7.7.7.7.7.7.7.7.7.7.7.7.7.7.7.7.",
"7.7.7.7.7.7.7.7.7.    >               C V V V V V V V V V V V V V V V V V V V V V V V V V       7.7.7.7.7.7.7.7.7.7.7.7.7.7.7.7.",
"7.7.7.7.7.7.7.7.7..           . 7.    C V V V V V V V B t 5 +                                 m 7.7.7.7.7.7.7.7.7.7.7.7.7.7.7.7.",
"7.7.7.7.7.7.7.7.7.2.    ; 7.7.7.7.                                                            7.7.7.7.7.7.7.7.7.7.7.7.7.7.7.7.7.",
"7.7.7.7.7.7.7.7.7.7.@ *.7.7.7.7.7.                                          @ : h E Q ! ^ ] 7.7.7.7.7.7.7.7.7.7.7.7.7.7.7.7.7.7.",
"7.7.7.7.7.7.7.7.7.7.7.7.7.7.7.7.7.7.    . ; < h ^ -.5.7.7.7.7.7.7.7.7.7.7.7.7.7.7.7.7.7.7.7.7.7.7.7.7.7.7.7.7.7.7.7.7.7.7.7.7.7.",
"7.7.7.7.7.7.7.7.7.7.7.7.7.7.7.7.7.7.7.7.7.7.7.7.7.7.7.7.7.7.7.7.7.7.7.7.7.7.7.7.7.7.7.7.7.7.7.7.7.7.7.7.7.7.7.7.7.7.7.7.7.7.7.7.",
"7.7.7.7.7.7.7.7.7.7.7.7.7.7.7.7.7.7.7.7.7.7.7.7.7.7.7.7.7.7.7.7.7.7.7.7.7.7.7.7.7.7.7.7.7.7.7.7.7.7.7.7.7.7.7.7.7.7.7.7.7.7.7.7."
};
